<?xml version="1.0" encoding="UTF-8" standalone="no"?>
<!DOCTYPE svg PUBLIC "-//W3C//DTD SVG 1.1//EN"
 "http://www.w3.org/Graphics/SVG/1.1/DTD/svg11.dtd">
<!-- Generated by graphviz version 2.47.0 (20210316.0004)
 -->
<!-- Title: dependencies Pages: 1 -->
<svg width="793pt" height="284pt"
 viewBox="0.00 0.00 793.00 284.00" xmlns="http://www.w3.org/2000/svg" xmlns:xlink="http://www.w3.org/1999/xlink">
<g id="graph0" class="graph" transform="scale(1 1) rotate(0) translate(4 280)">
<title>dependencies</title>
<polygon fill="white" stroke="transparent" points="-4,4 -4,-280 789,-280 789,4 -4,4"/>
<text text-anchor="start" x="371.51" y="-42.4" font-family="sans-serif" font-weight="bold" font-size="14.00">Legend</text>
<polygon fill="#ffffb3" stroke="transparent" points="158.5,-10 158.5,-30 178.5,-30 178.5,-10 158.5,-10"/>
<text text-anchor="start" x="182.13" y="-15.4" font-family="sans-serif" font-size="14.00"> &#160;Declarations</text>
<polygon fill="#8dd3c7" stroke="transparent" points="271.5,-10 271.5,-30 291.5,-30 291.5,-10 271.5,-10"/>
<text text-anchor="start" x="295.23" y="-15.4" font-family="sans-serif" font-size="14.00"> &#160;Module</text>
<polygon fill="#80b1d3" stroke="transparent" points="357.5,-10 357.5,-30 377.5,-30 377.5,-10 357.5,-10"/>
<text text-anchor="start" x="381.28" y="-15.4" font-family="sans-serif" font-size="14.00"> &#160;Bootstrap</text>
<polygon fill="#fdb462" stroke="transparent" points="454.5,-10 454.5,-30 474.5,-30 474.5,-10 454.5,-10"/>
<text text-anchor="start" x="478.17" y="-15.4" font-family="sans-serif" font-size="14.00"> &#160;Providers</text>
<polygon fill="#fb8072" stroke="transparent" points="550.5,-10 550.5,-30 570.5,-30 570.5,-10 550.5,-10"/>
<text text-anchor="start" x="574.23" y="-15.4" font-family="sans-serif" font-size="14.00"> &#160;Exports</text>
<g id="clust1" class="cluster">
<title>cluster_CoreModule</title>
<polygon fill="none" stroke="black" stroke-dasharray="1,5" points="8,-70 8,-268 777,-268 777,-70 8,-70"/>
</g>
<g id="clust2" class="cluster">
<title>cluster_CoreModule_declarations</title>
<polygon fill="none" stroke="black" points="181,-78 181,-130 577,-130 577,-78 181,-78"/>
</g>
<g id="clust7" class="cluster">
<title>cluster_CoreModule_exports</title>
<polygon fill="none" stroke="black" points="16,-208 16,-260 769,-260 769,-208 16,-208"/>
</g>
<!-- FooterComponent -->
<g id="node1" class="node">
<title>FooterComponent</title>
<polygon fill="#ffffb3" stroke="black" points="568.88,-122 451.12,-122 451.12,-86 568.88,-86 568.88,-122"/>
<text text-anchor="middle" x="510" y="-99.8" font-family="Times,serif" font-size="14.00">FooterComponent</text>
</g>
<!-- CoreModule -->
<g id="node4" class="node">
<title>CoreModule</title>
<polygon fill="#8dd3c7" stroke="black" points="415.26,-187 412.26,-191 391.26,-191 388.26,-187 328.74,-187 328.74,-151 415.26,-151 415.26,-187"/>
<text text-anchor="middle" x="372" y="-164.8" font-family="Times,serif" font-size="14.00">CoreModule</text>
</g>
<!-- FooterComponent&#45;&gt;CoreModule -->
<g id="edge1" class="edge">
<title>FooterComponent&#45;&gt;CoreModule</title>
<path fill="none" stroke="black" d="M464.87,-122.03C464.87,-138.4 464.87,-160 464.87,-160 464.87,-160 425.44,-160 425.44,-160"/>
<polygon fill="black" stroke="black" points="425.45,-156.5 415.44,-160 425.44,-163.5 425.45,-156.5"/>
</g>
<!-- HeaderComponent -->
<g id="node2" class="node">
<title>HeaderComponent</title>
<polygon fill="#ffffb3" stroke="black" points="432.74,-122 311.26,-122 311.26,-86 432.74,-86 432.74,-122"/>
<text text-anchor="middle" x="372" y="-99.8" font-family="Times,serif" font-size="14.00">HeaderComponent</text>
</g>
<!-- HeaderComponent&#45;&gt;CoreModule -->
<g id="edge2" class="edge">
<title>HeaderComponent&#45;&gt;CoreModule</title>
<path fill="none" stroke="black" d="M372,-122.11C372,-122.11 372,-140.99 372,-140.99"/>
<polygon fill="black" stroke="black" points="368.5,-140.99 372,-150.99 375.5,-140.99 368.5,-140.99"/>
</g>
<!-- NavComponent -->
<g id="node3" class="node">
<title>NavComponent</title>
<polygon fill="#ffffb3" stroke="black" points="293.15,-122 188.85,-122 188.85,-86 293.15,-86 293.15,-122"/>
<text text-anchor="middle" x="241" y="-99.8" font-family="Times,serif" font-size="14.00">NavComponent</text>
</g>
<!-- NavComponent&#45;&gt;CoreModule -->
<g id="edge3" class="edge">
<title>NavComponent&#45;&gt;CoreModule</title>
<path fill="none" stroke="black" d="M276.12,-122.03C276.12,-138.4 276.12,-160 276.12,-160 276.12,-160 318.55,-160 318.55,-160"/>
<polygon fill="black" stroke="black" points="318.55,-163.5 328.55,-160 318.55,-156.5 318.55,-163.5"/>
</g>
<!-- FooterComponent  -->
<g id="node5" class="node">
<title>FooterComponent </title>
<polygon fill="#fb8072" stroke="black" points="760.88,-252 639.12,-252 639.12,-216 760.88,-216 760.88,-252"/>
<text text-anchor="middle" x="700" y="-229.8" font-family="Times,serif" font-size="14.00">FooterComponent </text>
</g>
<!-- CoreModule&#45;&gt;FooterComponent  -->
<g id="edge4" class="edge">
<title>CoreModule&#45;&gt;FooterComponent </title>
<path fill="none" stroke="black" stroke-dasharray="5,2" d="M415.56,-169C504.78,-169 700,-169 700,-169 700,-169 700,-205.89 700,-205.89"/>
<polygon fill="black" stroke="black" points="696.5,-205.89 700,-215.89 703.5,-205.89 696.5,-205.89"/>
</g>
<!-- HeaderComponent  -->
<g id="node6" class="node">
<title>HeaderComponent </title>
<polygon fill="#fb8072" stroke="black" points="621.74,-252 496.26,-252 496.26,-216 621.74,-216 621.74,-252"/>
<text text-anchor="middle" x="559" y="-229.8" font-family="Times,serif" font-size="14.00">HeaderComponent </text>
</g>
<!-- CoreModule&#45;&gt;HeaderComponent  -->
<g id="edge5" class="edge">
<title>CoreModule&#45;&gt;HeaderComponent </title>
<path fill="none" stroke="black" stroke-dasharray="5,2" d="M415.48,-178C463.06,-178 532.66,-178 532.66,-178 532.66,-178 532.66,-205.97 532.66,-205.97"/>
<polygon fill="black" stroke="black" points="529.16,-205.97 532.66,-215.97 536.16,-205.97 529.16,-205.97"/>
</g>
<!-- IconsModule  -->
<g id="node7" class="node">
<title>IconsModule </title>
<polygon fill="#fb8072" stroke="black" points="478.87,-252 385.13,-252 385.13,-216 478.87,-216 478.87,-252"/>
<text text-anchor="middle" x="432" y="-229.8" font-family="Times,serif" font-size="14.00">IconsModule </text>
</g>
<!-- CoreModule&#45;&gt;IconsModule  -->
<g id="edge6" class="edge">
<title>CoreModule&#45;&gt;IconsModule </title>
<path fill="none" stroke="black" stroke-dasharray="5,2" d="M400.35,-187.11C400.35,-187.11 400.35,-205.99 400.35,-205.99"/>
<polygon fill="black" stroke="black" points="396.85,-205.99 400.35,-215.99 403.85,-205.99 396.85,-205.99"/>
</g>
<!-- NavComponent  -->
<g id="node8" class="node">
<title>NavComponent </title>
<polygon fill="#fb8072" stroke="black" points="367.15,-252 258.85,-252 258.85,-216 367.15,-216 367.15,-252"/>
<text text-anchor="middle" x="313" y="-229.8" font-family="Times,serif" font-size="14.00">NavComponent </text>
</g>
<!-- CoreModule&#45;&gt;NavComponent  -->
<g id="edge7" class="edge">
<title>CoreModule&#45;&gt;NavComponent </title>
<path fill="none" stroke="black" stroke-dasharray="5,2" d="M347.85,-187.11C347.85,-187.11 347.85,-205.99 347.85,-205.99"/>
<polygon fill="black" stroke="black" points="344.35,-205.99 347.85,-215.99 351.35,-205.99 344.35,-205.99"/>
</g>
<!-- TemplatesModule  -->
<g id="node9" class="node">
<title>TemplatesModule </title>
<polygon fill="#fb8072" stroke="black" points="240.86,-252 119.14,-252 119.14,-216 240.86,-216 240.86,-252"/>
<text text-anchor="middle" x="180" y="-229.8" font-family="Times,serif" font-size="14.00">TemplatesModule </text>
</g>
<!-- CoreModule&#45;&gt;TemplatesModule  -->
<g id="edge8" class="edge">
<title>CoreModule&#45;&gt;TemplatesModule </title>
<path fill="none" stroke="black" stroke-dasharray="5,2" d="M328.59,-178C282.03,-178 214.68,-178 214.68,-178 214.68,-178 214.68,-205.97 214.68,-205.97"/>
<polygon fill="black" stroke="black" points="211.18,-205.97 214.68,-215.97 218.18,-205.97 211.18,-205.97"/>
</g>
<!-- UiModule  -->
<g id="node10" class="node">
<title>UiModule </title>
<polygon fill="#fb8072" stroke="black" points="101.55,-252 24.45,-252 24.45,-216 101.55,-216 101.55,-252"/>
<text text-anchor="middle" x="63" y="-229.8" font-family="Times,serif" font-size="14.00">UiModule </text>
</g>
<!-- CoreModule&#45;&gt;UiModule  -->
<g id="edge9" class="edge">
<title>CoreModule&#45;&gt;UiModule </title>
<path fill="none" stroke="black" stroke-dasharray="5,2" d="M328.71,-169C243.67,-169 63,-169 63,-169 63,-169 63,-205.89 63,-205.89"/>
<polygon fill="black" stroke="black" points="59.5,-205.89 63,-215.89 66.5,-205.89 59.5,-205.89"/>
</g>
</g>
</svg>
