<?xml version="1.0" encoding="UTF-8" standalone="no"?>
<!DOCTYPE svg PUBLIC "-//W3C//DTD SVG 1.1//EN"
 "http://www.w3.org/Graphics/SVG/1.1/DTD/svg11.dtd">
<!-- Generated by graphviz version 2.47.0 (20210316.0004)
 -->
<!-- Title: dependencies Pages: 1 -->
<svg width="667pt" height="284pt"
 viewBox="0.00 0.00 667.00 284.00" xmlns="http://www.w3.org/2000/svg" xmlns:xlink="http://www.w3.org/1999/xlink">
<g id="graph0" class="graph" transform="scale(1 1) rotate(0) translate(4 280)">
<title>dependencies</title>
<polygon fill="white" stroke="transparent" points="-4,4 -4,-280 663,-280 663,4 -4,4"/>
<text text-anchor="start" x="308.51" y="-42.4" font-family="sans-serif" font-weight="bold" font-size="14.00">Legend</text>
<polygon fill="#ffffb3" stroke="transparent" points="95.5,-10 95.5,-30 115.5,-30 115.5,-10 95.5,-10"/>
<text text-anchor="start" x="119.13" y="-15.4" font-family="sans-serif" font-size="14.00"> &#160;Declarations</text>
<polygon fill="#8dd3c7" stroke="transparent" points="208.5,-10 208.5,-30 228.5,-30 228.5,-10 208.5,-10"/>
<text text-anchor="start" x="232.23" y="-15.4" font-family="sans-serif" font-size="14.00"> &#160;Module</text>
<polygon fill="#80b1d3" stroke="transparent" points="294.5,-10 294.5,-30 314.5,-30 314.5,-10 294.5,-10"/>
<text text-anchor="start" x="318.28" y="-15.4" font-family="sans-serif" font-size="14.00"> &#160;Bootstrap</text>
<polygon fill="#fdb462" stroke="transparent" points="391.5,-10 391.5,-30 411.5,-30 411.5,-10 391.5,-10"/>
<text text-anchor="start" x="415.17" y="-15.4" font-family="sans-serif" font-size="14.00"> &#160;Providers</text>
<polygon fill="#fb8072" stroke="transparent" points="487.5,-10 487.5,-30 507.5,-30 507.5,-10 487.5,-10"/>
<text text-anchor="start" x="511.23" y="-15.4" font-family="sans-serif" font-size="14.00"> &#160;Exports</text>
<g id="clust1" class="cluster">
<title>cluster_SharedModule</title>
<polygon fill="none" stroke="black" stroke-dasharray="1,5" points="8,-70 8,-268 651,-268 651,-70 8,-70"/>
</g>
<g id="clust8" class="cluster">
<title>cluster_SharedModule_exports</title>
<polygon fill="none" stroke="black" points="16,-208 16,-260 643,-260 643,-208 16,-208"/>
</g>
<g id="clust2" class="cluster">
<title>cluster_SharedModule_declarations</title>
<polygon fill="none" stroke="black" points="161,-78 161,-130 635,-130 635,-78 161,-78"/>
</g>
<g id="clust7" class="cluster">
<title>cluster_SharedModule_imports</title>
<polygon fill="none" stroke="black" points="19,-78 19,-130 153,-130 153,-78 19,-78"/>
</g>
<!-- BtnComponent -->
<g id="node1" class="node">
<title>BtnComponent</title>
<polygon fill="#ffffb3" stroke="black" points="626.56,-122 525.44,-122 525.44,-86 626.56,-86 626.56,-122"/>
<text text-anchor="middle" x="576" y="-99.8" font-family="Times,serif" font-size="14.00">BtnComponent</text>
</g>
<!-- SharedModule -->
<g id="node5" class="node">
<title>SharedModule</title>
<polygon fill="#8dd3c7" stroke="black" points="374.42,-187 371.42,-191 350.42,-191 347.42,-187 275.58,-187 275.58,-151 374.42,-151 374.42,-187"/>
<text text-anchor="middle" x="325" y="-164.8" font-family="Times,serif" font-size="14.00">SharedModule</text>
</g>
<!-- BtnComponent&#45;&gt;SharedModule -->
<g id="edge1" class="edge">
<title>BtnComponent&#45;&gt;SharedModule</title>
<path fill="none" stroke="black" d="M594.34,-122.27C594.34,-140.56 594.34,-166 594.34,-166 594.34,-166 384.4,-166 384.4,-166"/>
<polygon fill="black" stroke="black" points="384.4,-162.5 374.4,-166 384.4,-169.5 384.4,-162.5"/>
</g>
<!-- StateDirective -->
<g id="node2" class="node">
<title>StateDirective</title>
<polygon fill="#ffffb3" stroke="black" points="507.08,-122 410.92,-122 410.92,-86 507.08,-86 507.08,-122"/>
<text text-anchor="middle" x="459" y="-99.8" font-family="Times,serif" font-size="14.00">StateDirective</text>
</g>
<!-- StateDirective&#45;&gt;SharedModule -->
<g id="edge2" class="edge">
<title>StateDirective&#45;&gt;SharedModule</title>
<path fill="none" stroke="black" d="M475.43,-122.01C475.43,-138.05 475.43,-159 475.43,-159 475.43,-159 384.26,-159 384.26,-159"/>
<polygon fill="black" stroke="black" points="384.26,-155.5 374.26,-159 384.26,-162.5 384.26,-155.5"/>
</g>
<!-- TableLiteComponent -->
<g id="node3" class="node">
<title>TableLiteComponent</title>
<polygon fill="#ffffb3" stroke="black" points="392.75,-122 257.25,-122 257.25,-86 392.75,-86 392.75,-122"/>
<text text-anchor="middle" x="325" y="-99.8" font-family="Times,serif" font-size="14.00">TableLiteComponent</text>
</g>
<!-- TableLiteComponent&#45;&gt;SharedModule -->
<g id="edge3" class="edge">
<title>TableLiteComponent&#45;&gt;SharedModule</title>
<path fill="none" stroke="black" d="M325,-122.11C325,-122.11 325,-140.99 325,-140.99"/>
<polygon fill="black" stroke="black" points="321.5,-140.99 325,-150.99 328.5,-140.99 321.5,-140.99"/>
</g>
<!-- TotalPipe -->
<g id="node4" class="node">
<title>TotalPipe</title>
<polygon fill="#ffffb3" stroke="black" points="239.44,-122 168.56,-122 168.56,-86 239.44,-86 239.44,-122"/>
<text text-anchor="middle" x="204" y="-99.8" font-family="Times,serif" font-size="14.00">TotalPipe</text>
</g>
<!-- TotalPipe&#45;&gt;SharedModule -->
<g id="edge4" class="edge">
<title>TotalPipe&#45;&gt;SharedModule</title>
<path fill="none" stroke="black" d="M214.71,-122.01C214.71,-138.05 214.71,-159 214.71,-159 214.71,-159 265.66,-159 265.66,-159"/>
<polygon fill="black" stroke="black" points="265.66,-162.5 275.66,-159 265.66,-155.5 265.66,-162.5"/>
</g>
<!-- BtnComponent  -->
<g id="node7" class="node">
<title>BtnComponent </title>
<polygon fill="#fb8072" stroke="black" points="634.56,-252 529.44,-252 529.44,-216 634.56,-216 634.56,-252"/>
<text text-anchor="middle" x="582" y="-229.8" font-family="Times,serif" font-size="14.00">BtnComponent </text>
</g>
<!-- SharedModule&#45;&gt;BtnComponent  -->
<g id="edge6" class="edge">
<title>SharedModule&#45;&gt;BtnComponent </title>
<path fill="none" stroke="black" stroke-dasharray="5,2" d="M374.38,-173C443.81,-173 561.91,-173 561.91,-173 561.91,-173 561.91,-205.7 561.91,-205.7"/>
<polygon fill="black" stroke="black" points="558.41,-205.7 561.91,-215.7 565.41,-205.7 558.41,-205.7"/>
</g>
<!-- StateDirective  -->
<g id="node8" class="node">
<title>StateDirective </title>
<polygon fill="#fb8072" stroke="black" points="511.58,-252 412.42,-252 412.42,-216 511.58,-216 511.58,-252"/>
<text text-anchor="middle" x="462" y="-229.8" font-family="Times,serif" font-size="14.00">StateDirective </text>
</g>
<!-- SharedModule&#45;&gt;StateDirective  -->
<g id="edge7" class="edge">
<title>SharedModule&#45;&gt;StateDirective </title>
<path fill="none" stroke="black" stroke-dasharray="5,2" d="M374.36,-180C407,-180 443.82,-180 443.82,-180 443.82,-180 443.82,-205.72 443.82,-205.72"/>
<polygon fill="black" stroke="black" points="440.32,-205.72 443.82,-215.72 447.32,-205.72 440.32,-205.72"/>
</g>
<!-- TableLiteComponent  -->
<g id="node9" class="node">
<title>TableLiteComponent </title>
<polygon fill="#fb8072" stroke="black" points="394.75,-252 255.25,-252 255.25,-216 394.75,-216 394.75,-252"/>
<text text-anchor="middle" x="325" y="-229.8" font-family="Times,serif" font-size="14.00">TableLiteComponent </text>
</g>
<!-- SharedModule&#45;&gt;TableLiteComponent  -->
<g id="edge8" class="edge">
<title>SharedModule&#45;&gt;TableLiteComponent </title>
<path fill="none" stroke="black" stroke-dasharray="5,2" d="M325,-187.11C325,-187.11 325,-205.99 325,-205.99"/>
<polygon fill="black" stroke="black" points="321.5,-205.99 325,-215.99 328.5,-205.99 321.5,-205.99"/>
</g>
<!-- TemplatesModule  -->
<g id="node10" class="node">
<title>TemplatesModule </title>
<polygon fill="#fb8072" stroke="black" points="237.86,-252 116.14,-252 116.14,-216 237.86,-216 237.86,-252"/>
<text text-anchor="middle" x="177" y="-229.8" font-family="Times,serif" font-size="14.00">TemplatesModule </text>
</g>
<!-- SharedModule&#45;&gt;TemplatesModule  -->
<g id="edge9" class="edge">
<title>SharedModule&#45;&gt;TemplatesModule </title>
<path fill="none" stroke="black" stroke-dasharray="5,2" d="M275.76,-180C237.8,-180 191.75,-180 191.75,-180 191.75,-180 191.75,-205.72 191.75,-205.72"/>
<polygon fill="black" stroke="black" points="188.25,-205.72 191.75,-215.72 195.25,-205.72 188.25,-205.72"/>
</g>
<!-- TotalPipe  -->
<g id="node11" class="node">
<title>TotalPipe </title>
<polygon fill="#fb8072" stroke="black" points="97.94,-252 24.06,-252 24.06,-216 97.94,-216 97.94,-252"/>
<text text-anchor="middle" x="61" y="-229.8" font-family="Times,serif" font-size="14.00">TotalPipe </text>
</g>
<!-- SharedModule&#45;&gt;TotalPipe  -->
<g id="edge10" class="edge">
<title>SharedModule&#45;&gt;TotalPipe </title>
<path fill="none" stroke="black" stroke-dasharray="5,2" d="M275.63,-173C199.59,-173 62.52,-173 62.52,-173 62.52,-173 62.52,-205.7 62.52,-205.7"/>
<polygon fill="black" stroke="black" points="59.02,-205.7 62.52,-215.7 66.02,-205.7 59.02,-205.7"/>
</g>
<!-- TemplatesModule -->
<g id="node6" class="node">
<title>TemplatesModule</title>
<polygon fill="#8dd3c7" stroke="black" points="144.86,-122 141.86,-126 120.86,-126 117.86,-122 27.14,-122 27.14,-86 144.86,-86 144.86,-122"/>
<text text-anchor="middle" x="86" y="-99.8" font-family="Times,serif" font-size="14.00">TemplatesModule</text>
</g>
<!-- TemplatesModule&#45;&gt;SharedModule -->
<g id="edge5" class="edge">
<title>TemplatesModule&#45;&gt;SharedModule</title>
<path fill="none" stroke="black" d="M130.62,-122.27C130.62,-140.56 130.62,-166 130.62,-166 130.62,-166 265.7,-166 265.7,-166"/>
<polygon fill="black" stroke="black" points="265.7,-169.5 275.7,-166 265.7,-162.5 265.7,-169.5"/>
</g>
</g>
</svg>
