<?xml version="1.0" encoding="UTF-8" standalone="no"?>
<!DOCTYPE svg PUBLIC "-//W3C//DTD SVG 1.1//EN"
 "http://www.w3.org/Graphics/SVG/1.1/DTD/svg11.dtd">
<!-- Generated by graphviz version 2.47.0 (20210316.0004)
 -->
<!-- Title: dependencies Pages: 1 -->
<svg width="667pt" height="284pt"
 viewBox="0.00 0.00 667.00 284.00" xmlns="http://www.w3.org/2000/svg" xmlns:xlink="http://www.w3.org/1999/xlink">
<g id="graph0" class="graph" transform="scale(1 1) rotate(0) translate(4 280)">
<title>dependencies</title>
<polygon fill="white" stroke="transparent" points="-4,4 -4,-280 663,-280 663,4 -4,4"/>
<text text-anchor="start" x="308.51" y="-42.4" font-family="sans-serif" font-weight="bold" font-size="14.00">Legend</text>
<polygon fill="#ffffb3" stroke="transparent" points="95.5,-10 95.5,-30 115.5,-30 115.5,-10 95.5,-10"/>
<text text-anchor="start" x="119.13" y="-15.4" font-family="sans-serif" font-size="14.00"> &#160;Declarations</text>
<polygon fill="#8dd3c7" stroke="transparent" points="208.5,-10 208.5,-30 228.5,-30 228.5,-10 208.5,-10"/>
<text text-anchor="start" x="232.23" y="-15.4" font-family="sans-serif" font-size="14.00"> &#160;Module</text>
<polygon fill="#80b1d3" stroke="transparent" points="294.5,-10 294.5,-30 314.5,-30 314.5,-10 294.5,-10"/>
<text text-anchor="start" x="318.28" y="-15.4" font-family="sans-serif" font-size="14.00"> &#160;Bootstrap</text>
<polygon fill="#fdb462" stroke="transparent" points="391.5,-10 391.5,-30 411.5,-30 411.5,-10 391.5,-10"/>
<text text-anchor="start" x="415.17" y="-15.4" font-family="sans-serif" font-size="14.00"> &#160;Providers</text>
<polygon fill="#fb8072" stroke="transparent" points="487.5,-10 487.5,-30 507.5,-30 507.5,-10 487.5,-10"/>
<text text-anchor="start" x="511.23" y="-15.4" font-family="sans-serif" font-size="14.00"> &#160;Exports</text>
<g id="clust1" class="cluster">
<title>cluster_SharedModule</title>
<polygon fill="none" stroke="black" stroke-dasharray="1,5" points="8,-70 8,-268 651,-268 651,-70 8,-70"/>
</g>
<g id="clust7" class="cluster">
<title>cluster_SharedModule_imports</title>
<polygon fill="none" stroke="black" points="509,-78 509,-130 643,-130 643,-78 509,-78"/>
</g>
<g id="clust2" class="cluster">
<title>cluster_SharedModule_declarations</title>
<polygon fill="none" stroke="black" points="27,-78 27,-130 501,-130 501,-78 27,-78"/>
</g>
<g id="clust8" class="cluster">
<title>cluster_SharedModule_exports</title>
<polygon fill="none" stroke="black" points="16,-208 16,-260 643,-260 643,-208 16,-208"/>
</g>
<!-- BtnComponent -->
<g id="node1" class="node">
<title>BtnComponent</title>
<polygon fill="#ffffb3" stroke="black" points="492.56,-122 391.44,-122 391.44,-86 492.56,-86 492.56,-122"/>
<text text-anchor="middle" x="442" y="-99.8" font-family="Times,serif" font-size="14.00">BtnComponent</text>
</g>
<!-- SharedModule -->
<g id="node5" class="node">
<title>SharedModule</title>
<polygon fill="#8dd3c7" stroke="black" points="374.42,-187 371.42,-191 350.42,-191 347.42,-187 275.58,-187 275.58,-151 374.42,-151 374.42,-187"/>
<text text-anchor="middle" x="325" y="-164.8" font-family="Times,serif" font-size="14.00">SharedModule</text>
</g>
<!-- BtnComponent&#45;&gt;SharedModule -->
<g id="edge1" class="edge">
<title>BtnComponent&#45;&gt;SharedModule</title>
<path fill="none" stroke="black" d="M403.42,-122.01C403.42,-138.05 403.42,-159 403.42,-159 403.42,-159 384.22,-159 384.22,-159"/>
<polygon fill="black" stroke="black" points="384.22,-155.5 374.22,-159 384.22,-162.5 384.22,-155.5"/>
</g>
<!-- StateDirective -->
<g id="node2" class="node">
<title>StateDirective</title>
<polygon fill="#ffffb3" stroke="black" points="373.08,-122 276.92,-122 276.92,-86 373.08,-86 373.08,-122"/>
<text text-anchor="middle" x="325" y="-99.8" font-family="Times,serif" font-size="14.00">StateDirective</text>
</g>
<!-- StateDirective&#45;&gt;SharedModule -->
<g id="edge2" class="edge">
<title>StateDirective&#45;&gt;SharedModule</title>
<path fill="none" stroke="black" d="M325,-122.11C325,-122.11 325,-140.99 325,-140.99"/>
<polygon fill="black" stroke="black" points="321.5,-140.99 325,-150.99 328.5,-140.99 321.5,-140.99"/>
</g>
<!-- TableLiteComponent -->
<g id="node3" class="node">
<title>TableLiteComponent</title>
<polygon fill="#ffffb3" stroke="black" points="258.75,-122 123.25,-122 123.25,-86 258.75,-86 258.75,-122"/>
<text text-anchor="middle" x="191" y="-99.8" font-family="Times,serif" font-size="14.00">TableLiteComponent</text>
</g>
<!-- TableLiteComponent&#45;&gt;SharedModule -->
<g id="edge3" class="edge">
<title>TableLiteComponent&#45;&gt;SharedModule</title>
<path fill="none" stroke="black" d="M246.53,-122.01C246.53,-138.05 246.53,-159 246.53,-159 246.53,-159 265.75,-159 265.75,-159"/>
<polygon fill="black" stroke="black" points="265.75,-162.5 275.75,-159 265.75,-155.5 265.75,-162.5"/>
</g>
<!-- TotalPipe -->
<g id="node4" class="node">
<title>TotalPipe</title>
<polygon fill="#ffffb3" stroke="black" points="105.44,-122 34.56,-122 34.56,-86 105.44,-86 105.44,-122"/>
<text text-anchor="middle" x="70" y="-99.8" font-family="Times,serif" font-size="14.00">TotalPipe</text>
</g>
<!-- TotalPipe&#45;&gt;SharedModule -->
<g id="edge4" class="edge">
<title>TotalPipe&#45;&gt;SharedModule</title>
<path fill="none" stroke="black" d="M101.59,-122.27C101.59,-140.56 101.59,-166 101.59,-166 101.59,-166 265.7,-166 265.7,-166"/>
<polygon fill="black" stroke="black" points="265.7,-169.5 275.7,-166 265.7,-162.5 265.7,-169.5"/>
</g>
<!-- BtnComponent  -->
<g id="node7" class="node">
<title>BtnComponent </title>
<polygon fill="#fb8072" stroke="black" points="634.56,-252 529.44,-252 529.44,-216 634.56,-216 634.56,-252"/>
<text text-anchor="middle" x="582" y="-229.8" font-family="Times,serif" font-size="14.00">BtnComponent </text>
</g>
<!-- SharedModule&#45;&gt;BtnComponent  -->
<g id="edge6" class="edge">
<title>SharedModule&#45;&gt;BtnComponent </title>
<path fill="none" stroke="black" stroke-dasharray="5,2" d="M374.25,-173C448.87,-173 582,-173 582,-173 582,-173 582,-205.7 582,-205.7"/>
<polygon fill="black" stroke="black" points="578.5,-205.7 582,-215.7 585.5,-205.7 578.5,-205.7"/>
</g>
<!-- StateDirective  -->
<g id="node8" class="node">
<title>StateDirective </title>
<polygon fill="#fb8072" stroke="black" points="511.58,-252 412.42,-252 412.42,-216 511.58,-216 511.58,-252"/>
<text text-anchor="middle" x="462" y="-229.8" font-family="Times,serif" font-size="14.00">StateDirective </text>
</g>
<!-- SharedModule&#45;&gt;StateDirective  -->
<g id="edge7" class="edge">
<title>SharedModule&#45;&gt;StateDirective </title>
<path fill="none" stroke="black" stroke-dasharray="5,2" d="M374.29,-180C410.17,-180 452.5,-180 452.5,-180 452.5,-180 452.5,-205.72 452.5,-205.72"/>
<polygon fill="black" stroke="black" points="449,-205.72 452.5,-215.72 456,-205.72 449,-205.72"/>
</g>
<!-- TableLiteComponent  -->
<g id="node9" class="node">
<title>TableLiteComponent </title>
<polygon fill="#fb8072" stroke="black" points="394.75,-252 255.25,-252 255.25,-216 394.75,-216 394.75,-252"/>
<text text-anchor="middle" x="325" y="-229.8" font-family="Times,serif" font-size="14.00">TableLiteComponent </text>
</g>
<!-- SharedModule&#45;&gt;TableLiteComponent  -->
<g id="edge8" class="edge">
<title>SharedModule&#45;&gt;TableLiteComponent </title>
<path fill="none" stroke="black" stroke-dasharray="5,2" d="M325,-187.11C325,-187.11 325,-205.99 325,-205.99"/>
<polygon fill="black" stroke="black" points="321.5,-205.99 325,-215.99 328.5,-205.99 321.5,-205.99"/>
</g>
<!-- TemplatesModule  -->
<g id="node10" class="node">
<title>TemplatesModule </title>
<polygon fill="#fb8072" stroke="black" points="237.86,-252 116.14,-252 116.14,-216 237.86,-216 237.86,-252"/>
<text text-anchor="middle" x="177" y="-229.8" font-family="Times,serif" font-size="14.00">TemplatesModule </text>
</g>
<!-- SharedModule&#45;&gt;TemplatesModule  -->
<g id="edge9" class="edge">
<title>SharedModule&#45;&gt;TemplatesModule </title>
<path fill="none" stroke="black" stroke-dasharray="5,2" d="M275.64,-180C233.75,-180 180.4,-180 180.4,-180 180.4,-180 180.4,-205.72 180.4,-205.72"/>
<polygon fill="black" stroke="black" points="176.9,-205.72 180.4,-215.72 183.9,-205.72 176.9,-205.72"/>
</g>
<!-- TotalPipe  -->
<g id="node11" class="node">
<title>TotalPipe </title>
<polygon fill="#fb8072" stroke="black" points="97.94,-252 24.06,-252 24.06,-216 97.94,-216 97.94,-252"/>
<text text-anchor="middle" x="61" y="-229.8" font-family="Times,serif" font-size="14.00">TotalPipe </text>
</g>
<!-- SharedModule&#45;&gt;TotalPipe  -->
<g id="edge10" class="edge">
<title>SharedModule&#45;&gt;TotalPipe </title>
<path fill="none" stroke="black" stroke-dasharray="5,2" d="M275.75,-173C200.71,-173 66.38,-173 66.38,-173 66.38,-173 66.38,-205.7 66.38,-205.7"/>
<polygon fill="black" stroke="black" points="62.88,-205.7 66.38,-215.7 69.88,-205.7 62.88,-205.7"/>
</g>
<!-- TemplatesModule -->
<g id="node6" class="node">
<title>TemplatesModule</title>
<polygon fill="#8dd3c7" stroke="black" points="634.86,-122 631.86,-126 610.86,-126 607.86,-122 517.14,-122 517.14,-86 634.86,-86 634.86,-122"/>
<text text-anchor="middle" x="576" y="-99.8" font-family="Times,serif" font-size="14.00">TemplatesModule</text>
</g>
<!-- TemplatesModule&#45;&gt;SharedModule -->
<g id="edge5" class="edge">
<title>TemplatesModule&#45;&gt;SharedModule</title>
<path fill="none" stroke="black" d="M523.27,-122.27C523.27,-140.56 523.27,-166 523.27,-166 523.27,-166 384.27,-166 384.27,-166"/>
<polygon fill="black" stroke="black" points="384.27,-162.5 374.27,-166 384.27,-169.5 384.27,-162.5"/>
</g>
</g>
</svg>
