<?xml version="1.0" encoding="UTF-8" standalone="no"?>
<!DOCTYPE svg PUBLIC "-//W3C//DTD SVG 1.1//EN"
 "http://www.w3.org/Graphics/SVG/1.1/DTD/svg11.dtd">
<!-- Generated by graphviz version 2.47.0 (20210316.0004)
 -->
<!-- Title: dependencies Pages: 1 -->
<svg width="883pt" height="211pt"
 viewBox="0.00 0.00 883.00 211.00" xmlns="http://www.w3.org/2000/svg" xmlns:xlink="http://www.w3.org/1999/xlink">
<g id="graph0" class="graph" transform="scale(1 1) rotate(0) translate(4 207)">
<title>dependencies</title>
<polygon fill="white" stroke="transparent" points="-4,4 -4,-207 879,-207 879,4 -4,4"/>
<text text-anchor="start" x="416.51" y="-42.4" font-family="sans-serif" font-weight="bold" font-size="14.00">Legend</text>
<polygon fill="#ffffb3" stroke="transparent" points="203.5,-10 203.5,-30 223.5,-30 223.5,-10 203.5,-10"/>
<text text-anchor="start" x="227.13" y="-15.4" font-family="sans-serif" font-size="14.00"> &#160;Declarations</text>
<polygon fill="#8dd3c7" stroke="transparent" points="316.5,-10 316.5,-30 336.5,-30 336.5,-10 316.5,-10"/>
<text text-anchor="start" x="340.23" y="-15.4" font-family="sans-serif" font-size="14.00"> &#160;Module</text>
<polygon fill="#80b1d3" stroke="transparent" points="402.5,-10 402.5,-30 422.5,-30 422.5,-10 402.5,-10"/>
<text text-anchor="start" x="426.28" y="-15.4" font-family="sans-serif" font-size="14.00"> &#160;Bootstrap</text>
<polygon fill="#fdb462" stroke="transparent" points="499.5,-10 499.5,-30 519.5,-30 519.5,-10 499.5,-10"/>
<text text-anchor="start" x="523.17" y="-15.4" font-family="sans-serif" font-size="14.00"> &#160;Providers</text>
<polygon fill="#fb8072" stroke="transparent" points="595.5,-10 595.5,-30 615.5,-30 615.5,-10 595.5,-10"/>
<text text-anchor="start" x="619.23" y="-15.4" font-family="sans-serif" font-size="14.00"> &#160;Exports</text>
<g id="clust1" class="cluster">
<title>cluster_OrdersModule</title>
<polygon fill="none" stroke="black" stroke-dasharray="1,5" points="8,-70 8,-195 867,-195 867,-70 8,-70"/>
</g>
<g id="clust2" class="cluster">
<title>cluster_OrdersModule_declarations</title>
<polygon fill="none" stroke="black" points="299,-78 299,-130 859,-130 859,-78 299,-78"/>
</g>
<g id="clust6" class="cluster">
<title>cluster_OrdersModule_imports</title>
<polygon fill="none" stroke="black" points="16,-78 16,-130 291,-130 291,-78 16,-78"/>
</g>
<!-- PageAddOrdersComponent -->
<g id="node1" class="node">
<title>PageAddOrdersComponent</title>
<polygon fill="#ffffb3" stroke="black" points="851.24,-122 680.76,-122 680.76,-86 851.24,-86 851.24,-122"/>
<text text-anchor="middle" x="766" y="-99.8" font-family="Times,serif" font-size="14.00">PageAddOrdersComponent</text>
</g>
<!-- OrdersModule -->
<g id="node4" class="node">
<title>OrdersModule</title>
<polygon fill="#8dd3c7" stroke="black" points="439.64,-187 436.64,-191 415.64,-191 412.64,-187 342.36,-187 342.36,-151 439.64,-151 439.64,-187"/>
<text text-anchor="middle" x="391" y="-164.8" font-family="Times,serif" font-size="14.00">OrdersModule</text>
</g>
<!-- PageAddOrdersComponent&#45;&gt;OrdersModule -->
<g id="edge1" class="edge">
<title>PageAddOrdersComponent&#45;&gt;OrdersModule</title>
<path fill="none" stroke="black" d="M766,-122.28C766,-143.32 766,-175 766,-175 766,-175 449.64,-175 449.64,-175"/>
<polygon fill="black" stroke="black" points="449.64,-171.5 439.64,-175 449.64,-178.5 449.64,-171.5"/>
</g>
<!-- PageEditOrdersComponent -->
<g id="node2" class="node">
<title>PageEditOrdersComponent</title>
<polygon fill="#ffffb3" stroke="black" points="662.97,-122 493.03,-122 493.03,-86 662.97,-86 662.97,-122"/>
<text text-anchor="middle" x="578" y="-99.8" font-family="Times,serif" font-size="14.00">PageEditOrdersComponent</text>
</g>
<!-- PageEditOrdersComponent&#45;&gt;OrdersModule -->
<g id="edge2" class="edge">
<title>PageEditOrdersComponent&#45;&gt;OrdersModule</title>
<path fill="none" stroke="black" d="M578,-122.02C578,-139.37 578,-163 578,-163 578,-163 449.64,-163 449.64,-163"/>
<polygon fill="black" stroke="black" points="449.64,-159.5 439.64,-163 449.64,-166.5 449.64,-159.5"/>
</g>
<!-- PageListOrdersComponent -->
<g id="node3" class="node">
<title>PageListOrdersComponent</title>
<polygon fill="#ffffb3" stroke="black" points="475.41,-122 306.59,-122 306.59,-86 475.41,-86 475.41,-122"/>
<text text-anchor="middle" x="391" y="-99.8" font-family="Times,serif" font-size="14.00">PageListOrdersComponent</text>
</g>
<!-- PageListOrdersComponent&#45;&gt;OrdersModule -->
<g id="edge3" class="edge">
<title>PageListOrdersComponent&#45;&gt;OrdersModule</title>
<path fill="none" stroke="black" d="M391,-122.11C391,-122.11 391,-140.99 391,-140.99"/>
<polygon fill="black" stroke="black" points="387.5,-140.99 391,-150.99 394.5,-140.99 387.5,-140.99"/>
</g>
<!-- OrdersRoutingModule -->
<g id="node5" class="node">
<title>OrdersRoutingModule</title>
<polygon fill="#8dd3c7" stroke="black" points="283.25,-122 280.25,-126 259.25,-126 256.25,-122 140.75,-122 140.75,-86 283.25,-86 283.25,-122"/>
<text text-anchor="middle" x="212" y="-99.8" font-family="Times,serif" font-size="14.00">OrdersRoutingModule</text>
</g>
<!-- OrdersRoutingModule&#45;&gt;OrdersModule -->
<g id="edge4" class="edge">
<title>OrdersRoutingModule&#45;&gt;OrdersModule</title>
<path fill="none" stroke="black" d="M212,-122.02C212,-139.37 212,-163 212,-163 212,-163 332.09,-163 332.09,-163"/>
<polygon fill="black" stroke="black" points="332.09,-166.5 342.09,-163 332.09,-159.5 332.09,-166.5"/>
</g>
<!-- SharedModule -->
<g id="node6" class="node">
<title>SharedModule</title>
<polygon fill="#8dd3c7" stroke="black" points="122.42,-122 119.42,-126 98.42,-126 95.42,-122 23.58,-122 23.58,-86 122.42,-86 122.42,-122"/>
<text text-anchor="middle" x="73" y="-99.8" font-family="Times,serif" font-size="14.00">SharedModule</text>
</g>
<!-- SharedModule&#45;&gt;OrdersModule -->
<g id="edge5" class="edge">
<title>SharedModule&#45;&gt;OrdersModule</title>
<path fill="none" stroke="black" d="M73,-122.28C73,-143.32 73,-175 73,-175 73,-175 332.36,-175 332.36,-175"/>
<polygon fill="black" stroke="black" points="332.36,-178.5 342.36,-175 332.36,-171.5 332.36,-178.5"/>
</g>
</g>
</svg>
