<?xml version="1.0" encoding="UTF-8" standalone="no"?>
<!DOCTYPE svg PUBLIC "-//W3C//DTD SVG 1.1//EN"
 "http://www.w3.org/Graphics/SVG/1.1/DTD/svg11.dtd">
<!-- Generated by graphviz version 2.47.0 (20210316.0004)
 -->
<!-- Title: dependencies Pages: 1 -->
<svg width="1154pt" height="211pt"
 viewBox="0.00 0.00 1154.00 211.00" xmlns="http://www.w3.org/2000/svg" xmlns:xlink="http://www.w3.org/1999/xlink">
<g id="graph0" class="graph" transform="scale(1 1) rotate(0) translate(4 207)">
<title>dependencies</title>
<polygon fill="white" stroke="transparent" points="-4,4 -4,-207 1150,-207 1150,4 -4,4"/>
<text text-anchor="start" x="552.01" y="-42.4" font-family="sans-serif" font-weight="bold" font-size="14.00">Legend</text>
<polygon fill="#ffffb3" stroke="transparent" points="339,-10 339,-30 359,-30 359,-10 339,-10"/>
<text text-anchor="start" x="362.63" y="-15.4" font-family="sans-serif" font-size="14.00"> &#160;Declarations</text>
<polygon fill="#8dd3c7" stroke="transparent" points="452,-10 452,-30 472,-30 472,-10 452,-10"/>
<text text-anchor="start" x="475.73" y="-15.4" font-family="sans-serif" font-size="14.00"> &#160;Module</text>
<polygon fill="#80b1d3" stroke="transparent" points="538,-10 538,-30 558,-30 558,-10 538,-10"/>
<text text-anchor="start" x="561.78" y="-15.4" font-family="sans-serif" font-size="14.00"> &#160;Bootstrap</text>
<polygon fill="#fdb462" stroke="transparent" points="635,-10 635,-30 655,-30 655,-10 635,-10"/>
<text text-anchor="start" x="658.67" y="-15.4" font-family="sans-serif" font-size="14.00"> &#160;Providers</text>
<polygon fill="#fb8072" stroke="transparent" points="731,-10 731,-30 751,-30 751,-10 731,-10"/>
<text text-anchor="start" x="754.73" y="-15.4" font-family="sans-serif" font-size="14.00"> &#160;Exports</text>
<g id="clust1" class="cluster">
<title>cluster_OrdersModule</title>
<polygon fill="none" stroke="black" stroke-dasharray="1,5" points="8,-70 8,-195 1138,-195 1138,-70 8,-70"/>
</g>
<g id="clust7" class="cluster">
<title>cluster_OrdersModule_imports</title>
<polygon fill="none" stroke="black" points="747,-78 747,-130 1130,-130 1130,-78 747,-78"/>
</g>
<g id="clust2" class="cluster">
<title>cluster_OrdersModule_declarations</title>
<polygon fill="none" stroke="black" points="16,-78 16,-130 739,-130 739,-78 16,-78"/>
</g>
<!-- FormOrderComponent -->
<g id="node1" class="node">
<title>FormOrderComponent</title>
<polygon fill="#ffffb3" stroke="black" points="731.31,-122 586.69,-122 586.69,-86 731.31,-86 731.31,-122"/>
<text text-anchor="middle" x="659" y="-99.8" font-family="Times,serif" font-size="14.00">FormOrderComponent</text>
</g>
<!-- OrdersModule -->
<g id="node5" class="node">
<title>OrdersModule</title>
<polygon fill="#8dd3c7" stroke="black" points="707.64,-187 704.64,-191 683.64,-191 680.64,-187 610.36,-187 610.36,-151 707.64,-151 707.64,-187"/>
<text text-anchor="middle" x="659" y="-164.8" font-family="Times,serif" font-size="14.00">OrdersModule</text>
</g>
<!-- FormOrderComponent&#45;&gt;OrdersModule -->
<g id="edge1" class="edge">
<title>FormOrderComponent&#45;&gt;OrdersModule</title>
<path fill="none" stroke="black" d="M659,-122.11C659,-122.11 659,-140.99 659,-140.99"/>
<polygon fill="black" stroke="black" points="655.5,-140.99 659,-150.99 662.5,-140.99 655.5,-140.99"/>
</g>
<!-- PageAddOrdersComponent -->
<g id="node2" class="node">
<title>PageAddOrdersComponent</title>
<polygon fill="#ffffb3" stroke="black" points="568.24,-122 397.76,-122 397.76,-86 568.24,-86 568.24,-122"/>
<text text-anchor="middle" x="483" y="-99.8" font-family="Times,serif" font-size="14.00">PageAddOrdersComponent</text>
</g>
<!-- PageAddOrdersComponent&#45;&gt;OrdersModule -->
<g id="edge2" class="edge">
<title>PageAddOrdersComponent&#45;&gt;OrdersModule</title>
<path fill="none" stroke="black" d="M483,-122.03C483,-138.4 483,-160 483,-160 483,-160 599.97,-160 599.97,-160"/>
<polygon fill="black" stroke="black" points="599.97,-163.5 609.97,-160 599.97,-156.5 599.97,-163.5"/>
</g>
<!-- PageEditOrdersComponent -->
<g id="node3" class="node">
<title>PageEditOrdersComponent</title>
<polygon fill="#ffffb3" stroke="black" points="379.97,-122 210.03,-122 210.03,-86 379.97,-86 379.97,-122"/>
<text text-anchor="middle" x="295" y="-99.8" font-family="Times,serif" font-size="14.00">PageEditOrdersComponent</text>
</g>
<!-- PageEditOrdersComponent&#45;&gt;OrdersModule -->
<g id="edge3" class="edge">
<title>PageEditOrdersComponent&#45;&gt;OrdersModule</title>
<path fill="none" stroke="black" d="M295,-122.11C295,-141.34 295,-169 295,-169 295,-169 600.29,-169 600.29,-169"/>
<polygon fill="black" stroke="black" points="600.29,-172.5 610.29,-169 600.29,-165.5 600.29,-172.5"/>
</g>
<!-- PageListOrdersComponent -->
<g id="node4" class="node">
<title>PageListOrdersComponent</title>
<polygon fill="#ffffb3" stroke="black" points="192.41,-122 23.59,-122 23.59,-86 192.41,-86 192.41,-122"/>
<text text-anchor="middle" x="108" y="-99.8" font-family="Times,serif" font-size="14.00">PageListOrdersComponent</text>
</g>
<!-- PageListOrdersComponent&#45;&gt;OrdersModule -->
<g id="edge4" class="edge">
<title>PageListOrdersComponent&#45;&gt;OrdersModule</title>
<path fill="none" stroke="black" d="M108,-122.29C108,-144.21 108,-178 108,-178 108,-178 600.1,-178 600.1,-178"/>
<polygon fill="black" stroke="black" points="600.1,-181.5 610.1,-178 600.1,-174.5 600.1,-181.5"/>
</g>
<!-- IconsModule -->
<g id="node6" class="node">
<title>IconsModule</title>
<polygon fill="#8dd3c7" stroke="black" points="1121.87,-122 1118.87,-126 1097.87,-126 1094.87,-122 1032.13,-122 1032.13,-86 1121.87,-86 1121.87,-122"/>
<text text-anchor="middle" x="1077" y="-99.8" font-family="Times,serif" font-size="14.00">IconsModule</text>
</g>
<!-- IconsModule&#45;&gt;OrdersModule -->
<g id="edge5" class="edge">
<title>IconsModule&#45;&gt;OrdersModule</title>
<path fill="none" stroke="black" d="M1077,-122.29C1077,-144.21 1077,-178 1077,-178 1077,-178 717.77,-178 717.77,-178"/>
<polygon fill="black" stroke="black" points="717.77,-174.5 707.77,-178 717.77,-181.5 717.77,-174.5"/>
</g>
<!-- OrdersRoutingModule -->
<g id="node7" class="node">
<title>OrdersRoutingModule</title>
<polygon fill="#8dd3c7" stroke="black" points="1014.25,-122 1011.25,-126 990.25,-126 987.25,-122 871.75,-122 871.75,-86 1014.25,-86 1014.25,-122"/>
<text text-anchor="middle" x="943" y="-99.8" font-family="Times,serif" font-size="14.00">OrdersRoutingModule</text>
</g>
<!-- OrdersRoutingModule&#45;&gt;OrdersModule -->
<g id="edge6" class="edge">
<title>OrdersRoutingModule&#45;&gt;OrdersModule</title>
<path fill="none" stroke="black" d="M943,-122.11C943,-141.34 943,-169 943,-169 943,-169 717.82,-169 717.82,-169"/>
<polygon fill="black" stroke="black" points="717.82,-165.5 707.82,-169 717.82,-172.5 717.82,-165.5"/>
</g>
<!-- SharedModule -->
<g id="node8" class="node">
<title>SharedModule</title>
<polygon fill="#8dd3c7" stroke="black" points="853.42,-122 850.42,-126 829.42,-126 826.42,-122 754.58,-122 754.58,-86 853.42,-86 853.42,-122"/>
<text text-anchor="middle" x="804" y="-99.8" font-family="Times,serif" font-size="14.00">SharedModule</text>
</g>
<!-- SharedModule&#45;&gt;OrdersModule -->
<g id="edge7" class="edge">
<title>SharedModule&#45;&gt;OrdersModule</title>
<path fill="none" stroke="black" d="M804,-122.03C804,-138.4 804,-160 804,-160 804,-160 717.69,-160 717.69,-160"/>
<polygon fill="black" stroke="black" points="717.69,-156.5 707.69,-160 717.69,-163.5 717.69,-156.5"/>
</g>
</g>
</svg>
