<?xml version="1.0" encoding="UTF-8" standalone="no"?>
<!DOCTYPE svg PUBLIC "-//W3C//DTD SVG 1.1//EN"
 "http://www.w3.org/Graphics/SVG/1.1/DTD/svg11.dtd">
<!-- Generated by graphviz version 2.47.0 (20210316.0004)
 -->
<!-- Title: dependencies Pages: 1 -->
<svg width="766pt" height="211pt"
 viewBox="0.00 0.00 766.00 211.00" xmlns="http://www.w3.org/2000/svg" xmlns:xlink="http://www.w3.org/1999/xlink">
<g id="graph0" class="graph" transform="scale(1 1) rotate(0) translate(4 207)">
<title>dependencies</title>
<polygon fill="white" stroke="transparent" points="-4,4 -4,-207 762,-207 762,4 -4,4"/>
<text text-anchor="start" x="358.01" y="-42.4" font-family="sans-serif" font-weight="bold" font-size="14.00">Legend</text>
<polygon fill="#ffffb3" stroke="transparent" points="145,-10 145,-30 165,-30 165,-10 145,-10"/>
<text text-anchor="start" x="168.63" y="-15.4" font-family="sans-serif" font-size="14.00"> &#160;Declarations</text>
<polygon fill="#8dd3c7" stroke="transparent" points="258,-10 258,-30 278,-30 278,-10 258,-10"/>
<text text-anchor="start" x="281.73" y="-15.4" font-family="sans-serif" font-size="14.00"> &#160;Module</text>
<polygon fill="#80b1d3" stroke="transparent" points="344,-10 344,-30 364,-30 364,-10 344,-10"/>
<text text-anchor="start" x="367.78" y="-15.4" font-family="sans-serif" font-size="14.00"> &#160;Bootstrap</text>
<polygon fill="#fdb462" stroke="transparent" points="441,-10 441,-30 461,-30 461,-10 441,-10"/>
<text text-anchor="start" x="464.67" y="-15.4" font-family="sans-serif" font-size="14.00"> &#160;Providers</text>
<polygon fill="#fb8072" stroke="transparent" points="537,-10 537,-30 557,-30 557,-10 537,-10"/>
<text text-anchor="start" x="560.73" y="-15.4" font-family="sans-serif" font-size="14.00"> &#160;Exports</text>
<g id="clust1" class="cluster">
<title>cluster_OrdersModule</title>
<polygon fill="none" stroke="black" stroke-dasharray="1,5" points="8,-70 8,-195 750,-195 750,-70 8,-70"/>
</g>
<g id="clust2" class="cluster">
<title>cluster_OrdersModule_declarations</title>
<polygon fill="none" stroke="black" points="182,-78 182,-130 742,-130 742,-78 182,-78"/>
</g>
<g id="clust6" class="cluster">
<title>cluster_OrdersModule_imports</title>
<polygon fill="none" stroke="black" points="16,-78 16,-130 174,-130 174,-78 16,-78"/>
</g>
<!-- PageAddOrdersComponent -->
<g id="node1" class="node">
<title>PageAddOrdersComponent</title>
<polygon fill="#ffffb3" stroke="black" points="734.24,-122 563.76,-122 563.76,-86 734.24,-86 734.24,-122"/>
<text text-anchor="middle" x="649" y="-99.8" font-family="Times,serif" font-size="14.00">PageAddOrdersComponent</text>
</g>
<!-- OrdersModule -->
<g id="node4" class="node">
<title>OrdersModule</title>
<polygon fill="#8dd3c7" stroke="black" points="415.64,-187 412.64,-191 391.64,-191 388.64,-187 318.36,-187 318.36,-151 415.64,-151 415.64,-187"/>
<text text-anchor="middle" x="367" y="-164.8" font-family="Times,serif" font-size="14.00">OrdersModule</text>
</g>
<!-- PageAddOrdersComponent&#45;&gt;OrdersModule -->
<g id="edge1" class="edge">
<title>PageAddOrdersComponent&#45;&gt;OrdersModule</title>
<path fill="none" stroke="black" d="M649,-122.11C649,-141.34 649,-169 649,-169 649,-169 425.8,-169 425.8,-169"/>
<polygon fill="black" stroke="black" points="425.8,-165.5 415.8,-169 425.8,-172.5 425.8,-165.5"/>
</g>
<!-- PageEditOrdersComponent -->
<g id="node2" class="node">
<title>PageEditOrdersComponent</title>
<polygon fill="#ffffb3" stroke="black" points="545.97,-122 376.03,-122 376.03,-86 545.97,-86 545.97,-122"/>
<text text-anchor="middle" x="461" y="-99.8" font-family="Times,serif" font-size="14.00">PageEditOrdersComponent</text>
</g>
<!-- PageEditOrdersComponent&#45;&gt;OrdersModule -->
<g id="edge2" class="edge">
<title>PageEditOrdersComponent&#45;&gt;OrdersModule</title>
<path fill="none" stroke="black" d="M395.92,-122.11C395.92,-122.11 395.92,-140.99 395.92,-140.99"/>
<polygon fill="black" stroke="black" points="392.42,-140.99 395.92,-150.99 399.42,-140.99 392.42,-140.99"/>
</g>
<!-- PageListOrdersComponent -->
<g id="node3" class="node">
<title>PageListOrdersComponent</title>
<polygon fill="#ffffb3" stroke="black" points="358.41,-122 189.59,-122 189.59,-86 358.41,-86 358.41,-122"/>
<text text-anchor="middle" x="274" y="-99.8" font-family="Times,serif" font-size="14.00">PageListOrdersComponent</text>
</g>
<!-- PageListOrdersComponent&#45;&gt;OrdersModule -->
<g id="edge3" class="edge">
<title>PageListOrdersComponent&#45;&gt;OrdersModule</title>
<path fill="none" stroke="black" d="M338.19,-122.11C338.19,-122.11 338.19,-140.99 338.19,-140.99"/>
<polygon fill="black" stroke="black" points="334.69,-140.99 338.19,-150.99 341.69,-140.99 334.69,-140.99"/>
</g>
<!-- OrdersRoutingModule -->
<g id="node5" class="node">
<title>OrdersRoutingModule</title>
<polygon fill="#8dd3c7" stroke="black" points="166.25,-122 163.25,-126 142.25,-126 139.25,-122 23.75,-122 23.75,-86 166.25,-86 166.25,-122"/>
<text text-anchor="middle" x="95" y="-99.8" font-family="Times,serif" font-size="14.00">OrdersRoutingModule</text>
</g>
<!-- OrdersRoutingModule&#45;&gt;OrdersModule -->
<g id="edge4" class="edge">
<title>OrdersRoutingModule&#45;&gt;OrdersModule</title>
<path fill="none" stroke="black" d="M95,-122.11C95,-141.34 95,-169 95,-169 95,-169 308.06,-169 308.06,-169"/>
<polygon fill="black" stroke="black" points="308.06,-172.5 318.06,-169 308.06,-165.5 308.06,-172.5"/>
</g>
</g>
</svg>
