<?xml version="1.0" encoding="UTF-8" standalone="no"?>
<!DOCTYPE svg PUBLIC "-//W3C//DTD SVG 1.1//EN"
 "http://www.w3.org/Graphics/SVG/1.1/DTD/svg11.dtd">
<!-- Generated by graphviz version 2.47.0 (20210316.0004)
 -->
<!-- Title: dependencies Pages: 1 -->
<svg width="774pt" height="211pt"
 viewBox="0.00 0.00 774.00 211.00" xmlns="http://www.w3.org/2000/svg" xmlns:xlink="http://www.w3.org/1999/xlink">
<g id="graph0" class="graph" transform="scale(1 1) rotate(0) translate(4 207)">
<title>dependencies</title>
<polygon fill="white" stroke="transparent" points="-4,4 -4,-207 770,-207 770,4 -4,4"/>
<text text-anchor="start" x="362.01" y="-42.4" font-family="sans-serif" font-weight="bold" font-size="14.00">Legend</text>
<polygon fill="#ffffb3" stroke="transparent" points="149,-10 149,-30 169,-30 169,-10 149,-10"/>
<text text-anchor="start" x="172.63" y="-15.4" font-family="sans-serif" font-size="14.00"> &#160;Declarations</text>
<polygon fill="#8dd3c7" stroke="transparent" points="262,-10 262,-30 282,-30 282,-10 262,-10"/>
<text text-anchor="start" x="285.73" y="-15.4" font-family="sans-serif" font-size="14.00"> &#160;Module</text>
<polygon fill="#80b1d3" stroke="transparent" points="348,-10 348,-30 368,-30 368,-10 348,-10"/>
<text text-anchor="start" x="371.78" y="-15.4" font-family="sans-serif" font-size="14.00"> &#160;Bootstrap</text>
<polygon fill="#fdb462" stroke="transparent" points="445,-10 445,-30 465,-30 465,-10 445,-10"/>
<text text-anchor="start" x="468.67" y="-15.4" font-family="sans-serif" font-size="14.00"> &#160;Providers</text>
<polygon fill="#fb8072" stroke="transparent" points="541,-10 541,-30 561,-30 561,-10 541,-10"/>
<text text-anchor="start" x="564.73" y="-15.4" font-family="sans-serif" font-size="14.00"> &#160;Exports</text>
<g id="clust1" class="cluster">
<title>cluster_ClientsModule</title>
<polygon fill="none" stroke="black" stroke-dasharray="1,5" points="8,-70 8,-195 758,-195 758,-70 8,-70"/>
</g>
<g id="clust6" class="cluster">
<title>cluster_ClientsModule_imports</title>
<polygon fill="none" stroke="black" points="590,-78 590,-130 750,-130 750,-78 590,-78"/>
</g>
<g id="clust2" class="cluster">
<title>cluster_ClientsModule_declarations</title>
<polygon fill="none" stroke="black" points="16,-78 16,-130 582,-130 582,-78 16,-78"/>
</g>
<!-- PageAddClientsComponent -->
<g id="node1" class="node">
<title>PageAddClientsComponent</title>
<polygon fill="#ffffb3" stroke="black" points="574.32,-122 401.68,-122 401.68,-86 574.32,-86 574.32,-122"/>
<text text-anchor="middle" x="488" y="-99.8" font-family="Times,serif" font-size="14.00">PageAddClientsComponent</text>
</g>
<!-- ClientsModule -->
<g id="node4" class="node">
<title>ClientsModule</title>
<polygon fill="#8dd3c7" stroke="black" points="442.72,-187 439.72,-191 418.72,-191 415.72,-187 343.28,-187 343.28,-151 442.72,-151 442.72,-187"/>
<text text-anchor="middle" x="393" y="-164.8" font-family="Times,serif" font-size="14.00">ClientsModule</text>
</g>
<!-- PageAddClientsComponent&#45;&gt;ClientsModule -->
<g id="edge1" class="edge">
<title>PageAddClientsComponent&#45;&gt;ClientsModule</title>
<path fill="none" stroke="black" d="M422.22,-122.11C422.22,-122.11 422.22,-140.99 422.22,-140.99"/>
<polygon fill="black" stroke="black" points="418.72,-140.99 422.22,-150.99 425.72,-140.99 418.72,-140.99"/>
</g>
<!-- PageEditClientsComponent -->
<g id="node2" class="node">
<title>PageEditClientsComponent</title>
<polygon fill="#ffffb3" stroke="black" points="383.55,-122 212.45,-122 212.45,-86 383.55,-86 383.55,-122"/>
<text text-anchor="middle" x="298" y="-99.8" font-family="Times,serif" font-size="14.00">PageEditClientsComponent</text>
</g>
<!-- PageEditClientsComponent&#45;&gt;ClientsModule -->
<g id="edge2" class="edge">
<title>PageEditClientsComponent&#45;&gt;ClientsModule</title>
<path fill="none" stroke="black" d="M363.58,-122.11C363.58,-122.11 363.58,-140.99 363.58,-140.99"/>
<polygon fill="black" stroke="black" points="360.08,-140.99 363.58,-150.99 367.08,-140.99 360.08,-140.99"/>
</g>
<!-- PageListClientsComponent -->
<g id="node3" class="node">
<title>PageListClientsComponent</title>
<polygon fill="#ffffb3" stroke="black" points="193.99,-122 24.01,-122 24.01,-86 193.99,-86 193.99,-122"/>
<text text-anchor="middle" x="109" y="-99.8" font-family="Times,serif" font-size="14.00">PageListClientsComponent</text>
</g>
<!-- PageListClientsComponent&#45;&gt;ClientsModule -->
<g id="edge3" class="edge">
<title>PageListClientsComponent&#45;&gt;ClientsModule</title>
<path fill="none" stroke="black" d="M109,-122.11C109,-141.34 109,-169 109,-169 109,-169 333.21,-169 333.21,-169"/>
<polygon fill="black" stroke="black" points="333.21,-172.5 343.21,-169 333.21,-165.5 333.21,-172.5"/>
</g>
<!-- ClientsRoutingModule -->
<g id="node5" class="node">
<title>ClientsRoutingModule</title>
<polygon fill="#8dd3c7" stroke="black" points="742.34,-122 739.34,-126 718.34,-126 715.34,-122 597.66,-122 597.66,-86 742.34,-86 742.34,-122"/>
<text text-anchor="middle" x="670" y="-99.8" font-family="Times,serif" font-size="14.00">ClientsRoutingModule</text>
</g>
<!-- ClientsRoutingModule&#45;&gt;ClientsModule -->
<g id="edge4" class="edge">
<title>ClientsRoutingModule&#45;&gt;ClientsModule</title>
<path fill="none" stroke="black" d="M670,-122.11C670,-141.34 670,-169 670,-169 670,-169 452.84,-169 452.84,-169"/>
<polygon fill="black" stroke="black" points="452.84,-165.5 442.84,-169 452.84,-172.5 452.84,-165.5"/>
</g>
</g>
</svg>
