<?xml version="1.0" encoding="UTF-8" standalone="no"?>
<!DOCTYPE svg PUBLIC "-//W3C//DTD SVG 1.1//EN"
 "http://www.w3.org/Graphics/SVG/1.1/DTD/svg11.dtd">
<!-- Generated by graphviz version 2.47.0 (20210316.0004)
 -->
<!-- Title: dependencies Pages: 1 -->
<svg width="890pt" height="211pt"
 viewBox="0.00 0.00 890.00 211.00" xmlns="http://www.w3.org/2000/svg" xmlns:xlink="http://www.w3.org/1999/xlink">
<g id="graph0" class="graph" transform="scale(1 1) rotate(0) translate(4 207)">
<title>dependencies</title>
<polygon fill="white" stroke="transparent" points="-4,4 -4,-207 886,-207 886,4 -4,4"/>
<text text-anchor="start" x="420.01" y="-42.4" font-family="sans-serif" font-weight="bold" font-size="14.00">Legend</text>
<polygon fill="#ffffb3" stroke="transparent" points="207,-10 207,-30 227,-30 227,-10 207,-10"/>
<text text-anchor="start" x="230.63" y="-15.4" font-family="sans-serif" font-size="14.00"> &#160;Declarations</text>
<polygon fill="#8dd3c7" stroke="transparent" points="320,-10 320,-30 340,-30 340,-10 320,-10"/>
<text text-anchor="start" x="343.73" y="-15.4" font-family="sans-serif" font-size="14.00"> &#160;Module</text>
<polygon fill="#80b1d3" stroke="transparent" points="406,-10 406,-30 426,-30 426,-10 406,-10"/>
<text text-anchor="start" x="429.78" y="-15.4" font-family="sans-serif" font-size="14.00"> &#160;Bootstrap</text>
<polygon fill="#fdb462" stroke="transparent" points="503,-10 503,-30 523,-30 523,-10 503,-10"/>
<text text-anchor="start" x="526.67" y="-15.4" font-family="sans-serif" font-size="14.00"> &#160;Providers</text>
<polygon fill="#fb8072" stroke="transparent" points="599,-10 599,-30 619,-30 619,-10 599,-10"/>
<text text-anchor="start" x="622.73" y="-15.4" font-family="sans-serif" font-size="14.00"> &#160;Exports</text>
<g id="clust1" class="cluster">
<title>cluster_ClientsModule</title>
<polygon fill="none" stroke="black" stroke-dasharray="1,5" points="8,-70 8,-195 874,-195 874,-70 8,-70"/>
</g>
<g id="clust6" class="cluster">
<title>cluster_ClientsModule_imports</title>
<polygon fill="none" stroke="black" points="590,-78 590,-130 866,-130 866,-78 590,-78"/>
</g>
<g id="clust2" class="cluster">
<title>cluster_ClientsModule_declarations</title>
<polygon fill="none" stroke="black" points="16,-78 16,-130 582,-130 582,-78 16,-78"/>
</g>
<!-- PageAddClientsComponent -->
<g id="node1" class="node">
<title>PageAddClientsComponent</title>
<polygon fill="#ffffb3" stroke="black" points="574.32,-122 401.68,-122 401.68,-86 574.32,-86 574.32,-122"/>
<text text-anchor="middle" x="488" y="-99.8" font-family="Times,serif" font-size="14.00">PageAddClientsComponent</text>
</g>
<!-- ClientsModule -->
<g id="node4" class="node">
<title>ClientsModule</title>
<polygon fill="#8dd3c7" stroke="black" points="537.72,-187 534.72,-191 513.72,-191 510.72,-187 438.28,-187 438.28,-151 537.72,-151 537.72,-187"/>
<text text-anchor="middle" x="488" y="-164.8" font-family="Times,serif" font-size="14.00">ClientsModule</text>
</g>
<!-- PageAddClientsComponent&#45;&gt;ClientsModule -->
<g id="edge1" class="edge">
<title>PageAddClientsComponent&#45;&gt;ClientsModule</title>
<path fill="none" stroke="black" d="M488,-122.11C488,-122.11 488,-140.99 488,-140.99"/>
<polygon fill="black" stroke="black" points="484.5,-140.99 488,-150.99 491.5,-140.99 484.5,-140.99"/>
</g>
<!-- PageEditClientsComponent -->
<g id="node2" class="node">
<title>PageEditClientsComponent</title>
<polygon fill="#ffffb3" stroke="black" points="383.55,-122 212.45,-122 212.45,-86 383.55,-86 383.55,-122"/>
<text text-anchor="middle" x="298" y="-99.8" font-family="Times,serif" font-size="14.00">PageEditClientsComponent</text>
</g>
<!-- PageEditClientsComponent&#45;&gt;ClientsModule -->
<g id="edge2" class="edge">
<title>PageEditClientsComponent&#45;&gt;ClientsModule</title>
<path fill="none" stroke="black" d="M298,-122.02C298,-139.37 298,-163 298,-163 298,-163 428.08,-163 428.08,-163"/>
<polygon fill="black" stroke="black" points="428.08,-166.5 438.08,-163 428.08,-159.5 428.08,-166.5"/>
</g>
<!-- PageListClientsComponent -->
<g id="node3" class="node">
<title>PageListClientsComponent</title>
<polygon fill="#ffffb3" stroke="black" points="193.99,-122 24.01,-122 24.01,-86 193.99,-86 193.99,-122"/>
<text text-anchor="middle" x="109" y="-99.8" font-family="Times,serif" font-size="14.00">PageListClientsComponent</text>
</g>
<!-- PageListClientsComponent&#45;&gt;ClientsModule -->
<g id="edge3" class="edge">
<title>PageListClientsComponent&#45;&gt;ClientsModule</title>
<path fill="none" stroke="black" d="M109,-122.28C109,-143.32 109,-175 109,-175 109,-175 428.06,-175 428.06,-175"/>
<polygon fill="black" stroke="black" points="428.06,-178.5 438.06,-175 428.06,-171.5 428.06,-178.5"/>
</g>
<!-- ClientsRoutingModule -->
<g id="node5" class="node">
<title>ClientsRoutingModule</title>
<polygon fill="#8dd3c7" stroke="black" points="858.34,-122 855.34,-126 834.34,-126 831.34,-122 713.66,-122 713.66,-86 858.34,-86 858.34,-122"/>
<text text-anchor="middle" x="786" y="-99.8" font-family="Times,serif" font-size="14.00">ClientsRoutingModule</text>
</g>
<!-- ClientsRoutingModule&#45;&gt;ClientsModule -->
<g id="edge4" class="edge">
<title>ClientsRoutingModule&#45;&gt;ClientsModule</title>
<path fill="none" stroke="black" d="M786,-122.28C786,-143.32 786,-175 786,-175 786,-175 547.88,-175 547.88,-175"/>
<polygon fill="black" stroke="black" points="547.88,-171.5 537.88,-175 547.88,-178.5 547.88,-171.5"/>
</g>
<!-- SharedModule -->
<g id="node6" class="node">
<title>SharedModule</title>
<polygon fill="#8dd3c7" stroke="black" points="696.42,-122 693.42,-126 672.42,-126 669.42,-122 597.58,-122 597.58,-86 696.42,-86 696.42,-122"/>
<text text-anchor="middle" x="647" y="-99.8" font-family="Times,serif" font-size="14.00">SharedModule</text>
</g>
<!-- SharedModule&#45;&gt;ClientsModule -->
<g id="edge5" class="edge">
<title>SharedModule&#45;&gt;ClientsModule</title>
<path fill="none" stroke="black" d="M647,-122.02C647,-139.37 647,-163 647,-163 647,-163 547.87,-163 547.87,-163"/>
<polygon fill="black" stroke="black" points="547.87,-159.5 537.87,-163 547.87,-166.5 547.87,-159.5"/>
</g>
</g>
</svg>
