<?xml version="1.0" encoding="UTF-8" standalone="no"?>
<!DOCTYPE svg PUBLIC "-//W3C//DTD SVG 1.1//EN"
 "http://www.w3.org/Graphics/SVG/1.1/DTD/svg11.dtd">
<!-- Generated by graphviz version 2.47.0 (20210316.0004)
 -->
<!-- Title: dependencies Pages: 1 -->
<svg width="5976pt" height="366pt"
 viewBox="0.00 0.00 5976.00 366.00" xmlns="http://www.w3.org/2000/svg" xmlns:xlink="http://www.w3.org/1999/xlink">
<g id="graph0" class="graph" transform="scale(1 1) rotate(0) translate(4 362)">
<title>dependencies</title>
<polygon fill="white" stroke="transparent" points="-4,4 -4,-362 5972,-362 5972,4 -4,4"/>
<text text-anchor="start" x="2963.01" y="-42.4" font-family="sans-serif" font-weight="bold" font-size="14.00">Legend</text>
<polygon fill="#ffffb3" stroke="transparent" points="2750,-10 2750,-30 2770,-30 2770,-10 2750,-10"/>
<text text-anchor="start" x="2773.63" y="-15.4" font-family="sans-serif" font-size="14.00"> &#160;Declarations</text>
<polygon fill="#8dd3c7" stroke="transparent" points="2863,-10 2863,-30 2883,-30 2883,-10 2863,-10"/>
<text text-anchor="start" x="2886.73" y="-15.4" font-family="sans-serif" font-size="14.00"> &#160;Module</text>
<polygon fill="#80b1d3" stroke="transparent" points="2949,-10 2949,-30 2969,-30 2969,-10 2949,-10"/>
<text text-anchor="start" x="2972.78" y="-15.4" font-family="sans-serif" font-size="14.00"> &#160;Bootstrap</text>
<polygon fill="#fdb462" stroke="transparent" points="3046,-10 3046,-30 3066,-30 3066,-10 3046,-10"/>
<text text-anchor="start" x="3069.67" y="-15.4" font-family="sans-serif" font-size="14.00"> &#160;Providers</text>
<polygon fill="#fb8072" stroke="transparent" points="3142,-10 3142,-30 3162,-30 3162,-10 3142,-10"/>
<text text-anchor="start" x="3165.73" y="-15.4" font-family="sans-serif" font-size="14.00"> &#160;Exports</text>
<g id="clust29" class="cluster">
<title>cluster_CoreModule</title>
<polygon fill="none" stroke="black" stroke-dasharray="1,5" points="306,-70 306,-282 1189,-282 1189,-70 306,-70"/>
</g>
<g id="clust30" class="cluster">
<title>cluster_CoreModule_declarations</title>
<polygon fill="none" stroke="black" points="473,-78 473,-130 869,-130 869,-78 473,-78"/>
</g>
<g id="clust35" class="cluster">
<title>cluster_CoreModule_exports</title>
<polygon fill="none" stroke="black" points="314,-222 314,-274 1181,-274 1181,-222 314,-222"/>
</g>
<g id="clust64" class="cluster">
<title>cluster_OrdersModule</title>
<polygon fill="none" stroke="black" stroke-dasharray="1,5" points="1197,-146 1197,-274 2057,-274 2057,-146 1197,-146"/>
</g>
<g id="clust65" class="cluster">
<title>cluster_OrdersModule_declarations</title>
<polygon fill="none" stroke="black" points="1488,-154 1488,-206 2049,-206 2049,-154 1488,-154"/>
</g>
<g id="clust69" class="cluster">
<title>cluster_OrdersModule_imports</title>
<polygon fill="none" stroke="black" points="1205,-154 1205,-206 1480,-206 1480,-154 1205,-154"/>
</g>
<g id="clust92" class="cluster">
<title>cluster_SharedModule</title>
<polygon fill="none" stroke="black" stroke-dasharray="1,5" points="1197,-70 1197,-138 2093,-138 2093,-70 1197,-70"/>
</g>
<g id="clust93" class="cluster">
<title>cluster_SharedModule_declarations</title>
<polygon fill="none" stroke="black" points="1583,-78 1583,-130 1943,-130 1943,-78 1583,-78"/>
</g>
<g id="clust98" class="cluster">
<title>cluster_SharedModule_exports</title>
<polygon fill="none" stroke="black" points="1205,-78 1205,-130 1575,-130 1575,-78 1205,-78"/>
</g>
<g id="clust97" class="cluster">
<title>cluster_SharedModule_imports</title>
<polygon fill="none" stroke="black" points="1951,-78 1951,-130 2085,-130 2085,-78 1951,-78"/>
</g>
<g id="clust38" class="cluster">
<title>cluster_IconsModule</title>
<polygon fill="none" stroke="black" stroke-dasharray="1,5" points="3693,-70 3693,-282 4334,-282 4334,-70 3693,-70"/>
</g>
<g id="clust39" class="cluster">
<title>cluster_IconsModule_declarations</title>
<polygon fill="none" stroke="black" points="3708,-78 3708,-130 4318,-130 4318,-78 3708,-78"/>
</g>
<g id="clust45" class="cluster">
<title>cluster_IconsModule_exports</title>
<polygon fill="none" stroke="black" points="3701,-222 3701,-274 4326,-274 4326,-222 3701,-222"/>
</g>
<g id="clust1" class="cluster">
<title>cluster_AppModule</title>
<polygon fill="none" stroke="black" stroke-dasharray="1,5" points="8,-146 8,-350 298,-350 298,-146 8,-146"/>
</g>
<g id="clust6" class="cluster">
<title>cluster_AppModule_bootstrap</title>
<polygon fill="none" stroke="black" points="156,-290 156,-342 280,-342 280,-290 156,-290"/>
</g>
<g id="clust4" class="cluster">
<title>cluster_AppModule_imports</title>
<polygon fill="none" stroke="black" points="146,-154 146,-206 290,-206 290,-154 146,-154"/>
</g>
<g id="clust2" class="cluster">
<title>cluster_AppModule_declarations</title>
<polygon fill="none" stroke="black" points="16,-154 16,-206 138,-206 138,-154 16,-154"/>
</g>
<g id="clust14" class="cluster">
<title>cluster_ClientsModule</title>
<polygon fill="none" stroke="black" stroke-dasharray="1,5" points="2065,-146 2065,-274 2815,-274 2815,-146 2065,-146"/>
</g>
<g id="clust19" class="cluster">
<title>cluster_ClientsModule_imports</title>
<polygon fill="none" stroke="black" points="2647,-154 2647,-206 2807,-206 2807,-154 2647,-154"/>
</g>
<g id="clust15" class="cluster">
<title>cluster_ClientsModule_declarations</title>
<polygon fill="none" stroke="black" points="2073,-154 2073,-206 2639,-206 2639,-154 2073,-154"/>
</g>
<g id="clust79" class="cluster">
<title>cluster_PageNotFoundModule</title>
<polygon fill="none" stroke="black" stroke-dasharray="1,5" points="5288,-70 5288,-206 5698,-206 5698,-70 5288,-70"/>
</g>
<g id="clust82" class="cluster">
<title>cluster_PageNotFoundModule_imports</title>
<polygon fill="none" stroke="black" points="5486,-78 5486,-130 5690,-130 5690,-78 5486,-78"/>
</g>
<g id="clust80" class="cluster">
<title>cluster_PageNotFoundModule_declarations</title>
<polygon fill="none" stroke="black" points="5296,-78 5296,-130 5478,-130 5478,-78 5296,-78"/>
</g>
<g id="clust101" class="cluster">
<title>cluster_TemplatesModule</title>
<polygon fill="none" stroke="black" stroke-dasharray="1,5" points="2823,-146 2823,-214 3685,-214 3685,-146 2823,-146"/>
</g>
<g id="clust102" class="cluster">
<title>cluster_TemplatesModule_declarations</title>
<polygon fill="none" stroke="black" points="3261,-154 3261,-206 3677,-206 3677,-154 3261,-154"/>
</g>
<g id="clust106" class="cluster">
<title>cluster_TemplatesModule_exports</title>
<polygon fill="none" stroke="black" points="2831,-154 2831,-206 3253,-206 3253,-154 2831,-154"/>
</g>
<g id="clust109" class="cluster">
<title>cluster_UiModule</title>
<polygon fill="none" stroke="black" stroke-dasharray="1,5" points="5706,-70 5706,-282 5960,-282 5960,-70 5706,-70"/>
</g>
<g id="clust110" class="cluster">
<title>cluster_UiModule_declarations</title>
<polygon fill="none" stroke="black" points="5717,-78 5717,-130 5949,-130 5949,-78 5717,-78"/>
</g>
<g id="clust114" class="cluster">
<title>cluster_UiModule_exports</title>
<polygon fill="none" stroke="black" points="5714,-222 5714,-274 5952,-274 5952,-222 5714,-222"/>
</g>
<g id="clust48" class="cluster">
<title>cluster_LoginModule</title>
<polygon fill="none" stroke="black" stroke-dasharray="1,5" points="4342,-70 4342,-206 5280,-206 5280,-70 4342,-70"/>
</g>
<g id="clust54" class="cluster">
<title>cluster_LoginModule_imports</title>
<polygon fill="none" stroke="black" points="5118,-78 5118,-130 5272,-130 5272,-78 5118,-78"/>
</g>
<g id="clust49" class="cluster">
<title>cluster_LoginModule_declarations</title>
<polygon fill="none" stroke="black" points="4350,-78 4350,-130 5110,-130 5110,-78 4350,-78"/>
</g>
<!-- AppComponent -->
<g id="node1" class="node">
<title>AppComponent</title>
<polygon fill="#ffffb3" stroke="black" points="129.94,-198 24.06,-198 24.06,-162 129.94,-162 129.94,-198"/>
<text text-anchor="middle" x="77" y="-175.8" font-family="Times,serif" font-size="14.00">AppComponent</text>
</g>
<!-- AppModule -->
<g id="node2" class="node">
<title>AppModule</title>
<polygon fill="#8dd3c7" stroke="black" points="259.66,-266 256.66,-270 235.66,-270 232.66,-266 176.34,-266 176.34,-230 259.66,-230 259.66,-266"/>
<text text-anchor="middle" x="218" y="-243.8" font-family="Times,serif" font-size="14.00">AppModule</text>
</g>
<!-- AppComponent&#45;&gt;AppModule -->
<g id="edge1" class="edge">
<title>AppComponent&#45;&gt;AppModule</title>
<path fill="none" stroke="black" d="M77,-198.22C77,-218.37 77,-248 77,-248 77,-248 166.08,-248 166.08,-248"/>
<polygon fill="black" stroke="black" points="166.08,-251.5 176.08,-248 166.08,-244.5 166.08,-251.5"/>
</g>
<!-- AppComponent  -->
<g id="node5" class="node">
<title>AppComponent </title>
<polygon fill="#80b1d3" stroke="black" points="272.44,-334 163.56,-334 163.56,-298 272.44,-298 272.44,-334"/>
<text text-anchor="middle" x="218" y="-311.8" font-family="Times,serif" font-size="14.00">AppComponent </text>
</g>
<!-- AppModule&#45;&gt;AppComponent  -->
<g id="edge4" class="edge">
<title>AppModule&#45;&gt;AppComponent </title>
<path fill="none" stroke="black" stroke-dasharray="1,5" d="M218,-266.22C218,-266.22 218,-287.73 218,-287.73"/>
<polygon fill="black" stroke="black" points="214.5,-287.73 218,-297.73 221.5,-287.73 214.5,-287.73"/>
</g>
<!-- AppRoutingModule -->
<g id="node3" class="node">
<title>AppRoutingModule</title>
<polygon fill="#8dd3c7" stroke="black" points="282.27,-198 279.27,-202 258.27,-202 255.27,-198 153.73,-198 153.73,-162 282.27,-162 282.27,-198"/>
<text text-anchor="middle" x="218" y="-175.8" font-family="Times,serif" font-size="14.00">AppRoutingModule</text>
</g>
<!-- AppRoutingModule&#45;&gt;AppModule -->
<g id="edge2" class="edge">
<title>AppRoutingModule&#45;&gt;AppModule</title>
<path fill="none" stroke="black" d="M218,-198.22C218,-198.22 218,-219.73 218,-219.73"/>
<polygon fill="black" stroke="black" points="214.5,-219.73 218,-229.73 221.5,-219.73 214.5,-219.73"/>
</g>
<!-- CoreModule -->
<g id="node4" class="node">
<title>CoreModule</title>
<polygon fill="#8dd3c7" stroke="black" points="723.26,-198 720.26,-202 699.26,-202 696.26,-198 636.74,-198 636.74,-162 723.26,-162 723.26,-198"/>
<text text-anchor="middle" x="680" y="-175.8" font-family="Times,serif" font-size="14.00">CoreModule</text>
</g>
<!-- CoreModule&#45;&gt;AppModule -->
<g id="edge3" class="edge">
<title>CoreModule&#45;&gt;AppModule</title>
<path fill="none" stroke="black" d="M636.65,-177C537.38,-177 302.07,-177 302.07,-177 302.07,-177 302.07,-248 302.07,-248 302.07,-248 270.04,-248 270.04,-248"/>
<polygon fill="black" stroke="black" points="270.04,-244.5 260.04,-248 270.04,-251.5 270.04,-244.5"/>
</g>
<!-- FooterComponent  -->
<g id="node15" class="node">
<title>FooterComponent </title>
<polygon fill="#fb8072" stroke="black" points="811.88,-266 690.12,-266 690.12,-230 811.88,-230 811.88,-266"/>
<text text-anchor="middle" x="751" y="-243.8" font-family="Times,serif" font-size="14.00">FooterComponent </text>
</g>
<!-- CoreModule&#45;&gt;FooterComponent  -->
<g id="edge13" class="edge">
<title>CoreModule&#45;&gt;FooterComponent </title>
<path fill="none" stroke="black" stroke-dasharray="5,2" d="M706.85,-198.22C706.85,-198.22 706.85,-219.73 706.85,-219.73"/>
<polygon fill="black" stroke="black" points="703.35,-219.73 706.85,-229.73 710.35,-219.73 703.35,-219.73"/>
</g>
<!-- HeaderComponent  -->
<g id="node16" class="node">
<title>HeaderComponent </title>
<polygon fill="#fb8072" stroke="black" points="672.74,-266 547.26,-266 547.26,-230 672.74,-230 672.74,-266"/>
<text text-anchor="middle" x="610" y="-243.8" font-family="Times,serif" font-size="14.00">HeaderComponent </text>
</g>
<!-- CoreModule&#45;&gt;HeaderComponent  -->
<g id="edge14" class="edge">
<title>CoreModule&#45;&gt;HeaderComponent </title>
<path fill="none" stroke="black" stroke-dasharray="5,2" d="M654.62,-198.22C654.62,-198.22 654.62,-219.73 654.62,-219.73"/>
<polygon fill="black" stroke="black" points="651.12,-219.73 654.62,-229.73 658.12,-219.73 651.12,-219.73"/>
</g>
<!-- IconsModule  -->
<g id="node17" class="node">
<title>IconsModule </title>
<polygon fill="#fb8072" stroke="black" points="529.87,-266 436.13,-266 436.13,-230 529.87,-230 529.87,-266"/>
<text text-anchor="middle" x="483" y="-243.8" font-family="Times,serif" font-size="14.00">IconsModule </text>
</g>
<!-- CoreModule&#45;&gt;IconsModule  -->
<g id="edge15" class="edge">
<title>CoreModule&#45;&gt;IconsModule </title>
<path fill="none" stroke="black" stroke-dasharray="5,2" d="M636.39,-191C584.68,-191 505.41,-191 505.41,-191 505.41,-191 505.41,-219.96 505.41,-219.96"/>
<polygon fill="black" stroke="black" points="501.91,-219.96 505.41,-229.96 508.91,-219.96 501.91,-219.96"/>
</g>
<!-- LoginModule  -->
<g id="node18" class="node">
<title>LoginModule </title>
<polygon fill="#fb8072" stroke="black" points="418.49,-266 321.51,-266 321.51,-230 418.49,-230 418.49,-266"/>
<text text-anchor="middle" x="370" y="-243.8" font-family="Times,serif" font-size="14.00">LoginModule </text>
</g>
<!-- CoreModule&#45;&gt;LoginModule  -->
<g id="edge16" class="edge">
<title>CoreModule&#45;&gt;LoginModule </title>
<path fill="none" stroke="black" stroke-dasharray="5,2" d="M636.57,-184C551.25,-184 370,-184 370,-184 370,-184 370,-219.83 370,-219.83"/>
<polygon fill="black" stroke="black" points="366.5,-219.83 370,-229.83 373.5,-219.83 366.5,-219.83"/>
</g>
<!-- NavComponent  -->
<g id="node19" class="node">
<title>NavComponent </title>
<polygon fill="#fb8072" stroke="black" points="1033.15,-266 924.85,-266 924.85,-230 1033.15,-230 1033.15,-266"/>
<text text-anchor="middle" x="979" y="-243.8" font-family="Times,serif" font-size="14.00">NavComponent </text>
</g>
<!-- CoreModule&#45;&gt;NavComponent  -->
<g id="edge17" class="edge">
<title>CoreModule&#45;&gt;NavComponent </title>
<path fill="none" stroke="black" stroke-dasharray="5,2" d="M723.48,-184C806.4,-184 979,-184 979,-184 979,-184 979,-219.83 979,-219.83"/>
<polygon fill="black" stroke="black" points="975.5,-219.83 979,-229.83 982.5,-219.83 975.5,-219.83"/>
</g>
<!-- TemplatesModule  -->
<g id="node20" class="node">
<title>TemplatesModule </title>
<polygon fill="#fb8072" stroke="black" points="1172.86,-266 1051.14,-266 1051.14,-230 1172.86,-230 1172.86,-266"/>
<text text-anchor="middle" x="1112" y="-243.8" font-family="Times,serif" font-size="14.00">TemplatesModule </text>
</g>
<!-- CoreModule&#45;&gt;TemplatesModule  -->
<g id="edge18" class="edge">
<title>CoreModule&#45;&gt;TemplatesModule </title>
<path fill="none" stroke="black" stroke-dasharray="5,2" d="M723.4,-177C832.95,-177 1112,-177 1112,-177 1112,-177 1112,-219.72 1112,-219.72"/>
<polygon fill="black" stroke="black" points="1108.5,-219.72 1112,-229.72 1115.5,-219.72 1108.5,-219.72"/>
</g>
<!-- UiModule  -->
<g id="node21" class="node">
<title>UiModule </title>
<polygon fill="#fb8072" stroke="black" points="906.55,-266 829.45,-266 829.45,-230 906.55,-230 906.55,-266"/>
<text text-anchor="middle" x="868" y="-243.8" font-family="Times,serif" font-size="14.00">UiModule </text>
</g>
<!-- CoreModule&#45;&gt;UiModule  -->
<g id="edge19" class="edge">
<title>CoreModule&#45;&gt;UiModule </title>
<path fill="none" stroke="black" stroke-dasharray="5,2" d="M723.46,-191C772.46,-191 845.4,-191 845.4,-191 845.4,-191 845.4,-219.96 845.4,-219.96"/>
<polygon fill="black" stroke="black" points="841.9,-219.96 845.4,-229.96 848.9,-219.96 841.9,-219.96"/>
</g>
<!-- PageAddClientsComponent -->
<g id="node6" class="node">
<title>PageAddClientsComponent</title>
<polygon fill="#ffffb3" stroke="black" points="2443.32,-198 2270.68,-198 2270.68,-162 2443.32,-162 2443.32,-198"/>
<text text-anchor="middle" x="2357" y="-175.8" font-family="Times,serif" font-size="14.00">PageAddClientsComponent</text>
</g>
<!-- ClientsModule -->
<g id="node9" class="node">
<title>ClientsModule</title>
<polygon fill="#8dd3c7" stroke="black" points="2406.72,-266 2403.72,-270 2382.72,-270 2379.72,-266 2307.28,-266 2307.28,-230 2406.72,-230 2406.72,-266"/>
<text text-anchor="middle" x="2357" y="-243.8" font-family="Times,serif" font-size="14.00">ClientsModule</text>
</g>
<!-- PageAddClientsComponent&#45;&gt;ClientsModule -->
<g id="edge5" class="edge">
<title>PageAddClientsComponent&#45;&gt;ClientsModule</title>
<path fill="none" stroke="black" d="M2373.54,-198.22C2373.54,-198.22 2373.54,-219.73 2373.54,-219.73"/>
<polygon fill="black" stroke="black" points="2370.04,-219.73 2373.54,-229.73 2377.04,-219.73 2370.04,-219.73"/>
</g>
<!-- PageEditClientsComponent -->
<g id="node7" class="node">
<title>PageEditClientsComponent</title>
<polygon fill="#ffffb3" stroke="black" points="2252.55,-198 2081.45,-198 2081.45,-162 2252.55,-162 2252.55,-198"/>
<text text-anchor="middle" x="2167" y="-175.8" font-family="Times,serif" font-size="14.00">PageEditClientsComponent</text>
</g>
<!-- PageEditClientsComponent&#45;&gt;ClientsModule -->
<g id="edge6" class="edge">
<title>PageEditClientsComponent&#45;&gt;ClientsModule</title>
<path fill="none" stroke="black" d="M2167,-198.02C2167,-215.37 2167,-239 2167,-239 2167,-239 2297.08,-239 2297.08,-239"/>
<polygon fill="black" stroke="black" points="2297.08,-242.5 2307.08,-239 2297.08,-235.5 2297.08,-242.5"/>
</g>
<!-- PageListClientsComponent -->
<g id="node8" class="node">
<title>PageListClientsComponent</title>
<polygon fill="#ffffb3" stroke="black" points="2630.99,-198 2461.01,-198 2461.01,-162 2630.99,-162 2630.99,-198"/>
<text text-anchor="middle" x="2546" y="-175.8" font-family="Times,serif" font-size="14.00">PageListClientsComponent</text>
</g>
<!-- PageListClientsComponent&#45;&gt;ClientsModule -->
<g id="edge7" class="edge">
<title>PageListClientsComponent&#45;&gt;ClientsModule</title>
<path fill="none" stroke="black" d="M2546,-198.27C2546,-216.56 2546,-242 2546,-242 2546,-242 2416.66,-242 2416.66,-242"/>
<polygon fill="black" stroke="black" points="2416.66,-238.5 2406.66,-242 2416.66,-245.5 2416.66,-238.5"/>
</g>
<!-- ClientsRoutingModule -->
<g id="node10" class="node">
<title>ClientsRoutingModule</title>
<polygon fill="#8dd3c7" stroke="black" points="2799.34,-198 2796.34,-202 2775.34,-202 2772.34,-198 2654.66,-198 2654.66,-162 2799.34,-162 2799.34,-198"/>
<text text-anchor="middle" x="2727" y="-175.8" font-family="Times,serif" font-size="14.00">ClientsRoutingModule</text>
</g>
<!-- ClientsRoutingModule&#45;&gt;ClientsModule -->
<g id="edge8" class="edge">
<title>ClientsRoutingModule&#45;&gt;ClientsModule</title>
<path fill="none" stroke="black" d="M2727,-198.29C2727,-220.21 2727,-254 2727,-254 2727,-254 2416.9,-254 2416.9,-254"/>
<polygon fill="black" stroke="black" points="2416.9,-250.5 2406.9,-254 2416.9,-257.5 2416.9,-250.5"/>
</g>
<!-- SharedModule -->
<g id="node11" class="node">
<title>SharedModule</title>
<polygon fill="#8dd3c7" stroke="black" points="1472.42,-198 1469.42,-202 1448.42,-202 1445.42,-198 1373.58,-198 1373.58,-162 1472.42,-162 1472.42,-198"/>
<text text-anchor="middle" x="1423" y="-175.8" font-family="Times,serif" font-size="14.00">SharedModule</text>
</g>
<!-- SharedModule&#45;&gt;ClientsModule -->
<g id="edge9" class="edge">
<title>SharedModule&#45;&gt;ClientsModule</title>
<path fill="none" stroke="black" d="M1398.39,-198.19C1398.39,-206.28 1398.39,-214 1398.39,-214 1398.39,-214 2340.46,-214 2340.46,-214 2340.46,-214 2340.46,-219.81 2340.46,-219.81"/>
<polygon fill="black" stroke="black" points="2336.96,-219.81 2340.46,-229.81 2343.96,-219.81 2336.96,-219.81"/>
</g>
<!-- SharedModule&#45;&gt;TemplatesModule  -->
<g id="edge46" class="edge">
<title>SharedModule&#45;&gt;TemplatesModule </title>
<path fill="none" stroke="black" stroke-dasharray="5,2" d="M1423,-198.02C1423,-215.37 1423,-239 1423,-239 1423,-239 1182.7,-239 1182.7,-239"/>
<polygon fill="black" stroke="black" points="1182.7,-235.5 1172.7,-239 1182.7,-242.5 1182.7,-235.5"/>
</g>
<!-- OrdersModule -->
<g id="node40" class="node">
<title>OrdersModule</title>
<polygon fill="#8dd3c7" stroke="black" points="1629.64,-266 1626.64,-270 1605.64,-270 1602.64,-266 1532.36,-266 1532.36,-230 1629.64,-230 1629.64,-266"/>
<text text-anchor="middle" x="1581" y="-243.8" font-family="Times,serif" font-size="14.00">OrdersModule</text>
</g>
<!-- SharedModule&#45;&gt;OrdersModule -->
<g id="edge37" class="edge">
<title>SharedModule&#45;&gt;OrdersModule</title>
<path fill="none" stroke="black" d="M1447.61,-198.22C1447.61,-218.37 1447.61,-248 1447.61,-248 1447.61,-248 1522.09,-248 1522.09,-248"/>
<polygon fill="black" stroke="black" points="1522.09,-251.5 1532.09,-248 1522.09,-244.5 1522.09,-251.5"/>
</g>
<!-- BtnComponent  -->
<g id="node49" class="node">
<title>BtnComponent </title>
<polygon fill="#fb8072" stroke="black" points="1475.56,-122 1370.44,-122 1370.44,-86 1475.56,-86 1475.56,-122"/>
<text text-anchor="middle" x="1423" y="-99.8" font-family="Times,serif" font-size="14.00">BtnComponent </text>
</g>
<!-- SharedModule&#45;&gt;BtnComponent  -->
<g id="edge44" class="edge">
<title>SharedModule&#45;&gt;BtnComponent </title>
<path fill="none" stroke="black" stroke-dasharray="5,2" d="M1390.19,-161.99C1390.19,-161.99 1390.19,-132.15 1390.19,-132.15"/>
<polygon fill="black" stroke="black" points="1393.69,-132.15 1390.19,-122.15 1386.69,-132.15 1393.69,-132.15"/>
</g>
<!-- TableLiteComponent  -->
<g id="node50" class="node">
<title>TableLiteComponent </title>
<polygon fill="#fb8072" stroke="black" points="1352.75,-122 1213.25,-122 1213.25,-86 1352.75,-86 1352.75,-122"/>
<text text-anchor="middle" x="1283" y="-99.8" font-family="Times,serif" font-size="14.00">TableLiteComponent </text>
</g>
<!-- SharedModule&#45;&gt;TableLiteComponent  -->
<g id="edge45" class="edge">
<title>SharedModule&#45;&gt;TableLiteComponent </title>
<path fill="none" stroke="black" stroke-dasharray="5,2" d="M1373.66,-180C1367.29,-180 1362.92,-180 1362.92,-180 1362.92,-180 1362.92,-104 1362.92,-104 1362.92,-104 1361.91,-104 1361.91,-104"/>
<polygon fill="black" stroke="black" points="1362.8,-100.5 1352.8,-104 1362.8,-107.5 1362.8,-100.5"/>
</g>
<!-- TotalPipe  -->
<g id="node51" class="node">
<title>TotalPipe </title>
<polygon fill="#fb8072" stroke="black" points="1566.94,-122 1493.06,-122 1493.06,-86 1566.94,-86 1566.94,-122"/>
<text text-anchor="middle" x="1530" y="-99.8" font-family="Times,serif" font-size="14.00">TotalPipe </text>
</g>
<!-- SharedModule&#45;&gt;TotalPipe  -->
<g id="edge47" class="edge">
<title>SharedModule&#45;&gt;TotalPipe </title>
<path fill="none" stroke="black" stroke-dasharray="5,2" d="M1472.47,-180C1479.43,-180 1484.28,-180 1484.28,-180 1484.28,-180 1484.28,-104 1484.28,-104 1484.28,-104 1485.12,-104 1485.12,-104"/>
<polygon fill="black" stroke="black" points="1482.67,-107.5 1492.67,-104 1482.67,-100.5 1482.67,-107.5"/>
</g>
<!-- FooterComponent -->
<g id="node12" class="node">
<title>FooterComponent</title>
<polygon fill="#ffffb3" stroke="black" points="738.88,-122 621.12,-122 621.12,-86 738.88,-86 738.88,-122"/>
<text text-anchor="middle" x="680" y="-99.8" font-family="Times,serif" font-size="14.00">FooterComponent</text>
</g>
<!-- FooterComponent&#45;&gt;CoreModule -->
<g id="edge10" class="edge">
<title>FooterComponent&#45;&gt;CoreModule</title>
<path fill="none" stroke="black" d="M680,-122.01C680,-122.01 680,-151.85 680,-151.85"/>
<polygon fill="black" stroke="black" points="676.5,-151.85 680,-161.85 683.5,-151.85 676.5,-151.85"/>
</g>
<!-- HeaderComponent -->
<g id="node13" class="node">
<title>HeaderComponent</title>
<polygon fill="#ffffb3" stroke="black" points="602.74,-122 481.26,-122 481.26,-86 602.74,-86 602.74,-122"/>
<text text-anchor="middle" x="542" y="-99.8" font-family="Times,serif" font-size="14.00">HeaderComponent</text>
</g>
<!-- HeaderComponent&#45;&gt;CoreModule -->
<g id="edge11" class="edge">
<title>HeaderComponent&#45;&gt;CoreModule</title>
<path fill="none" stroke="black" d="M575.12,-122.03C575.12,-141.58 575.12,-170 575.12,-170 575.12,-170 626.74,-170 626.74,-170"/>
<polygon fill="black" stroke="black" points="626.74,-173.5 636.74,-170 626.74,-166.5 626.74,-173.5"/>
</g>
<!-- NavComponent -->
<g id="node14" class="node">
<title>NavComponent</title>
<polygon fill="#ffffb3" stroke="black" points="861.15,-122 756.85,-122 756.85,-86 861.15,-86 861.15,-122"/>
<text text-anchor="middle" x="809" y="-99.8" font-family="Times,serif" font-size="14.00">NavComponent</text>
</g>
<!-- NavComponent&#45;&gt;CoreModule -->
<g id="edge12" class="edge">
<title>NavComponent&#45;&gt;CoreModule</title>
<path fill="none" stroke="black" d="M784.18,-122.03C784.18,-141.58 784.18,-170 784.18,-170 784.18,-170 733.28,-170 733.28,-170"/>
<polygon fill="black" stroke="black" points="733.28,-166.5 723.28,-170 733.28,-173.5 733.28,-166.5"/>
</g>
<!-- IconCloseComponent -->
<g id="node22" class="node">
<title>IconCloseComponent</title>
<polygon fill="#ffffb3" stroke="black" points="4014.09,-122 3875.91,-122 3875.91,-86 4014.09,-86 4014.09,-122"/>
<text text-anchor="middle" x="3945" y="-99.8" font-family="Times,serif" font-size="14.00">IconCloseComponent</text>
</g>
<!-- IconsModule -->
<g id="node26" class="node">
<title>IconsModule</title>
<polygon fill="#8dd3c7" stroke="black" points="4059.87,-198 4056.87,-202 4035.87,-202 4032.87,-198 3970.13,-198 3970.13,-162 4059.87,-162 4059.87,-198"/>
<text text-anchor="middle" x="4015" y="-175.8" font-family="Times,serif" font-size="14.00">IconsModule</text>
</g>
<!-- IconCloseComponent&#45;&gt;IconsModule -->
<g id="edge20" class="edge">
<title>IconCloseComponent&#45;&gt;IconsModule</title>
<path fill="none" stroke="black" d="M3992.06,-122.01C3992.06,-122.01 3992.06,-151.85 3992.06,-151.85"/>
<polygon fill="black" stroke="black" points="3988.56,-151.85 3992.06,-161.85 3995.56,-151.85 3988.56,-151.85"/>
</g>
<!-- IconDeleteComponent -->
<g id="node23" class="node">
<title>IconDeleteComponent</title>
<polygon fill="#ffffb3" stroke="black" points="3858.24,-122 3715.76,-122 3715.76,-86 3858.24,-86 3858.24,-122"/>
<text text-anchor="middle" x="3787" y="-99.8" font-family="Times,serif" font-size="14.00">IconDeleteComponent</text>
</g>
<!-- IconDeleteComponent&#45;&gt;IconsModule -->
<g id="edge21" class="edge">
<title>IconDeleteComponent&#45;&gt;IconsModule</title>
<path fill="none" stroke="black" d="M3850.44,-122.03C3850.44,-142.77 3850.44,-174 3850.44,-174 3850.44,-174 3960.03,-174 3960.03,-174"/>
<polygon fill="black" stroke="black" points="3960.03,-177.5 3970.03,-174 3960.03,-170.5 3960.03,-177.5"/>
</g>
<!-- IconEditComponent -->
<g id="node24" class="node">
<title>IconEditComponent</title>
<polygon fill="#ffffb3" stroke="black" points="4309.54,-122 4180.46,-122 4180.46,-86 4309.54,-86 4309.54,-122"/>
<text text-anchor="middle" x="4245" y="-99.8" font-family="Times,serif" font-size="14.00">IconEditComponent</text>
</g>
<!-- IconEditComponent&#45;&gt;IconsModule -->
<g id="edge22" class="edge">
<title>IconEditComponent&#45;&gt;IconsModule</title>
<path fill="none" stroke="black" d="M4223.41,-122.03C4223.41,-141.58 4223.41,-170 4223.41,-170 4223.41,-170 4069.97,-170 4069.97,-170"/>
<polygon fill="black" stroke="black" points="4069.97,-166.5 4059.97,-170 4069.97,-173.5 4069.97,-166.5"/>
</g>
<!-- IconNavComponent -->
<g id="node25" class="node">
<title>IconNavComponent</title>
<polygon fill="#ffffb3" stroke="black" points="4161.53,-122 4032.47,-122 4032.47,-86 4161.53,-86 4161.53,-122"/>
<text text-anchor="middle" x="4097" y="-99.8" font-family="Times,serif" font-size="14.00">IconNavComponent</text>
</g>
<!-- IconNavComponent&#45;&gt;IconsModule -->
<g id="edge23" class="edge">
<title>IconNavComponent&#45;&gt;IconsModule</title>
<path fill="none" stroke="black" d="M4046.09,-122.01C4046.09,-122.01 4046.09,-151.85 4046.09,-151.85"/>
<polygon fill="black" stroke="black" points="4042.59,-151.85 4046.09,-161.85 4049.59,-151.85 4042.59,-151.85"/>
</g>
<!-- IconCloseComponent  -->
<g id="node27" class="node">
<title>IconCloseComponent </title>
<polygon fill="#fb8072" stroke="black" points="4317.59,-266 4176.41,-266 4176.41,-230 4317.59,-230 4317.59,-266"/>
<text text-anchor="middle" x="4247" y="-243.8" font-family="Times,serif" font-size="14.00">IconCloseComponent </text>
</g>
<!-- IconsModule&#45;&gt;IconCloseComponent  -->
<g id="edge24" class="edge">
<title>IconsModule&#45;&gt;IconCloseComponent </title>
<path fill="none" stroke="black" stroke-dasharray="5,2" d="M4059.98,-177C4132.35,-177 4266.59,-177 4266.59,-177 4266.59,-177 4266.59,-219.72 4266.59,-219.72"/>
<polygon fill="black" stroke="black" points="4263.09,-219.72 4266.59,-229.72 4270.09,-219.72 4263.09,-219.72"/>
</g>
<!-- IconDeleteComponent  -->
<g id="node28" class="node">
<title>IconDeleteComponent </title>
<polygon fill="#fb8072" stroke="black" points="4158.24,-266 4011.76,-266 4011.76,-230 4158.24,-230 4158.24,-266"/>
<text text-anchor="middle" x="4085" y="-243.8" font-family="Times,serif" font-size="14.00">IconDeleteComponent </text>
</g>
<!-- IconsModule&#45;&gt;IconDeleteComponent  -->
<g id="edge25" class="edge">
<title>IconsModule&#45;&gt;IconDeleteComponent </title>
<path fill="none" stroke="black" stroke-dasharray="5,2" d="M4035.91,-198.22C4035.91,-198.22 4035.91,-219.73 4035.91,-219.73"/>
<polygon fill="black" stroke="black" points="4032.41,-219.73 4035.91,-229.73 4039.41,-219.73 4032.41,-219.73"/>
</g>
<!-- IconEditComponent  -->
<g id="node29" class="node">
<title>IconEditComponent </title>
<polygon fill="#fb8072" stroke="black" points="3993.54,-266 3860.46,-266 3860.46,-230 3993.54,-230 3993.54,-266"/>
<text text-anchor="middle" x="3927" y="-243.8" font-family="Times,serif" font-size="14.00">IconEditComponent </text>
</g>
<!-- IconsModule&#45;&gt;IconEditComponent  -->
<g id="edge26" class="edge">
<title>IconsModule&#45;&gt;IconEditComponent </title>
<path fill="none" stroke="black" stroke-dasharray="5,2" d="M3981.79,-198.22C3981.79,-198.22 3981.79,-219.73 3981.79,-219.73"/>
<polygon fill="black" stroke="black" points="3978.29,-219.73 3981.79,-229.73 3985.29,-219.73 3978.29,-219.73"/>
</g>
<!-- IconNavComponent  -->
<g id="node30" class="node">
<title>IconNavComponent </title>
<polygon fill="#fb8072" stroke="black" points="3842.53,-266 3709.47,-266 3709.47,-230 3842.53,-230 3842.53,-266"/>
<text text-anchor="middle" x="3776" y="-243.8" font-family="Times,serif" font-size="14.00">IconNavComponent </text>
</g>
<!-- IconsModule&#45;&gt;IconNavComponent  -->
<g id="edge27" class="edge">
<title>IconsModule&#45;&gt;IconNavComponent </title>
<path fill="none" stroke="black" stroke-dasharray="5,2" d="M3970.07,-186C3901.62,-186 3779.07,-186 3779.07,-186 3779.07,-186 3779.07,-219.73 3779.07,-219.73"/>
<polygon fill="black" stroke="black" points="3775.57,-219.73 3779.07,-229.73 3782.57,-219.73 3775.57,-219.73"/>
</g>
<!-- PageForgotPasswordComponent -->
<g id="node31" class="node">
<title>PageForgotPasswordComponent</title>
<polygon fill="#ffffb3" stroke="black" points="4768.53,-122 4569.47,-122 4569.47,-86 4768.53,-86 4768.53,-122"/>
<text text-anchor="middle" x="4669" y="-99.8" font-family="Times,serif" font-size="14.00">PageForgotPasswordComponent</text>
</g>
<!-- LoginModule -->
<g id="node35" class="node">
<title>LoginModule</title>
<polygon fill="#8dd3c7" stroke="black" points="4908.49,-198 4905.49,-202 4884.49,-202 4881.49,-198 4815.51,-198 4815.51,-162 4908.49,-162 4908.49,-198"/>
<text text-anchor="middle" x="4862" y="-175.8" font-family="Times,serif" font-size="14.00">LoginModule</text>
</g>
<!-- PageForgotPasswordComponent&#45;&gt;LoginModule -->
<g id="edge28" class="edge">
<title>PageForgotPasswordComponent&#45;&gt;LoginModule</title>
<path fill="none" stroke="black" d="M4669,-122.15C4669,-145.76 4669,-184 4669,-184 4669,-184 4805.28,-184 4805.28,-184"/>
<polygon fill="black" stroke="black" points="4805.28,-187.5 4815.28,-184 4805.28,-180.5 4805.28,-187.5"/>
</g>
<!-- PageResetPasswordComponent -->
<g id="node32" class="node">
<title>PageResetPasswordComponent</title>
<polygon fill="#ffffb3" stroke="black" points="4551.8,-122 4358.2,-122 4358.2,-86 4551.8,-86 4551.8,-122"/>
<text text-anchor="middle" x="4455" y="-99.8" font-family="Times,serif" font-size="14.00">PageResetPasswordComponent</text>
</g>
<!-- PageResetPasswordComponent&#45;&gt;LoginModule -->
<g id="edge29" class="edge">
<title>PageResetPasswordComponent&#45;&gt;LoginModule</title>
<path fill="none" stroke="black" d="M4455,-122.03C4455,-147.51 4455,-191 4455,-191 4455,-191 4805.31,-191 4805.31,-191"/>
<polygon fill="black" stroke="black" points="4805.31,-194.5 4815.31,-191 4805.31,-187.5 4805.31,-194.5"/>
</g>
<!-- PageSignInComponent -->
<g id="node33" class="node">
<title>PageSignInComponent</title>
<polygon fill="#ffffb3" stroke="black" points="5101.88,-122 4956.12,-122 4956.12,-86 5101.88,-86 5101.88,-122"/>
<text text-anchor="middle" x="5029" y="-99.8" font-family="Times,serif" font-size="14.00">PageSignInComponent</text>
</g>
<!-- PageSignInComponent&#45;&gt;LoginModule -->
<g id="edge30" class="edge">
<title>PageSignInComponent&#45;&gt;LoginModule</title>
<path fill="none" stroke="black" d="M5029,-122.03C5029,-142.77 5029,-174 5029,-174 5029,-174 4918.52,-174 4918.52,-174"/>
<polygon fill="black" stroke="black" points="4918.52,-170.5 4908.52,-174 4918.52,-177.5 4918.52,-170.5"/>
</g>
<!-- PageSignUpComponent -->
<g id="node34" class="node">
<title>PageSignUpComponent</title>
<polygon fill="#ffffb3" stroke="black" points="4937.82,-122 4786.18,-122 4786.18,-86 4937.82,-86 4937.82,-122"/>
<text text-anchor="middle" x="4862" y="-99.8" font-family="Times,serif" font-size="14.00">PageSignUpComponent</text>
</g>
<!-- PageSignUpComponent&#45;&gt;LoginModule -->
<g id="edge31" class="edge">
<title>PageSignUpComponent&#45;&gt;LoginModule</title>
<path fill="none" stroke="black" d="M4862,-122.01C4862,-122.01 4862,-151.85 4862,-151.85"/>
<polygon fill="black" stroke="black" points="4858.5,-151.85 4862,-161.85 4865.5,-151.85 4858.5,-151.85"/>
</g>
<!-- LoginRoutingModule -->
<g id="node36" class="node">
<title>LoginRoutingModule</title>
<polygon fill="#8dd3c7" stroke="black" points="5264.11,-122 5261.11,-126 5240.11,-126 5237.11,-122 5125.89,-122 5125.89,-86 5264.11,-86 5264.11,-122"/>
<text text-anchor="middle" x="5195" y="-99.8" font-family="Times,serif" font-size="14.00">LoginRoutingModule</text>
</g>
<!-- LoginRoutingModule&#45;&gt;LoginModule -->
<g id="edge32" class="edge">
<title>LoginRoutingModule&#45;&gt;LoginModule</title>
<path fill="none" stroke="black" d="M5195,-122.2C5195,-146.36 5195,-186 5195,-186 5195,-186 4918.65,-186 4918.65,-186"/>
<polygon fill="black" stroke="black" points="4918.65,-182.5 4908.65,-186 4918.65,-189.5 4918.65,-182.5"/>
</g>
<!-- PageAddOrdersComponent -->
<g id="node37" class="node">
<title>PageAddOrdersComponent</title>
<polygon fill="#ffffb3" stroke="black" points="1854.24,-198 1683.76,-198 1683.76,-162 1854.24,-162 1854.24,-198"/>
<text text-anchor="middle" x="1769" y="-175.8" font-family="Times,serif" font-size="14.00">PageAddOrdersComponent</text>
</g>
<!-- PageAddOrdersComponent&#45;&gt;OrdersModule -->
<g id="edge33" class="edge">
<title>PageAddOrdersComponent&#45;&gt;OrdersModule</title>
<path fill="none" stroke="black" d="M1769,-198.22C1769,-218.37 1769,-248 1769,-248 1769,-248 1639.9,-248 1639.9,-248"/>
<polygon fill="black" stroke="black" points="1639.9,-244.5 1629.9,-248 1639.9,-251.5 1639.9,-244.5"/>
</g>
<!-- PageEditOrdersComponent -->
<g id="node38" class="node">
<title>PageEditOrdersComponent</title>
<polygon fill="#ffffb3" stroke="black" points="1665.97,-198 1496.03,-198 1496.03,-162 1665.97,-162 1665.97,-198"/>
<text text-anchor="middle" x="1581" y="-175.8" font-family="Times,serif" font-size="14.00">PageEditOrdersComponent</text>
</g>
<!-- PageEditOrdersComponent&#45;&gt;OrdersModule -->
<g id="edge34" class="edge">
<title>PageEditOrdersComponent&#45;&gt;OrdersModule</title>
<path fill="none" stroke="black" d="M1581,-198.22C1581,-198.22 1581,-219.73 1581,-219.73"/>
<polygon fill="black" stroke="black" points="1577.5,-219.73 1581,-229.73 1584.5,-219.73 1577.5,-219.73"/>
</g>
<!-- PageListOrdersComponent -->
<g id="node39" class="node">
<title>PageListOrdersComponent</title>
<polygon fill="#ffffb3" stroke="black" points="2041.41,-198 1872.59,-198 1872.59,-162 2041.41,-162 2041.41,-198"/>
<text text-anchor="middle" x="1957" y="-175.8" font-family="Times,serif" font-size="14.00">PageListOrdersComponent</text>
</g>
<!-- PageListOrdersComponent&#45;&gt;OrdersModule -->
<g id="edge35" class="edge">
<title>PageListOrdersComponent&#45;&gt;OrdersModule</title>
<path fill="none" stroke="black" d="M1957,-198.25C1957,-221.02 1957,-257 1957,-257 1957,-257 1639.77,-257 1639.77,-257"/>
<polygon fill="black" stroke="black" points="1639.77,-253.5 1629.77,-257 1639.77,-260.5 1639.77,-253.5"/>
</g>
<!-- OrdersRoutingModule -->
<g id="node41" class="node">
<title>OrdersRoutingModule</title>
<polygon fill="#8dd3c7" stroke="black" points="1355.25,-198 1352.25,-202 1331.25,-202 1328.25,-198 1212.75,-198 1212.75,-162 1355.25,-162 1355.25,-198"/>
<text text-anchor="middle" x="1284" y="-175.8" font-family="Times,serif" font-size="14.00">OrdersRoutingModule</text>
</g>
<!-- OrdersRoutingModule&#45;&gt;OrdersModule -->
<g id="edge36" class="edge">
<title>OrdersRoutingModule&#45;&gt;OrdersModule</title>
<path fill="none" stroke="black" d="M1284,-198.25C1284,-221.02 1284,-257 1284,-257 1284,-257 1522.29,-257 1522.29,-257"/>
<polygon fill="black" stroke="black" points="1522.29,-260.5 1532.29,-257 1522.29,-253.5 1522.29,-260.5"/>
</g>
<!-- PageNotFoundComponent -->
<g id="node42" class="node">
<title>PageNotFoundComponent</title>
<polygon fill="#ffffb3" stroke="black" points="5469.82,-122 5304.18,-122 5304.18,-86 5469.82,-86 5469.82,-122"/>
<text text-anchor="middle" x="5387" y="-99.8" font-family="Times,serif" font-size="14.00">PageNotFoundComponent</text>
</g>
<!-- PageNotFoundModule -->
<g id="node43" class="node">
<title>PageNotFoundModule</title>
<polygon fill="#8dd3c7" stroke="black" points="5558.54,-198 5555.54,-202 5534.54,-202 5531.54,-198 5415.46,-198 5415.46,-162 5558.54,-162 5558.54,-198"/>
<text text-anchor="middle" x="5487" y="-175.8" font-family="Times,serif" font-size="14.00">PageNotFoundModule</text>
</g>
<!-- PageNotFoundComponent&#45;&gt;PageNotFoundModule -->
<g id="edge38" class="edge">
<title>PageNotFoundComponent&#45;&gt;PageNotFoundModule</title>
<path fill="none" stroke="black" d="M5442.45,-122.01C5442.45,-122.01 5442.45,-151.85 5442.45,-151.85"/>
<polygon fill="black" stroke="black" points="5438.95,-151.85 5442.45,-161.85 5445.95,-151.85 5438.95,-151.85"/>
</g>
<!-- PageNotFoundRoutingModule -->
<g id="node44" class="node">
<title>PageNotFoundRoutingModule</title>
<polygon fill="#8dd3c7" stroke="black" points="5682.16,-122 5679.16,-126 5658.16,-126 5655.16,-122 5493.84,-122 5493.84,-86 5682.16,-86 5682.16,-122"/>
<text text-anchor="middle" x="5588" y="-99.8" font-family="Times,serif" font-size="14.00">PageNotFoundRoutingModule</text>
</g>
<!-- PageNotFoundRoutingModule&#45;&gt;PageNotFoundModule -->
<g id="edge39" class="edge">
<title>PageNotFoundRoutingModule&#45;&gt;PageNotFoundModule</title>
<path fill="none" stroke="black" d="M5526.22,-122.01C5526.22,-122.01 5526.22,-151.85 5526.22,-151.85"/>
<polygon fill="black" stroke="black" points="5522.72,-151.85 5526.22,-161.85 5529.72,-151.85 5522.72,-151.85"/>
</g>
<!-- BtnComponent -->
<g id="node45" class="node">
<title>BtnComponent</title>
<polygon fill="#ffffb3" stroke="black" points="1846.56,-122 1745.44,-122 1745.44,-86 1846.56,-86 1846.56,-122"/>
<text text-anchor="middle" x="1796" y="-99.8" font-family="Times,serif" font-size="14.00">BtnComponent</text>
</g>
<!-- BtnComponent&#45;&gt;SharedModule -->
<g id="edge40" class="edge">
<title>BtnComponent&#45;&gt;SharedModule</title>
<path fill="none" stroke="black" d="M1796,-122.19C1796,-130.28 1796,-138 1796,-138 1796,-138 1423,-138 1423,-138 1423,-138 1423,-151.94 1423,-151.94"/>
<polygon fill="black" stroke="black" points="1419.5,-151.94 1423,-161.94 1426.5,-151.94 1419.5,-151.94"/>
</g>
<!-- TableLiteComponent -->
<g id="node46" class="node">
<title>TableLiteComponent</title>
<polygon fill="#ffffb3" stroke="black" points="1726.75,-122 1591.25,-122 1591.25,-86 1726.75,-86 1726.75,-122"/>
<text text-anchor="middle" x="1659" y="-99.8" font-family="Times,serif" font-size="14.00">TableLiteComponent</text>
</g>
<!-- TableLiteComponent&#45;&gt;SharedModule -->
<g id="edge41" class="edge">
<title>TableLiteComponent&#45;&gt;SharedModule</title>
<path fill="none" stroke="black" d="M1628.55,-122.06C1628.55,-126.49 1628.55,-130 1628.55,-130 1628.55,-130 1406.6,-130 1406.6,-130 1406.6,-130 1406.6,-151.95 1406.6,-151.95"/>
<polygon fill="black" stroke="black" points="1403.1,-151.95 1406.6,-161.95 1410.1,-151.95 1403.1,-151.95"/>
</g>
<!-- TotalPipe -->
<g id="node47" class="node">
<title>TotalPipe</title>
<polygon fill="#ffffb3" stroke="black" points="1935.44,-122 1864.56,-122 1864.56,-86 1935.44,-86 1935.44,-122"/>
<text text-anchor="middle" x="1900" y="-99.8" font-family="Times,serif" font-size="14.00">TotalPipe</text>
</g>
<!-- TotalPipe&#45;&gt;SharedModule -->
<g id="edge42" class="edge">
<title>TotalPipe&#45;&gt;SharedModule</title>
<path fill="none" stroke="black" d="M1868.79,-122.06C1868.79,-133.44 1868.79,-146 1868.79,-146 1868.79,-146 1439.4,-146 1439.4,-146 1439.4,-146 1439.4,-151.81 1439.4,-151.81"/>
<polygon fill="black" stroke="black" points="1435.9,-151.81 1439.4,-161.81 1442.9,-151.81 1435.9,-151.81"/>
</g>
<!-- TemplatesModule -->
<g id="node48" class="node">
<title>TemplatesModule</title>
<polygon fill="#8dd3c7" stroke="black" points="2076.86,-122 2073.86,-126 2052.86,-126 2049.86,-122 1959.14,-122 1959.14,-86 2076.86,-86 2076.86,-122"/>
<text text-anchor="middle" x="2018" y="-99.8" font-family="Times,serif" font-size="14.00">TemplatesModule</text>
</g>
<!-- TemplatesModule&#45;&gt;SharedModule -->
<g id="edge43" class="edge">
<title>TemplatesModule&#45;&gt;SharedModule</title>
<path fill="none" stroke="black" d="M2000.14,-122.05C2000.14,-136.37 2000.14,-154 2000.14,-154 2000.14,-154 1455.81,-154 1455.81,-154 1455.81,-154 1455.81,-154.79 1455.81,-154.79"/>
<polygon fill="black" stroke="black" points="1452.31,-151.94 1455.81,-161.94 1459.31,-151.94 1452.31,-151.94"/>
</g>
<!-- TemplateContainerComponent  -->
<g id="node54" class="node">
<title>TemplateContainerComponent </title>
<polygon fill="#fb8072" stroke="black" points="3245.41,-198 3052.59,-198 3052.59,-162 3245.41,-162 3245.41,-198"/>
<text text-anchor="middle" x="3149" y="-175.8" font-family="Times,serif" font-size="14.00">TemplateContainerComponent </text>
</g>
<!-- TemplatesModule&#45;&gt;TemplateContainerComponent  -->
<g id="edge50" class="edge">
<title>TemplatesModule&#45;&gt;TemplateContainerComponent </title>
<path fill="none" stroke="black" stroke-dasharray="5,2" d="M2077.22,-108C2309.93,-108 3149,-108 3149,-108 3149,-108 3149,-151.83 3149,-151.83"/>
<polygon fill="black" stroke="black" points="3145.5,-151.83 3149,-161.83 3152.5,-151.83 3145.5,-151.83"/>
</g>
<!-- TemplateFullWidthComponent  -->
<g id="node55" class="node">
<title>TemplateFullWidthComponent </title>
<polygon fill="#fb8072" stroke="black" points="3034.76,-198 2839.24,-198 2839.24,-162 3034.76,-162 3034.76,-198"/>
<text text-anchor="middle" x="2937" y="-175.8" font-family="Times,serif" font-size="14.00">TemplateFullWidthComponent </text>
</g>
<!-- TemplatesModule&#45;&gt;TemplateFullWidthComponent  -->
<g id="edge51" class="edge">
<title>TemplatesModule&#45;&gt;TemplateFullWidthComponent </title>
<path fill="none" stroke="black" stroke-dasharray="5,2" d="M2076.89,-115C2279.72,-115 2937,-115 2937,-115 2937,-115 2937,-151.89 2937,-151.89"/>
<polygon fill="black" stroke="black" points="2933.5,-151.89 2937,-161.89 2940.5,-151.89 2933.5,-151.89"/>
</g>
<!-- TemplateContainerComponent -->
<g id="node52" class="node">
<title>TemplateContainerComponent</title>
<polygon fill="#ffffb3" stroke="black" points="3668.91,-198 3479.09,-198 3479.09,-162 3668.91,-162 3668.91,-198"/>
<text text-anchor="middle" x="3574" y="-175.8" font-family="Times,serif" font-size="14.00">TemplateContainerComponent</text>
</g>
<!-- TemplateContainerComponent&#45;&gt;TemplatesModule -->
<g id="edge48" class="edge">
<title>TemplateContainerComponent&#45;&gt;TemplatesModule</title>
<path fill="none" stroke="black" d="M3574,-161.76C3574,-136.52 3574,-94 3574,-94 3574,-94 2087.1,-94 2087.1,-94"/>
<polygon fill="black" stroke="black" points="2087.1,-90.5 2077.1,-94 2087.1,-97.5 2087.1,-90.5"/>
</g>
<!-- TemplateFullWidthComponent -->
<g id="node53" class="node">
<title>TemplateFullWidthComponent</title>
<polygon fill="#ffffb3" stroke="black" points="3460.76,-198 3269.24,-198 3269.24,-162 3460.76,-162 3460.76,-198"/>
<text text-anchor="middle" x="3365" y="-175.8" font-family="Times,serif" font-size="14.00">TemplateFullWidthComponent</text>
</g>
<!-- TemplateFullWidthComponent&#45;&gt;TemplatesModule -->
<g id="edge49" class="edge">
<title>TemplateFullWidthComponent&#45;&gt;TemplatesModule</title>
<path fill="none" stroke="black" d="M3365,-161.68C3365,-138.34 3365,-101 3365,-101 3365,-101 2087.18,-101 2087.18,-101"/>
<polygon fill="black" stroke="black" points="2087.18,-97.5 2077.18,-101 2087.18,-104.5 2087.18,-97.5"/>
</g>
<!-- Ui2Component -->
<g id="node56" class="node">
<title>Ui2Component</title>
<polygon fill="#ffffb3" stroke="black" points="5941.33,-122 5838.67,-122 5838.67,-86 5941.33,-86 5941.33,-122"/>
<text text-anchor="middle" x="5890" y="-99.8" font-family="Times,serif" font-size="14.00">Ui2Component</text>
</g>
<!-- UiModule -->
<g id="node58" class="node">
<title>UiModule</title>
<polygon fill="#8dd3c7" stroke="black" points="5809.55,-198 5806.55,-202 5785.55,-202 5782.55,-198 5736.45,-198 5736.45,-162 5809.55,-162 5809.55,-198"/>
<text text-anchor="middle" x="5773" y="-175.8" font-family="Times,serif" font-size="14.00">UiModule</text>
</g>
<!-- Ui2Component&#45;&gt;UiModule -->
<g id="edge52" class="edge">
<title>Ui2Component&#45;&gt;UiModule</title>
<path fill="none" stroke="black" d="M5872.95,-122.03C5872.95,-142.77 5872.95,-174 5872.95,-174 5872.95,-174 5819.65,-174 5819.65,-174"/>
<polygon fill="black" stroke="black" points="5819.65,-170.5 5809.65,-174 5819.65,-177.5 5819.65,-170.5"/>
</g>
<!-- UiComponent -->
<g id="node57" class="node">
<title>UiComponent</title>
<polygon fill="#ffffb3" stroke="black" points="5820.83,-122 5725.17,-122 5725.17,-86 5820.83,-86 5820.83,-122"/>
<text text-anchor="middle" x="5773" y="-99.8" font-family="Times,serif" font-size="14.00">UiComponent</text>
</g>
<!-- UiComponent&#45;&gt;UiModule -->
<g id="edge53" class="edge">
<title>UiComponent&#45;&gt;UiModule</title>
<path fill="none" stroke="black" d="M5773,-122.01C5773,-122.01 5773,-151.85 5773,-151.85"/>
<polygon fill="black" stroke="black" points="5769.5,-151.85 5773,-161.85 5776.5,-151.85 5769.5,-151.85"/>
</g>
<!-- Ui2Component  -->
<g id="node59" class="node">
<title>Ui2Component </title>
<polygon fill="#fb8072" stroke="black" points="5943.83,-266 5838.17,-266 5838.17,-230 5943.83,-230 5943.83,-266"/>
<text text-anchor="middle" x="5891" y="-243.8" font-family="Times,serif" font-size="14.00">Ui2Component </text>
</g>
<!-- UiModule&#45;&gt;Ui2Component  -->
<g id="edge54" class="edge">
<title>UiModule&#45;&gt;Ui2Component </title>
<path fill="none" stroke="black" stroke-dasharray="5,2" d="M5809.63,-186C5849.32,-186 5907.05,-186 5907.05,-186 5907.05,-186 5907.05,-219.73 5907.05,-219.73"/>
<polygon fill="black" stroke="black" points="5903.56,-219.73 5907.05,-229.73 5910.56,-219.73 5903.56,-219.73"/>
</g>
<!-- UiComponent  -->
<g id="node60" class="node">
<title>UiComponent </title>
<polygon fill="#fb8072" stroke="black" points="5820.33,-266 5721.67,-266 5721.67,-230 5820.33,-230 5820.33,-266"/>
<text text-anchor="middle" x="5771" y="-243.8" font-family="Times,serif" font-size="14.00">UiComponent </text>
</g>
<!-- UiModule&#45;&gt;UiComponent  -->
<g id="edge55" class="edge">
<title>UiModule&#45;&gt;UiComponent </title>
<path fill="none" stroke="black" stroke-dasharray="5,2" d="M5773,-198.22C5773,-198.22 5773,-219.73 5773,-219.73"/>
<polygon fill="black" stroke="black" points="5769.5,-219.73 5773,-229.73 5776.5,-219.73 5769.5,-219.73"/>
</g>
</g>
</svg>
