<?xml version="1.0" encoding="UTF-8" standalone="no"?>
<!DOCTYPE svg PUBLIC "-//W3C//DTD SVG 1.1//EN"
 "http://www.w3.org/Graphics/SVG/1.1/DTD/svg11.dtd">
<!-- Generated by graphviz version 2.47.0 (20210316.0004)
 -->
<!-- Title: dependencies Pages: 1 -->
<svg width="6484pt" height="374pt"
 viewBox="0.00 0.00 6484.00 374.00" xmlns="http://www.w3.org/2000/svg" xmlns:xlink="http://www.w3.org/1999/xlink">
<g id="graph0" class="graph" transform="scale(1 1) rotate(0) translate(4 370)">
<title>dependencies</title>
<polygon fill="white" stroke="transparent" points="-4,4 -4,-370 6480,-370 6480,4 -4,4"/>
<text text-anchor="start" x="3217.01" y="-42.4" font-family="sans-serif" font-weight="bold" font-size="14.00">Legend</text>
<polygon fill="#ffffb3" stroke="transparent" points="3004,-10 3004,-30 3024,-30 3024,-10 3004,-10"/>
<text text-anchor="start" x="3027.63" y="-15.4" font-family="sans-serif" font-size="14.00"> &#160;Declarations</text>
<polygon fill="#8dd3c7" stroke="transparent" points="3117,-10 3117,-30 3137,-30 3137,-10 3117,-10"/>
<text text-anchor="start" x="3140.73" y="-15.4" font-family="sans-serif" font-size="14.00"> &#160;Module</text>
<polygon fill="#80b1d3" stroke="transparent" points="3203,-10 3203,-30 3223,-30 3223,-10 3203,-10"/>
<text text-anchor="start" x="3226.78" y="-15.4" font-family="sans-serif" font-size="14.00"> &#160;Bootstrap</text>
<polygon fill="#fdb462" stroke="transparent" points="3300,-10 3300,-30 3320,-30 3320,-10 3300,-10"/>
<text text-anchor="start" x="3323.67" y="-15.4" font-family="sans-serif" font-size="14.00"> &#160;Providers</text>
<polygon fill="#fb8072" stroke="transparent" points="3396,-10 3396,-30 3416,-30 3416,-10 3396,-10"/>
<text text-anchor="start" x="3419.73" y="-15.4" font-family="sans-serif" font-size="14.00"> &#160;Exports</text>
<g id="clust1" class="cluster">
<title>cluster_AppModule</title>
<polygon fill="none" stroke="black" stroke-dasharray="1,5" points="8,-146 8,-358 403,-358 403,-146 8,-146"/>
</g>
<g id="clust2" class="cluster">
<title>cluster_AppModule_declarations</title>
<polygon fill="none" stroke="black" points="16,-154 16,-206 138,-206 138,-154 16,-154"/>
</g>
<g id="clust4" class="cluster">
<title>cluster_AppModule_imports</title>
<polygon fill="none" stroke="black" points="146,-154 146,-206 395,-206 395,-154 146,-154"/>
</g>
<g id="clust6" class="cluster">
<title>cluster_AppModule_bootstrap</title>
<polygon fill="none" stroke="black" points="156,-298 156,-350 280,-350 280,-298 156,-298"/>
</g>
<g id="clust14" class="cluster">
<title>cluster_ClientsModule</title>
<polygon fill="none" stroke="black" stroke-dasharray="1,5" points="1706,-146 1706,-282 2572,-282 2572,-146 1706,-146"/>
</g>
<g id="clust15" class="cluster">
<title>cluster_ClientsModule_declarations</title>
<polygon fill="none" stroke="black" points="1998,-154 1998,-206 2564,-206 2564,-154 1998,-154"/>
</g>
<g id="clust19" class="cluster">
<title>cluster_ClientsModule_imports</title>
<polygon fill="none" stroke="black" points="1714,-154 1714,-206 1990,-206 1990,-154 1714,-154"/>
</g>
<g id="clust29" class="cluster">
<title>cluster_CoreModule</title>
<polygon fill="none" stroke="black" stroke-dasharray="1,5" points="411,-222 411,-290 1698,-290 1698,-222 411,-222"/>
</g>
<g id="clust30" class="cluster">
<title>cluster_CoreModule_declarations</title>
<polygon fill="none" stroke="black" points="419,-230 419,-282 815,-282 815,-230 419,-230"/>
</g>
<g id="clust35" class="cluster">
<title>cluster_CoreModule_exports</title>
<polygon fill="none" stroke="black" points="823,-230 823,-282 1690,-282 1690,-230 823,-230"/>
</g>
<g id="clust38" class="cluster">
<title>cluster_IconsModule</title>
<polygon fill="none" stroke="black" stroke-dasharray="1,5" points="4201,-70 4201,-290 4841,-290 4841,-70 4201,-70"/>
</g>
<g id="clust39" class="cluster">
<title>cluster_IconsModule_declarations</title>
<polygon fill="none" stroke="black" points="4216,-78 4216,-130 4826,-130 4826,-78 4216,-78"/>
</g>
<g id="clust45" class="cluster">
<title>cluster_IconsModule_exports</title>
<polygon fill="none" stroke="black" points="4209,-230 4209,-282 4833,-282 4833,-230 4209,-230"/>
</g>
<g id="clust48" class="cluster">
<title>cluster_LoginModule</title>
<polygon fill="none" stroke="black" stroke-dasharray="1,5" points="4849,-70 4849,-206 5788,-206 5788,-70 4849,-70"/>
</g>
<g id="clust49" class="cluster">
<title>cluster_LoginModule_declarations</title>
<polygon fill="none" stroke="black" points="5019,-78 5019,-130 5780,-130 5780,-78 5019,-78"/>
</g>
<g id="clust54" class="cluster">
<title>cluster_LoginModule_imports</title>
<polygon fill="none" stroke="black" points="4857,-78 4857,-130 5011,-130 5011,-78 4857,-78"/>
</g>
<g id="clust64" class="cluster">
<title>cluster_OrdersModule</title>
<polygon fill="none" stroke="black" stroke-dasharray="1,5" points="2580,-146 2580,-282 3323,-282 3323,-146 2580,-146"/>
</g>
<g id="clust65" class="cluster">
<title>cluster_OrdersModule_declarations</title>
<polygon fill="none" stroke="black" points="2754,-154 2754,-206 3315,-206 3315,-154 2754,-154"/>
</g>
<g id="clust69" class="cluster">
<title>cluster_OrdersModule_imports</title>
<polygon fill="none" stroke="black" points="2588,-154 2588,-206 2746,-206 2746,-154 2588,-154"/>
</g>
<g id="clust79" class="cluster">
<title>cluster_PageNotFoundModule</title>
<polygon fill="none" stroke="black" stroke-dasharray="1,5" points="5796,-70 5796,-206 6206,-206 6206,-70 5796,-70"/>
</g>
<g id="clust80" class="cluster">
<title>cluster_PageNotFoundModule_declarations</title>
<polygon fill="none" stroke="black" points="6016,-78 6016,-130 6198,-130 6198,-78 6016,-78"/>
</g>
<g id="clust82" class="cluster">
<title>cluster_PageNotFoundModule_imports</title>
<polygon fill="none" stroke="black" points="5804,-78 5804,-130 6008,-130 6008,-78 5804,-78"/>
</g>
<g id="clust92" class="cluster">
<title>cluster_SharedModule</title>
<polygon fill="none" stroke="black" stroke-dasharray="1,5" points="1685,-70 1685,-138 2402,-138 2402,-70 1685,-70"/>
</g>
<g id="clust93" class="cluster">
<title>cluster_SharedModule_declarations</title>
<polygon fill="none" stroke="black" points="1980,-78 1980,-130 2252,-130 2252,-78 1980,-78"/>
</g>
<g id="clust96" class="cluster">
<title>cluster_SharedModule_imports</title>
<polygon fill="none" stroke="black" points="2260,-78 2260,-130 2394,-130 2394,-78 2260,-78"/>
</g>
<g id="clust97" class="cluster">
<title>cluster_SharedModule_exports</title>
<polygon fill="none" stroke="black" points="1693,-78 1693,-130 1972,-130 1972,-78 1693,-78"/>
</g>
<g id="clust100" class="cluster">
<title>cluster_TemplatesModule</title>
<polygon fill="none" stroke="black" stroke-dasharray="1,5" points="3331,-146 3331,-214 4193,-214 4193,-146 3331,-146"/>
</g>
<g id="clust101" class="cluster">
<title>cluster_TemplatesModule_declarations</title>
<polygon fill="none" stroke="black" points="3769,-154 3769,-206 4185,-206 4185,-154 3769,-154"/>
</g>
<g id="clust105" class="cluster">
<title>cluster_TemplatesModule_exports</title>
<polygon fill="none" stroke="black" points="3339,-154 3339,-206 3761,-206 3761,-154 3339,-154"/>
</g>
<g id="clust108" class="cluster">
<title>cluster_UiModule</title>
<polygon fill="none" stroke="black" stroke-dasharray="1,5" points="6214,-70 6214,-290 6468,-290 6468,-70 6214,-70"/>
</g>
<g id="clust109" class="cluster">
<title>cluster_UiModule_declarations</title>
<polygon fill="none" stroke="black" points="6225,-78 6225,-130 6457,-130 6457,-78 6225,-78"/>
</g>
<g id="clust113" class="cluster">
<title>cluster_UiModule_exports</title>
<polygon fill="none" stroke="black" points="6222,-230 6222,-282 6460,-282 6460,-230 6222,-230"/>
</g>
<!-- AppComponent -->
<g id="node1" class="node">
<title>AppComponent</title>
<polygon fill="#ffffb3" stroke="black" points="129.94,-198 24.06,-198 24.06,-162 129.94,-162 129.94,-198"/>
<text text-anchor="middle" x="77" y="-175.8" font-family="Times,serif" font-size="14.00">AppComponent</text>
</g>
<!-- AppModule -->
<g id="node2" class="node">
<title>AppModule</title>
<polygon fill="#8dd3c7" stroke="black" points="259.66,-274 256.66,-278 235.66,-278 232.66,-274 176.34,-274 176.34,-238 259.66,-238 259.66,-274"/>
<text text-anchor="middle" x="218" y="-251.8" font-family="Times,serif" font-size="14.00">AppModule</text>
</g>
<!-- AppComponent&#45;&gt;AppModule -->
<g id="edge1" class="edge">
<title>AppComponent&#45;&gt;AppModule</title>
<path fill="none" stroke="black" d="M77,-198.01C77,-220.49 77,-256 77,-256 77,-256 166.08,-256 166.08,-256"/>
<polygon fill="black" stroke="black" points="166.08,-259.5 176.08,-256 166.08,-252.5 166.08,-259.5"/>
</g>
<!-- AppComponent  -->
<g id="node5" class="node">
<title>AppComponent </title>
<polygon fill="#80b1d3" stroke="black" points="272.44,-342 163.56,-342 163.56,-306 272.44,-306 272.44,-342"/>
<text text-anchor="middle" x="218" y="-319.8" font-family="Times,serif" font-size="14.00">AppComponent </text>
</g>
<!-- AppModule&#45;&gt;AppComponent  -->
<g id="edge4" class="edge">
<title>AppModule&#45;&gt;AppComponent </title>
<path fill="none" stroke="black" stroke-dasharray="1,5" d="M218,-274.22C218,-274.22 218,-295.73 218,-295.73"/>
<polygon fill="black" stroke="black" points="214.5,-295.73 218,-305.73 221.5,-295.73 214.5,-295.73"/>
</g>
<!-- AppRoutingModule -->
<g id="node3" class="node">
<title>AppRoutingModule</title>
<polygon fill="#8dd3c7" stroke="black" points="282.27,-198 279.27,-202 258.27,-202 255.27,-198 153.73,-198 153.73,-162 282.27,-162 282.27,-198"/>
<text text-anchor="middle" x="218" y="-175.8" font-family="Times,serif" font-size="14.00">AppRoutingModule</text>
</g>
<!-- AppRoutingModule&#45;&gt;AppModule -->
<g id="edge2" class="edge">
<title>AppRoutingModule&#45;&gt;AppModule</title>
<path fill="none" stroke="black" d="M218,-198.01C218,-198.01 218,-227.85 218,-227.85"/>
<polygon fill="black" stroke="black" points="214.5,-227.85 218,-237.85 221.5,-227.85 214.5,-227.85"/>
</g>
<!-- CoreModule -->
<g id="node4" class="node">
<title>CoreModule</title>
<polygon fill="#8dd3c7" stroke="black" points="387.26,-198 384.26,-202 363.26,-202 360.26,-198 300.74,-198 300.74,-162 387.26,-162 387.26,-198"/>
<text text-anchor="middle" x="344" y="-175.8" font-family="Times,serif" font-size="14.00">CoreModule</text>
</g>
<!-- CoreModule&#45;&gt;AppModule -->
<g id="edge3" class="edge">
<title>CoreModule&#45;&gt;AppModule</title>
<path fill="none" stroke="black" d="M329.54,-198.2C329.54,-222.36 329.54,-262 329.54,-262 329.54,-262 269.85,-262 269.85,-262"/>
<polygon fill="black" stroke="black" points="269.85,-258.5 259.85,-262 269.85,-265.5 269.85,-258.5"/>
</g>
<!-- FooterComponent  -->
<g id="node15" class="node">
<title>FooterComponent </title>
<polygon fill="#fb8072" stroke="black" points="1095.88,-274 974.12,-274 974.12,-238 1095.88,-238 1095.88,-274"/>
<text text-anchor="middle" x="1035" y="-251.8" font-family="Times,serif" font-size="14.00">FooterComponent </text>
</g>
<!-- CoreModule&#45;&gt;FooterComponent  -->
<g id="edge13" class="edge">
<title>CoreModule&#45;&gt;FooterComponent </title>
<path fill="none" stroke="black" stroke-dasharray="5,2" d="M387.49,-184C539.07,-184 1035,-184 1035,-184 1035,-184 1035,-227.83 1035,-227.83"/>
<polygon fill="black" stroke="black" points="1031.5,-227.83 1035,-237.83 1038.5,-227.83 1031.5,-227.83"/>
</g>
<!-- HeaderComponent  -->
<g id="node16" class="node">
<title>HeaderComponent </title>
<polygon fill="#fb8072" stroke="black" points="956.74,-274 831.26,-274 831.26,-238 956.74,-238 956.74,-274"/>
<text text-anchor="middle" x="894" y="-251.8" font-family="Times,serif" font-size="14.00">HeaderComponent </text>
</g>
<!-- CoreModule&#45;&gt;HeaderComponent  -->
<g id="edge14" class="edge">
<title>CoreModule&#45;&gt;HeaderComponent </title>
<path fill="none" stroke="black" stroke-dasharray="5,2" d="M387.62,-188C517.7,-188 894,-188 894,-188 894,-188 894,-227.78 894,-227.78"/>
<polygon fill="black" stroke="black" points="890.5,-227.78 894,-237.78 897.5,-227.78 890.5,-227.78"/>
</g>
<!-- IconsModule  -->
<g id="node17" class="node">
<title>IconsModule </title>
<polygon fill="#fb8072" stroke="black" points="1542.87,-274 1449.13,-274 1449.13,-238 1542.87,-238 1542.87,-274"/>
<text text-anchor="middle" x="1496" y="-251.8" font-family="Times,serif" font-size="14.00">IconsModule </text>
</g>
<!-- CoreModule&#45;&gt;IconsModule  -->
<g id="edge15" class="edge">
<title>CoreModule&#45;&gt;IconsModule </title>
<path fill="none" stroke="black" stroke-dasharray="5,2" d="M387.4,-170C597.19,-170 1496,-170 1496,-170 1496,-170 1496,-227.76 1496,-227.76"/>
<polygon fill="black" stroke="black" points="1492.5,-227.76 1496,-237.76 1499.5,-227.76 1492.5,-227.76"/>
</g>
<!-- LoginModule  -->
<g id="node18" class="node">
<title>LoginModule </title>
<polygon fill="#fb8072" stroke="black" points="1431.49,-274 1334.51,-274 1334.51,-238 1431.49,-238 1431.49,-274"/>
<text text-anchor="middle" x="1383" y="-251.8" font-family="Times,serif" font-size="14.00">LoginModule </text>
</g>
<!-- CoreModule&#45;&gt;LoginModule  -->
<g id="edge16" class="edge">
<title>CoreModule&#45;&gt;LoginModule </title>
<path fill="none" stroke="black" stroke-dasharray="5,2" d="M387.32,-173C583.96,-173 1383,-173 1383,-173 1383,-173 1383,-227.99 1383,-227.99"/>
<polygon fill="black" stroke="black" points="1379.5,-227.99 1383,-237.99 1386.5,-227.99 1379.5,-227.99"/>
</g>
<!-- NavComponent  -->
<g id="node19" class="node">
<title>NavComponent </title>
<polygon fill="#fb8072" stroke="black" points="1317.15,-274 1208.85,-274 1208.85,-238 1317.15,-238 1317.15,-274"/>
<text text-anchor="middle" x="1263" y="-251.8" font-family="Times,serif" font-size="14.00">NavComponent </text>
</g>
<!-- CoreModule&#45;&gt;NavComponent  -->
<g id="edge17" class="edge">
<title>CoreModule&#45;&gt;NavComponent </title>
<path fill="none" stroke="black" stroke-dasharray="5,2" d="M387.4,-177C569.56,-177 1263,-177 1263,-177 1263,-177 1263,-227.68 1263,-227.68"/>
<polygon fill="black" stroke="black" points="1259.5,-227.68 1263,-237.68 1266.5,-227.68 1259.5,-227.68"/>
</g>
<!-- TemplatesModule  -->
<g id="node20" class="node">
<title>TemplatesModule </title>
<polygon fill="#fb8072" stroke="black" points="1681.86,-274 1560.14,-274 1560.14,-238 1681.86,-238 1681.86,-274"/>
<text text-anchor="middle" x="1621" y="-251.8" font-family="Times,serif" font-size="14.00">TemplatesModule </text>
</g>
<!-- CoreModule&#45;&gt;TemplatesModule  -->
<g id="edge18" class="edge">
<title>CoreModule&#45;&gt;TemplatesModule </title>
<path fill="none" stroke="black" stroke-dasharray="5,2" d="M387.59,-166C611.4,-166 1621,-166 1621,-166 1621,-166 1621,-227.79 1621,-227.79"/>
<polygon fill="black" stroke="black" points="1617.5,-227.79 1621,-237.79 1624.5,-227.79 1617.5,-227.79"/>
</g>
<!-- UiModule  -->
<g id="node21" class="node">
<title>UiModule </title>
<polygon fill="#fb8072" stroke="black" points="1190.55,-274 1113.45,-274 1113.45,-238 1190.55,-238 1190.55,-274"/>
<text text-anchor="middle" x="1152" y="-251.8" font-family="Times,serif" font-size="14.00">UiModule </text>
</g>
<!-- CoreModule&#45;&gt;UiModule  -->
<g id="edge19" class="edge">
<title>CoreModule&#45;&gt;UiModule </title>
<path fill="none" stroke="black" stroke-dasharray="5,2" d="M387.44,-180C555.27,-180 1152,-180 1152,-180 1152,-180 1152,-227.99 1152,-227.99"/>
<polygon fill="black" stroke="black" points="1148.5,-227.99 1152,-237.99 1155.5,-227.99 1148.5,-227.99"/>
</g>
<!-- PageAddClientsComponent -->
<g id="node6" class="node">
<title>PageAddClientsComponent</title>
<polygon fill="#ffffb3" stroke="black" points="2368.32,-198 2195.68,-198 2195.68,-162 2368.32,-162 2368.32,-198"/>
<text text-anchor="middle" x="2282" y="-175.8" font-family="Times,serif" font-size="14.00">PageAddClientsComponent</text>
</g>
<!-- ClientsModule -->
<g id="node9" class="node">
<title>ClientsModule</title>
<polygon fill="#8dd3c7" stroke="black" points="2141.72,-274 2138.72,-278 2117.72,-278 2114.72,-274 2042.28,-274 2042.28,-238 2141.72,-238 2141.72,-274"/>
<text text-anchor="middle" x="2092" y="-251.8" font-family="Times,serif" font-size="14.00">ClientsModule</text>
</g>
<!-- PageAddClientsComponent&#45;&gt;ClientsModule -->
<g id="edge5" class="edge">
<title>PageAddClientsComponent&#45;&gt;ClientsModule</title>
<path fill="none" stroke="black" d="M2282,-198.31C2282,-218.15 2282,-247 2282,-247 2282,-247 2151.92,-247 2151.92,-247"/>
<polygon fill="black" stroke="black" points="2151.92,-243.5 2141.92,-247 2151.92,-250.5 2151.92,-243.5"/>
</g>
<!-- PageEditClientsComponent -->
<g id="node7" class="node">
<title>PageEditClientsComponent</title>
<polygon fill="#ffffb3" stroke="black" points="2177.55,-198 2006.45,-198 2006.45,-162 2177.55,-162 2177.55,-198"/>
<text text-anchor="middle" x="2092" y="-175.8" font-family="Times,serif" font-size="14.00">PageEditClientsComponent</text>
</g>
<!-- PageEditClientsComponent&#45;&gt;ClientsModule -->
<g id="edge6" class="edge">
<title>PageEditClientsComponent&#45;&gt;ClientsModule</title>
<path fill="none" stroke="black" d="M2092,-198.01C2092,-198.01 2092,-227.85 2092,-227.85"/>
<polygon fill="black" stroke="black" points="2088.5,-227.85 2092,-237.85 2095.5,-227.85 2088.5,-227.85"/>
</g>
<!-- PageListClientsComponent -->
<g id="node8" class="node">
<title>PageListClientsComponent</title>
<polygon fill="#ffffb3" stroke="black" points="2555.99,-198 2386.01,-198 2386.01,-162 2555.99,-162 2555.99,-198"/>
<text text-anchor="middle" x="2471" y="-175.8" font-family="Times,serif" font-size="14.00">PageListClientsComponent</text>
</g>
<!-- PageListClientsComponent&#45;&gt;ClientsModule -->
<g id="edge7" class="edge">
<title>PageListClientsComponent&#45;&gt;ClientsModule</title>
<path fill="none" stroke="black" d="M2471,-198.01C2471,-220.49 2471,-256 2471,-256 2471,-256 2151.94,-256 2151.94,-256"/>
<polygon fill="black" stroke="black" points="2151.94,-252.5 2141.94,-256 2151.94,-259.5 2151.94,-252.5"/>
</g>
<!-- ClientsRoutingModule -->
<g id="node10" class="node">
<title>ClientsRoutingModule</title>
<polygon fill="#8dd3c7" stroke="black" points="1982.34,-198 1979.34,-202 1958.34,-202 1955.34,-198 1837.66,-198 1837.66,-162 1982.34,-162 1982.34,-198"/>
<text text-anchor="middle" x="1910" y="-175.8" font-family="Times,serif" font-size="14.00">ClientsRoutingModule</text>
</g>
<!-- ClientsRoutingModule&#45;&gt;ClientsModule -->
<g id="edge8" class="edge">
<title>ClientsRoutingModule&#45;&gt;ClientsModule</title>
<path fill="none" stroke="black" d="M1910,-198.31C1910,-218.15 1910,-247 1910,-247 1910,-247 2032.27,-247 2032.27,-247"/>
<polygon fill="black" stroke="black" points="2032.27,-250.5 2042.27,-247 2032.27,-243.5 2032.27,-250.5"/>
</g>
<!-- SharedModule -->
<g id="node11" class="node">
<title>SharedModule</title>
<polygon fill="#8dd3c7" stroke="black" points="1820.42,-198 1817.42,-202 1796.42,-202 1793.42,-198 1721.58,-198 1721.58,-162 1820.42,-162 1820.42,-198"/>
<text text-anchor="middle" x="1771" y="-175.8" font-family="Times,serif" font-size="14.00">SharedModule</text>
</g>
<!-- SharedModule&#45;&gt;ClientsModule -->
<g id="edge9" class="edge">
<title>SharedModule&#45;&gt;ClientsModule</title>
<path fill="none" stroke="black" d="M1795.61,-198.01C1795.61,-220.49 1795.61,-256 1795.61,-256 1795.61,-256 2032.39,-256 2032.39,-256"/>
<polygon fill="black" stroke="black" points="2032.39,-259.5 2042.39,-256 2032.39,-252.5 2032.39,-259.5"/>
</g>
<!-- SharedModule&#45;&gt;TemplatesModule  -->
<g id="edge45" class="edge">
<title>SharedModule&#45;&gt;TemplatesModule </title>
<path fill="none" stroke="black" stroke-dasharray="5,2" d="M1771,-198.03C1771,-222.98 1771,-265 1771,-265 1771,-265 1692.01,-265 1692.01,-265"/>
<polygon fill="black" stroke="black" points="1692.01,-261.5 1682.01,-265 1692.01,-268.5 1692.01,-261.5"/>
</g>
<!-- OrdersModule -->
<g id="node40" class="node">
<title>OrdersModule</title>
<polygon fill="#8dd3c7" stroke="black" points="2895.64,-274 2892.64,-278 2871.64,-278 2868.64,-274 2798.36,-274 2798.36,-238 2895.64,-238 2895.64,-274"/>
<text text-anchor="middle" x="2847" y="-251.8" font-family="Times,serif" font-size="14.00">OrdersModule</text>
</g>
<!-- SharedModule&#45;&gt;OrdersModule -->
<g id="edge37" class="edge">
<title>SharedModule&#45;&gt;OrdersModule</title>
<path fill="none" stroke="black" d="M1746.39,-198.11C1746.39,-207.9 1746.39,-218 1746.39,-218 1746.39,-218 2830.73,-218 2830.73,-218 2830.73,-218 2830.73,-227.89 2830.73,-227.89"/>
<polygon fill="black" stroke="black" points="2827.23,-227.89 2830.73,-237.89 2834.23,-227.89 2827.23,-227.89"/>
</g>
<!-- BtnComponent  -->
<g id="node48" class="node">
<title>BtnComponent </title>
<polygon fill="#fb8072" stroke="black" points="1963.56,-122 1858.44,-122 1858.44,-86 1963.56,-86 1963.56,-122"/>
<text text-anchor="middle" x="1911" y="-99.8" font-family="Times,serif" font-size="14.00">BtnComponent </text>
</g>
<!-- SharedModule&#45;&gt;BtnComponent  -->
<g id="edge43" class="edge">
<title>SharedModule&#45;&gt;BtnComponent </title>
<path fill="none" stroke="black" stroke-dasharray="5,2" d="M1803.81,-161.95C1803.81,-147.63 1803.81,-130 1803.81,-130 1803.81,-130 1911,-130 1911,-130 1911,-130 1911,-129.21 1911,-129.21"/>
<polygon fill="black" stroke="black" points="1914.5,-132.06 1911,-122.06 1907.5,-132.06 1914.5,-132.06"/>
</g>
<!-- TableLiteComponent  -->
<g id="node49" class="node">
<title>TableLiteComponent </title>
<polygon fill="#fb8072" stroke="black" points="1840.75,-122 1701.25,-122 1701.25,-86 1840.75,-86 1840.75,-122"/>
<text text-anchor="middle" x="1771" y="-99.8" font-family="Times,serif" font-size="14.00">TableLiteComponent </text>
</g>
<!-- SharedModule&#45;&gt;TableLiteComponent  -->
<g id="edge44" class="edge">
<title>SharedModule&#45;&gt;TableLiteComponent </title>
<path fill="none" stroke="black" stroke-dasharray="5,2" d="M1738.19,-161.99C1738.19,-161.99 1738.19,-132.15 1738.19,-132.15"/>
<polygon fill="black" stroke="black" points="1741.69,-132.15 1738.19,-122.15 1734.69,-132.15 1741.69,-132.15"/>
</g>
<!-- FooterComponent -->
<g id="node12" class="node">
<title>FooterComponent</title>
<polygon fill="#ffffb3" stroke="black" points="544.88,-274 427.12,-274 427.12,-238 544.88,-238 544.88,-274"/>
<text text-anchor="middle" x="486" y="-251.8" font-family="Times,serif" font-size="14.00">FooterComponent</text>
</g>
<!-- FooterComponent&#45;&gt;CoreModule -->
<g id="edge10" class="edge">
<title>FooterComponent&#45;&gt;CoreModule</title>
<path fill="none" stroke="black" d="M427.08,-250C393.67,-250 358.46,-250 358.46,-250 358.46,-250 358.46,-208.03 358.46,-208.03"/>
<polygon fill="black" stroke="black" points="361.96,-208.03 358.46,-198.03 354.96,-208.03 361.96,-208.03"/>
</g>
<!-- HeaderComponent -->
<g id="node13" class="node">
<title>HeaderComponent</title>
<polygon fill="#ffffb3" stroke="black" points="806.74,-274 685.26,-274 685.26,-238 806.74,-238 806.74,-274"/>
<text text-anchor="middle" x="746" y="-251.8" font-family="Times,serif" font-size="14.00">HeaderComponent</text>
</g>
<!-- HeaderComponent&#45;&gt;CoreModule -->
<g id="edge11" class="edge">
<title>HeaderComponent&#45;&gt;CoreModule</title>
<path fill="none" stroke="black" d="M746,-237.89C746,-218.66 746,-191 746,-191 746,-191 397.4,-191 397.4,-191"/>
<polygon fill="black" stroke="black" points="397.4,-187.5 387.4,-191 397.4,-194.5 397.4,-187.5"/>
</g>
<!-- NavComponent -->
<g id="node14" class="node">
<title>NavComponent</title>
<polygon fill="#ffffb3" stroke="black" points="667.15,-274 562.85,-274 562.85,-238 667.15,-238 667.15,-274"/>
<text text-anchor="middle" x="615" y="-251.8" font-family="Times,serif" font-size="14.00">NavComponent</text>
</g>
<!-- NavComponent&#45;&gt;CoreModule -->
<g id="edge12" class="edge">
<title>NavComponent&#45;&gt;CoreModule</title>
<path fill="none" stroke="black" d="M615,-237.7C615,-219.73 615,-195 615,-195 615,-195 397.54,-195 397.54,-195"/>
<polygon fill="black" stroke="black" points="397.54,-191.5 387.54,-195 397.54,-198.5 397.54,-191.5"/>
</g>
<!-- IconCloseComponent -->
<g id="node22" class="node">
<title>IconCloseComponent</title>
<polygon fill="#ffffb3" stroke="black" points="4818.09,-122 4679.91,-122 4679.91,-86 4818.09,-86 4818.09,-122"/>
<text text-anchor="middle" x="4749" y="-99.8" font-family="Times,serif" font-size="14.00">IconCloseComponent</text>
</g>
<!-- IconsModule -->
<g id="node26" class="node">
<title>IconsModule</title>
<polygon fill="#8dd3c7" stroke="black" points="4565.87,-198 4562.87,-202 4541.87,-202 4538.87,-198 4476.13,-198 4476.13,-162 4565.87,-162 4565.87,-198"/>
<text text-anchor="middle" x="4521" y="-175.8" font-family="Times,serif" font-size="14.00">IconsModule</text>
</g>
<!-- IconCloseComponent&#45;&gt;IconsModule -->
<g id="edge20" class="edge">
<title>IconCloseComponent&#45;&gt;IconsModule</title>
<path fill="none" stroke="black" d="M4685.72,-122.03C4685.72,-141.58 4685.72,-170 4685.72,-170 4685.72,-170 4576.01,-170 4576.01,-170"/>
<polygon fill="black" stroke="black" points="4576.01,-166.5 4566.01,-170 4576.01,-173.5 4576.01,-166.5"/>
</g>
<!-- IconDeleteComponent -->
<g id="node23" class="node">
<title>IconDeleteComponent</title>
<polygon fill="#ffffb3" stroke="black" points="4662.24,-122 4519.76,-122 4519.76,-86 4662.24,-86 4662.24,-122"/>
<text text-anchor="middle" x="4591" y="-99.8" font-family="Times,serif" font-size="14.00">IconDeleteComponent</text>
</g>
<!-- IconDeleteComponent&#45;&gt;IconsModule -->
<g id="edge21" class="edge">
<title>IconDeleteComponent&#45;&gt;IconsModule</title>
<path fill="none" stroke="black" d="M4542.78,-122.01C4542.78,-122.01 4542.78,-151.85 4542.78,-151.85"/>
<polygon fill="black" stroke="black" points="4539.28,-151.85 4542.78,-161.85 4546.28,-151.85 4539.28,-151.85"/>
</g>
<!-- IconEditComponent -->
<g id="node24" class="node">
<title>IconEditComponent</title>
<polygon fill="#ffffb3" stroke="black" points="4501.54,-122 4372.46,-122 4372.46,-86 4501.54,-86 4501.54,-122"/>
<text text-anchor="middle" x="4437" y="-99.8" font-family="Times,serif" font-size="14.00">IconEditComponent</text>
</g>
<!-- IconEditComponent&#45;&gt;IconsModule -->
<g id="edge22" class="edge">
<title>IconEditComponent&#45;&gt;IconsModule</title>
<path fill="none" stroke="black" d="M4488.92,-122.01C4488.92,-122.01 4488.92,-151.85 4488.92,-151.85"/>
<polygon fill="black" stroke="black" points="4485.42,-151.85 4488.92,-161.85 4492.42,-151.85 4485.42,-151.85"/>
</g>
<!-- IconNavComponent -->
<g id="node25" class="node">
<title>IconNavComponent</title>
<polygon fill="#ffffb3" stroke="black" points="4353.53,-122 4224.47,-122 4224.47,-86 4353.53,-86 4353.53,-122"/>
<text text-anchor="middle" x="4289" y="-99.8" font-family="Times,serif" font-size="14.00">IconNavComponent</text>
</g>
<!-- IconNavComponent&#45;&gt;IconsModule -->
<g id="edge23" class="edge">
<title>IconNavComponent&#45;&gt;IconsModule</title>
<path fill="none" stroke="black" d="M4289,-122.03C4289,-142.77 4289,-174 4289,-174 4289,-174 4465.99,-174 4465.99,-174"/>
<polygon fill="black" stroke="black" points="4465.99,-177.5 4475.99,-174 4465.99,-170.5 4465.99,-177.5"/>
</g>
<!-- IconCloseComponent  -->
<g id="node27" class="node">
<title>IconCloseComponent </title>
<polygon fill="#fb8072" stroke="black" points="4522.59,-274 4381.41,-274 4381.41,-238 4522.59,-238 4522.59,-274"/>
<text text-anchor="middle" x="4452" y="-251.8" font-family="Times,serif" font-size="14.00">IconCloseComponent </text>
</g>
<!-- IconsModule&#45;&gt;IconCloseComponent  -->
<g id="edge24" class="edge">
<title>IconsModule&#45;&gt;IconCloseComponent </title>
<path fill="none" stroke="black" stroke-dasharray="5,2" d="M4499.43,-198.01C4499.43,-198.01 4499.43,-227.85 4499.43,-227.85"/>
<polygon fill="black" stroke="black" points="4495.93,-227.85 4499.43,-237.85 4502.93,-227.85 4495.93,-227.85"/>
</g>
<!-- IconDeleteComponent  -->
<g id="node28" class="node">
<title>IconDeleteComponent </title>
<polygon fill="#fb8072" stroke="black" points="4363.24,-274 4216.76,-274 4216.76,-238 4363.24,-238 4363.24,-274"/>
<text text-anchor="middle" x="4290" y="-251.8" font-family="Times,serif" font-size="14.00">IconDeleteComponent </text>
</g>
<!-- IconsModule&#45;&gt;IconDeleteComponent  -->
<g id="edge25" class="edge">
<title>IconsModule&#45;&gt;IconDeleteComponent </title>
<path fill="none" stroke="black" stroke-dasharray="5,2" d="M4475.72,-186C4427.62,-186 4358.44,-186 4358.44,-186 4358.44,-186 4358.44,-227.97 4358.44,-227.97"/>
<polygon fill="black" stroke="black" points="4354.94,-227.97 4358.44,-237.97 4361.94,-227.97 4354.94,-227.97"/>
</g>
<!-- IconEditComponent  -->
<g id="node29" class="node">
<title>IconEditComponent </title>
<polygon fill="#fb8072" stroke="black" points="4824.54,-274 4691.46,-274 4691.46,-238 4824.54,-238 4824.54,-274"/>
<text text-anchor="middle" x="4758" y="-251.8" font-family="Times,serif" font-size="14.00">IconEditComponent </text>
</g>
<!-- IconsModule&#45;&gt;IconEditComponent  -->
<g id="edge26" class="edge">
<title>IconsModule&#45;&gt;IconEditComponent </title>
<path fill="none" stroke="black" stroke-dasharray="5,2" d="M4566.07,-177C4634,-177 4754.76,-177 4754.76,-177 4754.76,-177 4754.76,-227.68 4754.76,-227.68"/>
<polygon fill="black" stroke="black" points="4751.26,-227.68 4754.76,-237.68 4758.26,-227.68 4751.26,-227.68"/>
</g>
<!-- IconNavComponent  -->
<g id="node30" class="node">
<title>IconNavComponent </title>
<polygon fill="#fb8072" stroke="black" points="4673.53,-274 4540.47,-274 4540.47,-238 4673.53,-238 4673.53,-274"/>
<text text-anchor="middle" x="4607" y="-251.8" font-family="Times,serif" font-size="14.00">IconNavComponent </text>
</g>
<!-- IconsModule&#45;&gt;IconNavComponent  -->
<g id="edge27" class="edge">
<title>IconsModule&#45;&gt;IconNavComponent </title>
<path fill="none" stroke="black" stroke-dasharray="5,2" d="M4553.21,-198.01C4553.21,-198.01 4553.21,-227.85 4553.21,-227.85"/>
<polygon fill="black" stroke="black" points="4549.71,-227.85 4553.21,-237.85 4556.71,-227.85 4549.71,-227.85"/>
</g>
<!-- PageForgotPasswordComponent -->
<g id="node31" class="node">
<title>PageForgotPasswordComponent</title>
<polygon fill="#ffffb3" stroke="black" points="5771.53,-122 5572.47,-122 5572.47,-86 5771.53,-86 5771.53,-122"/>
<text text-anchor="middle" x="5672" y="-99.8" font-family="Times,serif" font-size="14.00">PageForgotPasswordComponent</text>
</g>
<!-- LoginModule -->
<g id="node35" class="node">
<title>LoginModule</title>
<polygon fill="#8dd3c7" stroke="black" points="5316.49,-198 5313.49,-202 5292.49,-202 5289.49,-198 5223.51,-198 5223.51,-162 5316.49,-162 5316.49,-198"/>
<text text-anchor="middle" x="5270" y="-175.8" font-family="Times,serif" font-size="14.00">LoginModule</text>
</g>
<!-- PageForgotPasswordComponent&#45;&gt;LoginModule -->
<g id="edge28" class="edge">
<title>PageForgotPasswordComponent&#45;&gt;LoginModule</title>
<path fill="none" stroke="black" d="M5672,-122.2C5672,-146.36 5672,-186 5672,-186 5672,-186 5326.51,-186 5326.51,-186"/>
<polygon fill="black" stroke="black" points="5326.51,-182.5 5316.51,-186 5326.51,-189.5 5326.51,-182.5"/>
</g>
<!-- PageResetPasswordComponent -->
<g id="node32" class="node">
<title>PageResetPasswordComponent</title>
<polygon fill="#ffffb3" stroke="black" points="5554.8,-122 5361.2,-122 5361.2,-86 5554.8,-86 5554.8,-122"/>
<text text-anchor="middle" x="5458" y="-99.8" font-family="Times,serif" font-size="14.00">PageResetPasswordComponent</text>
</g>
<!-- PageResetPasswordComponent&#45;&gt;LoginModule -->
<g id="edge29" class="edge">
<title>PageResetPasswordComponent&#45;&gt;LoginModule</title>
<path fill="none" stroke="black" d="M5458,-122.03C5458,-142.77 5458,-174 5458,-174 5458,-174 5326.96,-174 5326.96,-174"/>
<polygon fill="black" stroke="black" points="5326.96,-170.5 5316.96,-174 5326.96,-177.5 5326.96,-170.5"/>
</g>
<!-- PageSignInComponent -->
<g id="node33" class="node">
<title>PageSignInComponent</title>
<polygon fill="#ffffb3" stroke="black" points="5342.88,-122 5197.12,-122 5197.12,-86 5342.88,-86 5342.88,-122"/>
<text text-anchor="middle" x="5270" y="-99.8" font-family="Times,serif" font-size="14.00">PageSignInComponent</text>
</g>
<!-- PageSignInComponent&#45;&gt;LoginModule -->
<g id="edge30" class="edge">
<title>PageSignInComponent&#45;&gt;LoginModule</title>
<path fill="none" stroke="black" d="M5270,-122.01C5270,-122.01 5270,-151.85 5270,-151.85"/>
<polygon fill="black" stroke="black" points="5266.5,-151.85 5270,-161.85 5273.5,-151.85 5266.5,-151.85"/>
</g>
<!-- PageSignUpComponent -->
<g id="node34" class="node">
<title>PageSignUpComponent</title>
<polygon fill="#ffffb3" stroke="black" points="5178.82,-122 5027.18,-122 5027.18,-86 5178.82,-86 5178.82,-122"/>
<text text-anchor="middle" x="5103" y="-99.8" font-family="Times,serif" font-size="14.00">PageSignUpComponent</text>
</g>
<!-- PageSignUpComponent&#45;&gt;LoginModule -->
<g id="edge31" class="edge">
<title>PageSignUpComponent&#45;&gt;LoginModule</title>
<path fill="none" stroke="black" d="M5103,-122.15C5103,-145.76 5103,-184 5103,-184 5103,-184 5213.48,-184 5213.48,-184"/>
<polygon fill="black" stroke="black" points="5213.48,-187.5 5223.48,-184 5213.48,-180.5 5213.48,-187.5"/>
</g>
<!-- LoginRoutingModule -->
<g id="node36" class="node">
<title>LoginRoutingModule</title>
<polygon fill="#8dd3c7" stroke="black" points="5003.11,-122 5000.11,-126 4979.11,-126 4976.11,-122 4864.89,-122 4864.89,-86 5003.11,-86 5003.11,-122"/>
<text text-anchor="middle" x="4934" y="-99.8" font-family="Times,serif" font-size="14.00">LoginRoutingModule</text>
</g>
<!-- LoginRoutingModule&#45;&gt;LoginModule -->
<g id="edge32" class="edge">
<title>LoginRoutingModule&#45;&gt;LoginModule</title>
<path fill="none" stroke="black" d="M4934,-122.03C4934,-147.51 4934,-191 4934,-191 4934,-191 5213.28,-191 5213.28,-191"/>
<polygon fill="black" stroke="black" points="5213.28,-194.5 5223.28,-191 5213.28,-187.5 5213.28,-194.5"/>
</g>
<!-- PageAddOrdersComponent -->
<g id="node37" class="node">
<title>PageAddOrdersComponent</title>
<polygon fill="#ffffb3" stroke="black" points="3120.24,-198 2949.76,-198 2949.76,-162 3120.24,-162 3120.24,-198"/>
<text text-anchor="middle" x="3035" y="-175.8" font-family="Times,serif" font-size="14.00">PageAddOrdersComponent</text>
</g>
<!-- PageAddOrdersComponent&#45;&gt;OrdersModule -->
<g id="edge33" class="edge">
<title>PageAddOrdersComponent&#45;&gt;OrdersModule</title>
<path fill="none" stroke="black" d="M3035,-198.03C3035,-218.77 3035,-250 3035,-250 3035,-250 2905.9,-250 2905.9,-250"/>
<polygon fill="black" stroke="black" points="2905.9,-246.5 2895.9,-250 2905.9,-253.5 2905.9,-246.5"/>
</g>
<!-- PageEditOrdersComponent -->
<g id="node38" class="node">
<title>PageEditOrdersComponent</title>
<polygon fill="#ffffb3" stroke="black" points="2931.97,-198 2762.03,-198 2762.03,-162 2931.97,-162 2931.97,-198"/>
<text text-anchor="middle" x="2847" y="-175.8" font-family="Times,serif" font-size="14.00">PageEditOrdersComponent</text>
</g>
<!-- PageEditOrdersComponent&#45;&gt;OrdersModule -->
<g id="edge34" class="edge">
<title>PageEditOrdersComponent&#45;&gt;OrdersModule</title>
<path fill="none" stroke="black" d="M2863.27,-198.01C2863.27,-198.01 2863.27,-227.85 2863.27,-227.85"/>
<polygon fill="black" stroke="black" points="2859.77,-227.85 2863.27,-237.85 2866.77,-227.85 2859.77,-227.85"/>
</g>
<!-- PageListOrdersComponent -->
<g id="node39" class="node">
<title>PageListOrdersComponent</title>
<polygon fill="#ffffb3" stroke="black" points="3307.41,-198 3138.59,-198 3138.59,-162 3307.41,-162 3307.41,-198"/>
<text text-anchor="middle" x="3223" y="-175.8" font-family="Times,serif" font-size="14.00">PageListOrdersComponent</text>
</g>
<!-- PageListOrdersComponent&#45;&gt;OrdersModule -->
<g id="edge35" class="edge">
<title>PageListOrdersComponent&#45;&gt;OrdersModule</title>
<path fill="none" stroke="black" d="M3223,-198.2C3223,-222.36 3223,-262 3223,-262 3223,-262 2905.77,-262 2905.77,-262"/>
<polygon fill="black" stroke="black" points="2905.77,-258.5 2895.77,-262 2905.77,-265.5 2905.77,-258.5"/>
</g>
<!-- OrdersRoutingModule -->
<g id="node41" class="node">
<title>OrdersRoutingModule</title>
<polygon fill="#8dd3c7" stroke="black" points="2738.25,-198 2735.25,-202 2714.25,-202 2711.25,-198 2595.75,-198 2595.75,-162 2738.25,-162 2738.25,-198"/>
<text text-anchor="middle" x="2667" y="-175.8" font-family="Times,serif" font-size="14.00">OrdersRoutingModule</text>
</g>
<!-- OrdersRoutingModule&#45;&gt;OrdersModule -->
<g id="edge36" class="edge">
<title>OrdersRoutingModule&#45;&gt;OrdersModule</title>
<path fill="none" stroke="black" d="M2667,-198.03C2667,-222.98 2667,-265 2667,-265 2667,-265 2788.29,-265 2788.29,-265"/>
<polygon fill="black" stroke="black" points="2788.29,-268.5 2798.29,-265 2788.29,-261.5 2788.29,-268.5"/>
</g>
<!-- PageNotFoundComponent -->
<g id="node42" class="node">
<title>PageNotFoundComponent</title>
<polygon fill="#ffffb3" stroke="black" points="6189.82,-122 6024.18,-122 6024.18,-86 6189.82,-86 6189.82,-122"/>
<text text-anchor="middle" x="6107" y="-99.8" font-family="Times,serif" font-size="14.00">PageNotFoundComponent</text>
</g>
<!-- PageNotFoundModule -->
<g id="node43" class="node">
<title>PageNotFoundModule</title>
<polygon fill="#8dd3c7" stroke="black" points="6077.54,-198 6074.54,-202 6053.54,-202 6050.54,-198 5934.46,-198 5934.46,-162 6077.54,-162 6077.54,-198"/>
<text text-anchor="middle" x="6006" y="-175.8" font-family="Times,serif" font-size="14.00">PageNotFoundModule</text>
</g>
<!-- PageNotFoundComponent&#45;&gt;PageNotFoundModule -->
<g id="edge38" class="edge">
<title>PageNotFoundComponent&#45;&gt;PageNotFoundModule</title>
<path fill="none" stroke="black" d="M6051.05,-122.01C6051.05,-122.01 6051.05,-151.85 6051.05,-151.85"/>
<polygon fill="black" stroke="black" points="6047.55,-151.85 6051.05,-161.85 6054.55,-151.85 6047.55,-151.85"/>
</g>
<!-- PageNotFoundRoutingModule -->
<g id="node44" class="node">
<title>PageNotFoundRoutingModule</title>
<polygon fill="#8dd3c7" stroke="black" points="6000.16,-122 5997.16,-126 5976.16,-126 5973.16,-122 5811.84,-122 5811.84,-86 6000.16,-86 6000.16,-122"/>
<text text-anchor="middle" x="5906" y="-99.8" font-family="Times,serif" font-size="14.00">PageNotFoundRoutingModule</text>
</g>
<!-- PageNotFoundRoutingModule&#45;&gt;PageNotFoundModule -->
<g id="edge39" class="edge">
<title>PageNotFoundRoutingModule&#45;&gt;PageNotFoundModule</title>
<path fill="none" stroke="black" d="M5967.28,-122.01C5967.28,-122.01 5967.28,-151.85 5967.28,-151.85"/>
<polygon fill="black" stroke="black" points="5963.78,-151.85 5967.28,-161.85 5970.78,-151.85 5963.78,-151.85"/>
</g>
<!-- BtnComponent -->
<g id="node45" class="node">
<title>BtnComponent</title>
<polygon fill="#ffffb3" stroke="black" points="2243.56,-122 2142.44,-122 2142.44,-86 2243.56,-86 2243.56,-122"/>
<text text-anchor="middle" x="2193" y="-99.8" font-family="Times,serif" font-size="14.00">BtnComponent</text>
</g>
<!-- BtnComponent&#45;&gt;SharedModule -->
<g id="edge40" class="edge">
<title>BtnComponent&#45;&gt;SharedModule</title>
<path fill="none" stroke="black" d="M2160,-122.06C2160,-133.44 2160,-146 2160,-146 2160,-146 1771,-146 1771,-146 1771,-146 1771,-151.81 1771,-151.81"/>
<polygon fill="black" stroke="black" points="1767.5,-151.81 1771,-161.81 1774.5,-151.81 1767.5,-151.81"/>
</g>
<!-- TableLiteComponent -->
<g id="node46" class="node">
<title>TableLiteComponent</title>
<polygon fill="#ffffb3" stroke="black" points="2123.75,-122 1988.25,-122 1988.25,-86 2123.75,-86 2123.75,-122"/>
<text text-anchor="middle" x="2056" y="-99.8" font-family="Times,serif" font-size="14.00">TableLiteComponent</text>
</g>
<!-- TableLiteComponent&#45;&gt;SharedModule -->
<g id="edge41" class="edge">
<title>TableLiteComponent&#45;&gt;SharedModule</title>
<path fill="none" stroke="black" d="M1997.18,-122.19C1997.18,-130.28 1997.18,-138 1997.18,-138 1997.18,-138 1754.6,-138 1754.6,-138 1754.6,-138 1754.6,-151.94 1754.6,-151.94"/>
<polygon fill="black" stroke="black" points="1751.1,-151.94 1754.6,-161.94 1758.1,-151.94 1751.1,-151.94"/>
</g>
<!-- TemplatesModule -->
<g id="node47" class="node">
<title>TemplatesModule</title>
<polygon fill="#8dd3c7" stroke="black" points="2385.86,-122 2382.86,-126 2361.86,-126 2358.86,-122 2268.14,-122 2268.14,-86 2385.86,-86 2385.86,-122"/>
<text text-anchor="middle" x="2327" y="-99.8" font-family="Times,serif" font-size="14.00">TemplatesModule</text>
</g>
<!-- TemplatesModule&#45;&gt;SharedModule -->
<g id="edge42" class="edge">
<title>TemplatesModule&#45;&gt;SharedModule</title>
<path fill="none" stroke="black" d="M2318.11,-122.05C2318.11,-136.37 2318.11,-154 2318.11,-154 2318.11,-154 1787.4,-154 1787.4,-154 1787.4,-154 1787.4,-154.79 1787.4,-154.79"/>
<polygon fill="black" stroke="black" points="1783.9,-151.94 1787.4,-161.94 1790.9,-151.94 1783.9,-151.94"/>
</g>
<!-- TemplateContainerComponent  -->
<g id="node52" class="node">
<title>TemplateContainerComponent </title>
<polygon fill="#fb8072" stroke="black" points="3753.41,-198 3560.59,-198 3560.59,-162 3753.41,-162 3753.41,-198"/>
<text text-anchor="middle" x="3657" y="-175.8" font-family="Times,serif" font-size="14.00">TemplateContainerComponent </text>
</g>
<!-- TemplatesModule&#45;&gt;TemplateContainerComponent  -->
<g id="edge48" class="edge">
<title>TemplatesModule&#45;&gt;TemplateContainerComponent </title>
<path fill="none" stroke="black" stroke-dasharray="5,2" d="M2385.86,-108C2643.26,-108 3657,-108 3657,-108 3657,-108 3657,-151.83 3657,-151.83"/>
<polygon fill="black" stroke="black" points="3653.5,-151.83 3657,-161.83 3660.5,-151.83 3653.5,-151.83"/>
</g>
<!-- TemplateFullWidthComponent  -->
<g id="node53" class="node">
<title>TemplateFullWidthComponent </title>
<polygon fill="#fb8072" stroke="black" points="3542.76,-198 3347.24,-198 3347.24,-162 3542.76,-162 3542.76,-198"/>
<text text-anchor="middle" x="3445" y="-175.8" font-family="Times,serif" font-size="14.00">TemplateFullWidthComponent </text>
</g>
<!-- TemplatesModule&#45;&gt;TemplateFullWidthComponent  -->
<g id="edge49" class="edge">
<title>TemplatesModule&#45;&gt;TemplateFullWidthComponent </title>
<path fill="none" stroke="black" stroke-dasharray="5,2" d="M2385.93,-115C2616.51,-115 3445,-115 3445,-115 3445,-115 3445,-151.89 3445,-151.89"/>
<polygon fill="black" stroke="black" points="3441.5,-151.89 3445,-161.89 3448.5,-151.89 3441.5,-151.89"/>
</g>
<!-- TemplateContainerComponent -->
<g id="node50" class="node">
<title>TemplateContainerComponent</title>
<polygon fill="#ffffb3" stroke="black" points="4176.91,-198 3987.09,-198 3987.09,-162 4176.91,-162 4176.91,-198"/>
<text text-anchor="middle" x="4082" y="-175.8" font-family="Times,serif" font-size="14.00">TemplateContainerComponent</text>
</g>
<!-- TemplateContainerComponent&#45;&gt;TemplatesModule -->
<g id="edge46" class="edge">
<title>TemplateContainerComponent&#45;&gt;TemplatesModule</title>
<path fill="none" stroke="black" d="M4082,-161.76C4082,-136.52 4082,-94 4082,-94 4082,-94 2395.89,-94 2395.89,-94"/>
<polygon fill="black" stroke="black" points="2395.89,-90.5 2385.89,-94 2395.89,-97.5 2395.89,-90.5"/>
</g>
<!-- TemplateFullWidthComponent -->
<g id="node51" class="node">
<title>TemplateFullWidthComponent</title>
<polygon fill="#ffffb3" stroke="black" points="3968.76,-198 3777.24,-198 3777.24,-162 3968.76,-162 3968.76,-198"/>
<text text-anchor="middle" x="3873" y="-175.8" font-family="Times,serif" font-size="14.00">TemplateFullWidthComponent</text>
</g>
<!-- TemplateFullWidthComponent&#45;&gt;TemplatesModule -->
<g id="edge47" class="edge">
<title>TemplateFullWidthComponent&#45;&gt;TemplatesModule</title>
<path fill="none" stroke="black" d="M3873,-161.68C3873,-138.34 3873,-101 3873,-101 3873,-101 2396.19,-101 2396.19,-101"/>
<polygon fill="black" stroke="black" points="2396.19,-97.5 2386.19,-101 2396.19,-104.5 2396.19,-97.5"/>
</g>
<!-- Ui2Component -->
<g id="node54" class="node">
<title>Ui2Component</title>
<polygon fill="#ffffb3" stroke="black" points="6449.33,-122 6346.67,-122 6346.67,-86 6449.33,-86 6449.33,-122"/>
<text text-anchor="middle" x="6398" y="-99.8" font-family="Times,serif" font-size="14.00">Ui2Component</text>
</g>
<!-- UiModule -->
<g id="node56" class="node">
<title>UiModule</title>
<polygon fill="#8dd3c7" stroke="black" points="6317.55,-198 6314.55,-202 6293.55,-202 6290.55,-198 6244.45,-198 6244.45,-162 6317.55,-162 6317.55,-198"/>
<text text-anchor="middle" x="6281" y="-175.8" font-family="Times,serif" font-size="14.00">UiModule</text>
</g>
<!-- Ui2Component&#45;&gt;UiModule -->
<g id="edge50" class="edge">
<title>Ui2Component&#45;&gt;UiModule</title>
<path fill="none" stroke="black" d="M6415.05,-122.03C6415.05,-142.77 6415.05,-174 6415.05,-174 6415.05,-174 6327.63,-174 6327.63,-174"/>
<polygon fill="black" stroke="black" points="6327.63,-170.5 6317.63,-174 6327.63,-177.5 6327.63,-170.5"/>
</g>
<!-- UiComponent -->
<g id="node55" class="node">
<title>UiComponent</title>
<polygon fill="#ffffb3" stroke="black" points="6328.83,-122 6233.17,-122 6233.17,-86 6328.83,-86 6328.83,-122"/>
<text text-anchor="middle" x="6281" y="-99.8" font-family="Times,serif" font-size="14.00">UiComponent</text>
</g>
<!-- UiComponent&#45;&gt;UiModule -->
<g id="edge51" class="edge">
<title>UiComponent&#45;&gt;UiModule</title>
<path fill="none" stroke="black" d="M6281,-122.01C6281,-122.01 6281,-151.85 6281,-151.85"/>
<polygon fill="black" stroke="black" points="6277.5,-151.85 6281,-161.85 6284.5,-151.85 6277.5,-151.85"/>
</g>
<!-- Ui2Component  -->
<g id="node57" class="node">
<title>Ui2Component </title>
<polygon fill="#fb8072" stroke="black" points="6451.83,-274 6346.17,-274 6346.17,-238 6451.83,-238 6451.83,-274"/>
<text text-anchor="middle" x="6399" y="-251.8" font-family="Times,serif" font-size="14.00">Ui2Component </text>
</g>
<!-- UiModule&#45;&gt;Ui2Component  -->
<g id="edge52" class="edge">
<title>UiModule&#45;&gt;Ui2Component </title>
<path fill="none" stroke="black" stroke-dasharray="5,2" d="M6317.65,-186C6346.17,-186 6380.95,-186 6380.95,-186 6380.95,-186 6380.95,-227.97 6380.95,-227.97"/>
<polygon fill="black" stroke="black" points="6377.45,-227.97 6380.95,-237.97 6384.45,-227.97 6377.45,-227.97"/>
</g>
<!-- UiComponent  -->
<g id="node58" class="node">
<title>UiComponent </title>
<polygon fill="#fb8072" stroke="black" points="6328.33,-274 6229.67,-274 6229.67,-238 6328.33,-238 6328.33,-274"/>
<text text-anchor="middle" x="6279" y="-251.8" font-family="Times,serif" font-size="14.00">UiComponent </text>
</g>
<!-- UiModule&#45;&gt;UiComponent  -->
<g id="edge53" class="edge">
<title>UiModule&#45;&gt;UiComponent </title>
<path fill="none" stroke="black" stroke-dasharray="5,2" d="M6281,-198.01C6281,-198.01 6281,-227.85 6281,-227.85"/>
<polygon fill="black" stroke="black" points="6277.5,-227.85 6281,-237.85 6284.5,-227.85 6277.5,-227.85"/>
</g>
</g>
</svg>
