<?xml version="1.0" encoding="UTF-8" standalone="no"?>
<!DOCTYPE svg PUBLIC "-//W3C//DTD SVG 1.1//EN"
 "http://www.w3.org/Graphics/SVG/1.1/DTD/svg11.dtd">
<!-- Generated by graphviz version 2.47.0 (20210316.0004)
 -->
<!-- Title: dependencies Pages: 1 -->
<svg width="4751pt" height="355pt"
 viewBox="0.00 0.00 4751.00 355.00" xmlns="http://www.w3.org/2000/svg" xmlns:xlink="http://www.w3.org/1999/xlink">
<g id="graph0" class="graph" transform="scale(1 1) rotate(0) translate(4 351)">
<title>dependencies</title>
<polygon fill="white" stroke="transparent" points="-4,4 -4,-351 4747,-351 4747,4 -4,4"/>
<text text-anchor="start" x="2350.51" y="-42.4" font-family="sans-serif" font-weight="bold" font-size="14.00">Legend</text>
<polygon fill="#ffffb3" stroke="transparent" points="2137.5,-10 2137.5,-30 2157.5,-30 2157.5,-10 2137.5,-10"/>
<text text-anchor="start" x="2161.13" y="-15.4" font-family="sans-serif" font-size="14.00"> &#160;Declarations</text>
<polygon fill="#8dd3c7" stroke="transparent" points="2250.5,-10 2250.5,-30 2270.5,-30 2270.5,-10 2250.5,-10"/>
<text text-anchor="start" x="2274.23" y="-15.4" font-family="sans-serif" font-size="14.00"> &#160;Module</text>
<polygon fill="#80b1d3" stroke="transparent" points="2336.5,-10 2336.5,-30 2356.5,-30 2356.5,-10 2336.5,-10"/>
<text text-anchor="start" x="2360.28" y="-15.4" font-family="sans-serif" font-size="14.00"> &#160;Bootstrap</text>
<polygon fill="#fdb462" stroke="transparent" points="2433.5,-10 2433.5,-30 2453.5,-30 2453.5,-10 2433.5,-10"/>
<text text-anchor="start" x="2457.17" y="-15.4" font-family="sans-serif" font-size="14.00"> &#160;Providers</text>
<polygon fill="#fb8072" stroke="transparent" points="2529.5,-10 2529.5,-30 2549.5,-30 2549.5,-10 2529.5,-10"/>
<text text-anchor="start" x="2553.23" y="-15.4" font-family="sans-serif" font-size="14.00"> &#160;Exports</text>
<g id="clust29" class="cluster">
<title>cluster_CoreModule</title>
<polygon fill="none" stroke="black" stroke-dasharray="1,5" points="306,-70 306,-271 1075,-271 1075,-70 306,-70"/>
</g>
<g id="clust30" class="cluster">
<title>cluster_CoreModule_declarations</title>
<polygon fill="none" stroke="black" points="420,-78 420,-130 816,-130 816,-78 420,-78"/>
</g>
<g id="clust35" class="cluster">
<title>cluster_CoreModule_exports</title>
<polygon fill="none" stroke="black" points="314,-211 314,-263 1067,-263 1067,-211 314,-211"/>
</g>
<g id="clust14" class="cluster">
<title>cluster_ClientsModule</title>
<polygon fill="none" stroke="black" stroke-dasharray="1,5" points="1083,-70 1083,-198 1833,-198 1833,-70 1083,-70"/>
</g>
<g id="clust19" class="cluster">
<title>cluster_ClientsModule_imports</title>
<polygon fill="none" stroke="black" points="1665,-78 1665,-130 1825,-130 1825,-78 1665,-78"/>
</g>
<g id="clust15" class="cluster">
<title>cluster_ClientsModule_declarations</title>
<polygon fill="none" stroke="black" points="1091,-78 1091,-130 1657,-130 1657,-78 1091,-78"/>
</g>
<g id="clust38" class="cluster">
<title>cluster_IconsModule</title>
<polygon fill="none" stroke="black" stroke-dasharray="1,5" points="1841,-70 1841,-271 2482,-271 2482,-70 1841,-70"/>
</g>
<g id="clust39" class="cluster">
<title>cluster_IconsModule_declarations</title>
<polygon fill="none" stroke="black" points="1858,-78 1858,-130 2468,-130 2468,-78 1858,-78"/>
</g>
<g id="clust45" class="cluster">
<title>cluster_IconsModule_exports</title>
<polygon fill="none" stroke="black" points="1849,-211 1849,-263 2474,-263 2474,-211 1849,-211"/>
</g>
<g id="clust48" class="cluster">
<title>cluster_LoginModule</title>
<polygon fill="none" stroke="black" stroke-dasharray="1,5" points="2490,-70 2490,-198 3429,-198 3429,-70 2490,-70"/>
</g>
<g id="clust54" class="cluster">
<title>cluster_LoginModule_imports</title>
<polygon fill="none" stroke="black" points="3267,-78 3267,-130 3421,-130 3421,-78 3267,-78"/>
</g>
<g id="clust49" class="cluster">
<title>cluster_LoginModule_declarations</title>
<polygon fill="none" stroke="black" points="2498,-78 2498,-130 3259,-130 3259,-78 2498,-78"/>
</g>
<g id="clust1" class="cluster">
<title>cluster_AppModule</title>
<polygon fill="none" stroke="black" stroke-dasharray="1,5" points="8,-138 8,-339 298,-339 298,-138 8,-138"/>
</g>
<g id="clust4" class="cluster">
<title>cluster_AppModule_imports</title>
<polygon fill="none" stroke="black" points="146,-146 146,-198 290,-198 290,-146 146,-146"/>
</g>
<g id="clust2" class="cluster">
<title>cluster_AppModule_declarations</title>
<polygon fill="none" stroke="black" points="16,-146 16,-198 138,-198 138,-146 16,-146"/>
</g>
<g id="clust6" class="cluster">
<title>cluster_AppModule_bootstrap</title>
<polygon fill="none" stroke="black" points="156,-279 156,-331 280,-331 280,-279 156,-279"/>
</g>
<g id="clust64" class="cluster">
<title>cluster_OrdersModule</title>
<polygon fill="none" stroke="black" stroke-dasharray="1,5" points="3437,-70 3437,-198 4179,-198 4179,-70 3437,-70"/>
</g>
<g id="clust65" class="cluster">
<title>cluster_OrdersModule_declarations</title>
<polygon fill="none" stroke="black" points="3611,-78 3611,-130 4171,-130 4171,-78 3611,-78"/>
</g>
<g id="clust69" class="cluster">
<title>cluster_OrdersModule_imports</title>
<polygon fill="none" stroke="black" points="3445,-78 3445,-130 3603,-130 3603,-78 3445,-78"/>
</g>
<g id="clust79" class="cluster">
<title>cluster_PageNotFoundModule</title>
<polygon fill="none" stroke="black" stroke-dasharray="1,5" points="4187,-70 4187,-198 4597,-198 4597,-70 4187,-70"/>
</g>
<g id="clust80" class="cluster">
<title>cluster_PageNotFoundModule_declarations</title>
<polygon fill="none" stroke="black" points="4407,-78 4407,-130 4589,-130 4589,-78 4407,-78"/>
</g>
<g id="clust82" class="cluster">
<title>cluster_PageNotFoundModule_imports</title>
<polygon fill="none" stroke="black" points="4195,-78 4195,-130 4399,-130 4399,-78 4195,-78"/>
</g>
<g id="clust104" class="cluster">
<title>cluster_UiModule</title>
<polygon fill="none" stroke="black" stroke-dasharray="1,5" points="4605,-70 4605,-271 4735,-271 4735,-70 4605,-70"/>
</g>
<g id="clust108" class="cluster">
<title>cluster_UiModule_exports</title>
<polygon fill="none" stroke="black" points="4613,-211 4613,-263 4727,-263 4727,-211 4613,-211"/>
</g>
<g id="clust105" class="cluster">
<title>cluster_UiModule_declarations</title>
<polygon fill="none" stroke="black" points="4614,-78 4614,-130 4726,-130 4726,-78 4614,-78"/>
</g>
<!-- AppComponent -->
<g id="node1" class="node">
<title>AppComponent</title>
<polygon fill="#ffffb3" stroke="black" points="129.94,-190 24.06,-190 24.06,-154 129.94,-154 129.94,-190"/>
<text text-anchor="middle" x="77" y="-167.8" font-family="Times,serif" font-size="14.00">AppComponent</text>
</g>
<!-- AppModule -->
<g id="node2" class="node">
<title>AppModule</title>
<polygon fill="#8dd3c7" stroke="black" points="259.66,-255 256.66,-259 235.66,-259 232.66,-255 176.34,-255 176.34,-219 259.66,-219 259.66,-255"/>
<text text-anchor="middle" x="218" y="-232.8" font-family="Times,serif" font-size="14.00">AppModule</text>
</g>
<!-- AppComponent&#45;&gt;AppModule -->
<g id="edge1" class="edge">
<title>AppComponent&#45;&gt;AppModule</title>
<path fill="none" stroke="black" d="M77,-190.11C77,-209.34 77,-237 77,-237 77,-237 166.08,-237 166.08,-237"/>
<polygon fill="black" stroke="black" points="166.08,-240.5 176.08,-237 166.08,-233.5 166.08,-240.5"/>
</g>
<!-- AppComponent  -->
<g id="node5" class="node">
<title>AppComponent </title>
<polygon fill="#80b1d3" stroke="black" points="272.44,-323 163.56,-323 163.56,-287 272.44,-287 272.44,-323"/>
<text text-anchor="middle" x="218" y="-300.8" font-family="Times,serif" font-size="14.00">AppComponent </text>
</g>
<!-- AppModule&#45;&gt;AppComponent  -->
<g id="edge4" class="edge">
<title>AppModule&#45;&gt;AppComponent </title>
<path fill="none" stroke="black" stroke-dasharray="1,5" d="M218,-255.22C218,-255.22 218,-276.73 218,-276.73"/>
<polygon fill="black" stroke="black" points="214.5,-276.73 218,-286.73 221.5,-276.73 214.5,-276.73"/>
</g>
<!-- AppRoutingModule -->
<g id="node3" class="node">
<title>AppRoutingModule</title>
<polygon fill="#8dd3c7" stroke="black" points="282.27,-190 279.27,-194 258.27,-194 255.27,-190 153.73,-190 153.73,-154 282.27,-154 282.27,-190"/>
<text text-anchor="middle" x="218" y="-167.8" font-family="Times,serif" font-size="14.00">AppRoutingModule</text>
</g>
<!-- AppRoutingModule&#45;&gt;AppModule -->
<g id="edge2" class="edge">
<title>AppRoutingModule&#45;&gt;AppModule</title>
<path fill="none" stroke="black" d="M218,-190.11C218,-190.11 218,-208.99 218,-208.99"/>
<polygon fill="black" stroke="black" points="214.5,-208.99 218,-218.99 221.5,-208.99 214.5,-208.99"/>
</g>
<!-- CoreModule -->
<g id="node4" class="node">
<title>CoreModule</title>
<polygon fill="#8dd3c7" stroke="black" points="654.26,-190 651.26,-194 630.26,-194 627.26,-190 567.74,-190 567.74,-154 654.26,-154 654.26,-190"/>
<text text-anchor="middle" x="611" y="-167.8" font-family="Times,serif" font-size="14.00">CoreModule</text>
</g>
<!-- CoreModule&#45;&gt;AppModule -->
<g id="edge3" class="edge">
<title>CoreModule&#45;&gt;AppModule</title>
<path fill="none" stroke="black" d="M567.44,-169C482.39,-169 302.43,-169 302.43,-169 302.43,-169 302.43,-237 302.43,-237 302.43,-237 269.72,-237 269.72,-237"/>
<polygon fill="black" stroke="black" points="269.72,-233.5 259.72,-237 269.72,-240.5 269.72,-233.5"/>
</g>
<!-- FooterComponent  -->
<g id="node14" class="node">
<title>FooterComponent </title>
<polygon fill="#fb8072" stroke="black" points="1058.88,-255 937.12,-255 937.12,-219 1058.88,-219 1058.88,-255"/>
<text text-anchor="middle" x="998" y="-232.8" font-family="Times,serif" font-size="14.00">FooterComponent </text>
</g>
<!-- CoreModule&#45;&gt;FooterComponent  -->
<g id="edge12" class="edge">
<title>CoreModule&#45;&gt;FooterComponent </title>
<path fill="none" stroke="black" stroke-dasharray="5,2" d="M654.27,-172C755.25,-172 998,-172 998,-172 998,-172 998,-208.89 998,-208.89"/>
<polygon fill="black" stroke="black" points="994.5,-208.89 998,-218.89 1001.5,-208.89 994.5,-208.89"/>
</g>
<!-- HeaderComponent  -->
<g id="node15" class="node">
<title>HeaderComponent </title>
<polygon fill="#fb8072" stroke="black" points="919.74,-255 794.26,-255 794.26,-219 919.74,-219 919.74,-255"/>
<text text-anchor="middle" x="857" y="-232.8" font-family="Times,serif" font-size="14.00">HeaderComponent </text>
</g>
<!-- CoreModule&#45;&gt;HeaderComponent  -->
<g id="edge13" class="edge">
<title>CoreModule&#45;&gt;HeaderComponent </title>
<path fill="none" stroke="black" stroke-dasharray="5,2" d="M654.63,-178C710.77,-178 801.16,-178 801.16,-178 801.16,-178 801.16,-208.98 801.16,-208.98"/>
<polygon fill="black" stroke="black" points="797.66,-208.98 801.16,-218.98 804.66,-208.98 797.66,-208.98"/>
</g>
<!-- IconsModule  -->
<g id="node16" class="node">
<title>IconsModule </title>
<polygon fill="#fb8072" stroke="black" points="776.87,-255 683.13,-255 683.13,-219 776.87,-219 776.87,-255"/>
<text text-anchor="middle" x="730" y="-232.8" font-family="Times,serif" font-size="14.00">IconsModule </text>
</g>
<!-- CoreModule&#45;&gt;IconsModule  -->
<g id="edge14" class="edge">
<title>CoreModule&#45;&gt;IconsModule </title>
<path fill="none" stroke="black" stroke-dasharray="5,2" d="M654.29,-184C694.37,-184 747.81,-184 747.81,-184 747.81,-184 747.81,-208.76 747.81,-208.76"/>
<polygon fill="black" stroke="black" points="744.31,-208.76 747.81,-218.76 751.31,-208.76 744.31,-208.76"/>
</g>
<!-- NavComponent  -->
<g id="node17" class="node">
<title>NavComponent </title>
<polygon fill="#fb8072" stroke="black" points="665.15,-255 556.85,-255 556.85,-219 665.15,-219 665.15,-255"/>
<text text-anchor="middle" x="611" y="-232.8" font-family="Times,serif" font-size="14.00">NavComponent </text>
</g>
<!-- CoreModule&#45;&gt;NavComponent  -->
<g id="edge15" class="edge">
<title>CoreModule&#45;&gt;NavComponent </title>
<path fill="none" stroke="black" stroke-dasharray="5,2" d="M611,-190.11C611,-190.11 611,-208.99 611,-208.99"/>
<polygon fill="black" stroke="black" points="607.5,-208.99 611,-218.99 614.5,-208.99 607.5,-208.99"/>
</g>
<!-- TemplatesModule  -->
<g id="node18" class="node">
<title>TemplatesModule </title>
<polygon fill="#fb8072" stroke="black" points="538.86,-255 417.14,-255 417.14,-219 538.86,-219 538.86,-255"/>
<text text-anchor="middle" x="478" y="-232.8" font-family="Times,serif" font-size="14.00">TemplatesModule </text>
</g>
<!-- CoreModule&#45;&gt;TemplatesModule  -->
<g id="edge16" class="edge">
<title>CoreModule&#45;&gt;TemplatesModule </title>
<path fill="none" stroke="black" stroke-dasharray="5,2" d="M567.67,-183C523.85,-183 462.56,-183 462.56,-183 462.56,-183 462.56,-208.72 462.56,-208.72"/>
<polygon fill="black" stroke="black" points="459.06,-208.72 462.56,-218.72 466.06,-208.72 459.06,-208.72"/>
</g>
<!-- UiModule  -->
<g id="node19" class="node">
<title>UiModule </title>
<polygon fill="#fb8072" stroke="black" points="399.55,-255 322.45,-255 322.45,-219 399.55,-219 399.55,-255"/>
<text text-anchor="middle" x="361" y="-232.8" font-family="Times,serif" font-size="14.00">UiModule </text>
</g>
<!-- CoreModule&#45;&gt;UiModule  -->
<g id="edge17" class="edge">
<title>CoreModule&#45;&gt;UiModule </title>
<path fill="none" stroke="black" stroke-dasharray="5,2" d="M567.45,-176C495.83,-176 361,-176 361,-176 361,-176 361,-208.7 361,-208.7"/>
<polygon fill="black" stroke="black" points="357.5,-208.7 361,-218.7 364.5,-208.7 357.5,-208.7"/>
</g>
<!-- PageAddClientsComponent -->
<g id="node6" class="node">
<title>PageAddClientsComponent</title>
<polygon fill="#ffffb3" stroke="black" points="1649.32,-122 1476.68,-122 1476.68,-86 1649.32,-86 1649.32,-122"/>
<text text-anchor="middle" x="1563" y="-99.8" font-family="Times,serif" font-size="14.00">PageAddClientsComponent</text>
</g>
<!-- ClientsModule -->
<g id="node9" class="node">
<title>ClientsModule</title>
<polygon fill="#8dd3c7" stroke="black" points="1517.72,-190 1514.72,-194 1493.72,-194 1490.72,-190 1418.28,-190 1418.28,-154 1517.72,-154 1517.72,-190"/>
<text text-anchor="middle" x="1468" y="-167.8" font-family="Times,serif" font-size="14.00">ClientsModule</text>
</g>
<!-- PageAddClientsComponent&#45;&gt;ClientsModule -->
<g id="edge5" class="edge">
<title>PageAddClientsComponent&#45;&gt;ClientsModule</title>
<path fill="none" stroke="black" d="M1497.22,-122.22C1497.22,-122.22 1497.22,-143.73 1497.22,-143.73"/>
<polygon fill="black" stroke="black" points="1493.72,-143.73 1497.22,-153.73 1500.72,-143.73 1493.72,-143.73"/>
</g>
<!-- PageEditClientsComponent -->
<g id="node7" class="node">
<title>PageEditClientsComponent</title>
<polygon fill="#ffffb3" stroke="black" points="1458.55,-122 1287.45,-122 1287.45,-86 1458.55,-86 1458.55,-122"/>
<text text-anchor="middle" x="1373" y="-99.8" font-family="Times,serif" font-size="14.00">PageEditClientsComponent</text>
</g>
<!-- PageEditClientsComponent&#45;&gt;ClientsModule -->
<g id="edge6" class="edge">
<title>PageEditClientsComponent&#45;&gt;ClientsModule</title>
<path fill="none" stroke="black" d="M1438.58,-122.22C1438.58,-122.22 1438.58,-143.73 1438.58,-143.73"/>
<polygon fill="black" stroke="black" points="1435.08,-143.73 1438.58,-153.73 1442.08,-143.73 1435.08,-143.73"/>
</g>
<!-- PageListClientsComponent -->
<g id="node8" class="node">
<title>PageListClientsComponent</title>
<polygon fill="#ffffb3" stroke="black" points="1268.99,-122 1099.01,-122 1099.01,-86 1268.99,-86 1268.99,-122"/>
<text text-anchor="middle" x="1184" y="-99.8" font-family="Times,serif" font-size="14.00">PageListClientsComponent</text>
</g>
<!-- PageListClientsComponent&#45;&gt;ClientsModule -->
<g id="edge7" class="edge">
<title>PageListClientsComponent&#45;&gt;ClientsModule</title>
<path fill="none" stroke="black" d="M1184,-122.03C1184,-138.4 1184,-160 1184,-160 1184,-160 1408.21,-160 1408.21,-160"/>
<polygon fill="black" stroke="black" points="1408.21,-163.5 1418.21,-160 1408.21,-156.5 1408.21,-163.5"/>
</g>
<!-- ClientsRoutingModule -->
<g id="node10" class="node">
<title>ClientsRoutingModule</title>
<polygon fill="#8dd3c7" stroke="black" points="1817.34,-122 1814.34,-126 1793.34,-126 1790.34,-122 1672.66,-122 1672.66,-86 1817.34,-86 1817.34,-122"/>
<text text-anchor="middle" x="1745" y="-99.8" font-family="Times,serif" font-size="14.00">ClientsRoutingModule</text>
</g>
<!-- ClientsRoutingModule&#45;&gt;ClientsModule -->
<g id="edge8" class="edge">
<title>ClientsRoutingModule&#45;&gt;ClientsModule</title>
<path fill="none" stroke="black" d="M1745,-122.02C1745,-139.37 1745,-163 1745,-163 1745,-163 1527.84,-163 1527.84,-163"/>
<polygon fill="black" stroke="black" points="1527.84,-159.5 1517.84,-163 1527.84,-166.5 1527.84,-159.5"/>
</g>
<!-- FooterComponent -->
<g id="node11" class="node">
<title>FooterComponent</title>
<polygon fill="#ffffb3" stroke="black" points="807.88,-122 690.12,-122 690.12,-86 807.88,-86 807.88,-122"/>
<text text-anchor="middle" x="749" y="-99.8" font-family="Times,serif" font-size="14.00">FooterComponent</text>
</g>
<!-- FooterComponent&#45;&gt;CoreModule -->
<g id="edge9" class="edge">
<title>FooterComponent&#45;&gt;CoreModule</title>
<path fill="none" stroke="black" d="M718.93,-122.27C718.93,-140.56 718.93,-166 718.93,-166 718.93,-166 664.28,-166 664.28,-166"/>
<polygon fill="black" stroke="black" points="664.28,-162.5 654.28,-166 664.28,-169.5 664.28,-162.5"/>
</g>
<!-- HeaderComponent -->
<g id="node12" class="node">
<title>HeaderComponent</title>
<polygon fill="#ffffb3" stroke="black" points="671.74,-122 550.26,-122 550.26,-86 671.74,-86 671.74,-122"/>
<text text-anchor="middle" x="611" y="-99.8" font-family="Times,serif" font-size="14.00">HeaderComponent</text>
</g>
<!-- HeaderComponent&#45;&gt;CoreModule -->
<g id="edge10" class="edge">
<title>HeaderComponent&#45;&gt;CoreModule</title>
<path fill="none" stroke="black" d="M611,-122.22C611,-122.22 611,-143.73 611,-143.73"/>
<polygon fill="black" stroke="black" points="607.5,-143.73 611,-153.73 614.5,-143.73 607.5,-143.73"/>
</g>
<!-- NavComponent -->
<g id="node13" class="node">
<title>NavComponent</title>
<polygon fill="#ffffb3" stroke="black" points="532.15,-122 427.85,-122 427.85,-86 532.15,-86 532.15,-122"/>
<text text-anchor="middle" x="480" y="-99.8" font-family="Times,serif" font-size="14.00">NavComponent</text>
</g>
<!-- NavComponent&#45;&gt;CoreModule -->
<g id="edge11" class="edge">
<title>NavComponent&#45;&gt;CoreModule</title>
<path fill="none" stroke="black" d="M497.44,-122.03C497.44,-139.06 497.44,-162 497.44,-162 497.44,-162 557.42,-162 557.42,-162"/>
<polygon fill="black" stroke="black" points="557.42,-165.5 567.42,-162 557.42,-158.5 557.42,-165.5"/>
</g>
<!-- IconCloseComponent -->
<g id="node20" class="node">
<title>IconCloseComponent</title>
<polygon fill="#ffffb3" stroke="black" points="2460.09,-122 2321.91,-122 2321.91,-86 2460.09,-86 2460.09,-122"/>
<text text-anchor="middle" x="2391" y="-99.8" font-family="Times,serif" font-size="14.00">IconCloseComponent</text>
</g>
<!-- IconsModule -->
<g id="node24" class="node">
<title>IconsModule</title>
<polygon fill="#8dd3c7" stroke="black" points="2125.87,-190 2122.87,-194 2101.87,-194 2098.87,-190 2036.13,-190 2036.13,-154 2125.87,-154 2125.87,-190"/>
<text text-anchor="middle" x="2081" y="-167.8" font-family="Times,serif" font-size="14.00">IconsModule</text>
</g>
<!-- IconCloseComponent&#45;&gt;IconsModule -->
<g id="edge18" class="edge">
<title>IconCloseComponent&#45;&gt;IconsModule</title>
<path fill="none" stroke="black" d="M2414.77,-122.28C2414.77,-143.32 2414.77,-175 2414.77,-175 2414.77,-175 2136.01,-175 2136.01,-175"/>
<polygon fill="black" stroke="black" points="2136.01,-171.5 2126.01,-175 2136.01,-178.5 2136.01,-171.5"/>
</g>
<!-- IconDeleteComponent -->
<g id="node21" class="node">
<title>IconDeleteComponent</title>
<polygon fill="#ffffb3" stroke="black" points="2304.24,-122 2161.76,-122 2161.76,-86 2304.24,-86 2304.24,-122"/>
<text text-anchor="middle" x="2233" y="-99.8" font-family="Times,serif" font-size="14.00">IconDeleteComponent</text>
</g>
<!-- IconDeleteComponent&#45;&gt;IconsModule -->
<g id="edge19" class="edge">
<title>IconDeleteComponent&#45;&gt;IconsModule</title>
<path fill="none" stroke="black" d="M2209.21,-122.03C2209.21,-141.58 2209.21,-170 2209.21,-170 2209.21,-170 2136.2,-170 2136.2,-170"/>
<polygon fill="black" stroke="black" points="2136.2,-166.5 2126.2,-170 2136.2,-173.5 2136.2,-166.5"/>
</g>
<!-- IconEditComponent -->
<g id="node22" class="node">
<title>IconEditComponent</title>
<polygon fill="#ffffb3" stroke="black" points="2143.54,-122 2014.46,-122 2014.46,-86 2143.54,-86 2143.54,-122"/>
<text text-anchor="middle" x="2079" y="-99.8" font-family="Times,serif" font-size="14.00">IconEditComponent</text>
</g>
<!-- IconEditComponent&#45;&gt;IconsModule -->
<g id="edge20" class="edge">
<title>IconEditComponent&#45;&gt;IconsModule</title>
<path fill="none" stroke="black" d="M2081,-122.22C2081,-122.22 2081,-143.73 2081,-143.73"/>
<polygon fill="black" stroke="black" points="2077.5,-143.73 2081,-153.73 2084.5,-143.73 2077.5,-143.73"/>
</g>
<!-- IconNavComponent -->
<g id="node23" class="node">
<title>IconNavComponent</title>
<polygon fill="#ffffb3" stroke="black" points="1995.53,-122 1866.47,-122 1866.47,-86 1995.53,-86 1995.53,-122"/>
<text text-anchor="middle" x="1931" y="-99.8" font-family="Times,serif" font-size="14.00">IconNavComponent</text>
</g>
<!-- IconNavComponent&#45;&gt;IconsModule -->
<g id="edge21" class="edge">
<title>IconNavComponent&#45;&gt;IconsModule</title>
<path fill="none" stroke="black" d="M1949.09,-122.22C1949.09,-142.37 1949.09,-172 1949.09,-172 1949.09,-172 2025.97,-172 2025.97,-172"/>
<polygon fill="black" stroke="black" points="2025.97,-175.5 2035.97,-172 2025.97,-168.5 2025.97,-175.5"/>
</g>
<!-- IconCloseComponent  -->
<g id="node25" class="node">
<title>IconCloseComponent </title>
<polygon fill="#fb8072" stroke="black" points="2465.59,-255 2324.41,-255 2324.41,-219 2465.59,-219 2465.59,-255"/>
<text text-anchor="middle" x="2395" y="-232.8" font-family="Times,serif" font-size="14.00">IconCloseComponent </text>
</g>
<!-- IconsModule&#45;&gt;IconCloseComponent  -->
<g id="edge22" class="edge">
<title>IconsModule&#45;&gt;IconCloseComponent </title>
<path fill="none" stroke="black" stroke-dasharray="5,2" d="M2126.08,-180C2207.21,-180 2369.48,-180 2369.48,-180 2369.48,-180 2369.48,-208.96 2369.48,-208.96"/>
<polygon fill="black" stroke="black" points="2365.98,-208.96 2369.48,-218.96 2372.98,-208.96 2365.98,-208.96"/>
</g>
<!-- IconDeleteComponent  -->
<g id="node26" class="node">
<title>IconDeleteComponent </title>
<polygon fill="#fb8072" stroke="black" points="2306.24,-255 2159.76,-255 2159.76,-219 2306.24,-219 2306.24,-255"/>
<text text-anchor="middle" x="2233" y="-232.8" font-family="Times,serif" font-size="14.00">IconDeleteComponent </text>
</g>
<!-- IconsModule&#45;&gt;IconDeleteComponent  -->
<g id="edge23" class="edge">
<title>IconsModule&#45;&gt;IconDeleteComponent </title>
<path fill="none" stroke="black" stroke-dasharray="5,2" d="M2126.27,-185C2178.36,-185 2256.79,-185 2256.79,-185 2256.79,-185 2256.79,-208.81 2256.79,-208.81"/>
<polygon fill="black" stroke="black" points="2253.29,-208.81 2256.79,-218.81 2260.29,-208.81 2253.29,-208.81"/>
</g>
<!-- IconEditComponent  -->
<g id="node27" class="node">
<title>IconEditComponent </title>
<polygon fill="#fb8072" stroke="black" points="2141.54,-255 2008.46,-255 2008.46,-219 2141.54,-219 2141.54,-255"/>
<text text-anchor="middle" x="2075" y="-232.8" font-family="Times,serif" font-size="14.00">IconEditComponent </text>
</g>
<!-- IconsModule&#45;&gt;IconEditComponent  -->
<g id="edge24" class="edge">
<title>IconsModule&#45;&gt;IconEditComponent </title>
<path fill="none" stroke="black" stroke-dasharray="5,2" d="M2081,-190.11C2081,-190.11 2081,-208.99 2081,-208.99"/>
<polygon fill="black" stroke="black" points="2077.5,-208.99 2081,-218.99 2084.5,-208.99 2077.5,-208.99"/>
</g>
<!-- IconNavComponent  -->
<g id="node28" class="node">
<title>IconNavComponent </title>
<polygon fill="#fb8072" stroke="black" points="1990.53,-255 1857.47,-255 1857.47,-219 1990.53,-219 1990.53,-255"/>
<text text-anchor="middle" x="1924" y="-232.8" font-family="Times,serif" font-size="14.00">IconNavComponent </text>
</g>
<!-- IconsModule&#45;&gt;IconNavComponent  -->
<g id="edge25" class="edge">
<title>IconsModule&#45;&gt;IconNavComponent </title>
<path fill="none" stroke="black" stroke-dasharray="5,2" d="M2035.91,-181C1984.55,-181 1907.66,-181 1907.66,-181 1907.66,-181 1907.66,-208.97 1907.66,-208.97"/>
<polygon fill="black" stroke="black" points="1904.16,-208.97 1907.66,-218.97 1911.16,-208.97 1904.16,-208.97"/>
</g>
<!-- PageForgotPasswordComponent -->
<g id="node29" class="node">
<title>PageForgotPasswordComponent</title>
<polygon fill="#ffffb3" stroke="black" points="3250.53,-122 3051.47,-122 3051.47,-86 3250.53,-86 3250.53,-122"/>
<text text-anchor="middle" x="3151" y="-99.8" font-family="Times,serif" font-size="14.00">PageForgotPasswordComponent</text>
</g>
<!-- LoginModule -->
<g id="node33" class="node">
<title>LoginModule</title>
<polygon fill="#8dd3c7" stroke="black" points="2983.49,-190 2980.49,-194 2959.49,-194 2956.49,-190 2890.51,-190 2890.51,-154 2983.49,-154 2983.49,-190"/>
<text text-anchor="middle" x="2937" y="-167.8" font-family="Times,serif" font-size="14.00">LoginModule</text>
</g>
<!-- PageForgotPasswordComponent&#45;&gt;LoginModule -->
<g id="edge26" class="edge">
<title>PageForgotPasswordComponent&#45;&gt;LoginModule</title>
<path fill="none" stroke="black" d="M3151,-122.22C3151,-142.37 3151,-172 3151,-172 3151,-172 2993.7,-172 2993.7,-172"/>
<polygon fill="black" stroke="black" points="2993.7,-168.5 2983.7,-172 2993.7,-175.5 2993.7,-168.5"/>
</g>
<!-- PageResetPasswordComponent -->
<g id="node30" class="node">
<title>PageResetPasswordComponent</title>
<polygon fill="#ffffb3" stroke="black" points="3033.8,-122 2840.2,-122 2840.2,-86 3033.8,-86 3033.8,-122"/>
<text text-anchor="middle" x="2937" y="-99.8" font-family="Times,serif" font-size="14.00">PageResetPasswordComponent</text>
</g>
<!-- PageResetPasswordComponent&#45;&gt;LoginModule -->
<g id="edge27" class="edge">
<title>PageResetPasswordComponent&#45;&gt;LoginModule</title>
<path fill="none" stroke="black" d="M2937,-122.22C2937,-122.22 2937,-143.73 2937,-143.73"/>
<polygon fill="black" stroke="black" points="2933.5,-143.73 2937,-153.73 2940.5,-143.73 2933.5,-143.73"/>
</g>
<!-- PageSignInComponent -->
<g id="node31" class="node">
<title>PageSignInComponent</title>
<polygon fill="#ffffb3" stroke="black" points="2821.88,-122 2676.12,-122 2676.12,-86 2821.88,-86 2821.88,-122"/>
<text text-anchor="middle" x="2749" y="-99.8" font-family="Times,serif" font-size="14.00">PageSignInComponent</text>
</g>
<!-- PageSignInComponent&#45;&gt;LoginModule -->
<g id="edge28" class="edge">
<title>PageSignInComponent&#45;&gt;LoginModule</title>
<path fill="none" stroke="black" d="M2749,-122.03C2749,-138.4 2749,-160 2749,-160 2749,-160 2880.04,-160 2880.04,-160"/>
<polygon fill="black" stroke="black" points="2880.04,-163.5 2890.04,-160 2880.04,-156.5 2880.04,-163.5"/>
</g>
<!-- PageSignUpComponent -->
<g id="node32" class="node">
<title>PageSignUpComponent</title>
<polygon fill="#ffffb3" stroke="black" points="2657.82,-122 2506.18,-122 2506.18,-86 2657.82,-86 2657.82,-122"/>
<text text-anchor="middle" x="2582" y="-99.8" font-family="Times,serif" font-size="14.00">PageSignUpComponent</text>
</g>
<!-- PageSignUpComponent&#45;&gt;LoginModule -->
<g id="edge29" class="edge">
<title>PageSignUpComponent&#45;&gt;LoginModule</title>
<path fill="none" stroke="black" d="M2582,-122.3C2582,-140.27 2582,-165 2582,-165 2582,-165 2880.22,-165 2880.22,-165"/>
<polygon fill="black" stroke="black" points="2880.22,-168.5 2890.22,-165 2880.22,-161.5 2880.22,-168.5"/>
</g>
<!-- LoginRoutingModule -->
<g id="node34" class="node">
<title>LoginRoutingModule</title>
<polygon fill="#8dd3c7" stroke="black" points="3413.11,-122 3410.11,-126 3389.11,-126 3386.11,-122 3274.89,-122 3274.89,-86 3413.11,-86 3413.11,-122"/>
<text text-anchor="middle" x="3344" y="-99.8" font-family="Times,serif" font-size="14.00">LoginRoutingModule</text>
</g>
<!-- LoginRoutingModule&#45;&gt;LoginModule -->
<g id="edge30" class="edge">
<title>LoginRoutingModule&#45;&gt;LoginModule</title>
<path fill="none" stroke="black" d="M3344,-122.25C3344,-145.02 3344,-181 3344,-181 3344,-181 2993.69,-181 2993.69,-181"/>
<polygon fill="black" stroke="black" points="2993.69,-177.5 2983.69,-181 2993.69,-184.5 2993.69,-177.5"/>
</g>
<!-- PageAddOrdersComponent -->
<g id="node35" class="node">
<title>PageAddOrdersComponent</title>
<polygon fill="#ffffb3" stroke="black" points="4163.24,-122 3992.76,-122 3992.76,-86 4163.24,-86 4163.24,-122"/>
<text text-anchor="middle" x="4078" y="-99.8" font-family="Times,serif" font-size="14.00">PageAddOrdersComponent</text>
</g>
<!-- OrdersModule -->
<g id="node38" class="node">
<title>OrdersModule</title>
<polygon fill="#8dd3c7" stroke="black" points="3844.64,-190 3841.64,-194 3820.64,-194 3817.64,-190 3747.36,-190 3747.36,-154 3844.64,-154 3844.64,-190"/>
<text text-anchor="middle" x="3796" y="-167.8" font-family="Times,serif" font-size="14.00">OrdersModule</text>
</g>
<!-- PageAddOrdersComponent&#45;&gt;OrdersModule -->
<g id="edge31" class="edge">
<title>PageAddOrdersComponent&#45;&gt;OrdersModule</title>
<path fill="none" stroke="black" d="M4078,-122.22C4078,-142.37 4078,-172 4078,-172 4078,-172 3854.8,-172 3854.8,-172"/>
<polygon fill="black" stroke="black" points="3854.8,-168.5 3844.8,-172 3854.8,-175.5 3854.8,-168.5"/>
</g>
<!-- PageEditOrdersComponent -->
<g id="node36" class="node">
<title>PageEditOrdersComponent</title>
<polygon fill="#ffffb3" stroke="black" points="3974.97,-122 3805.03,-122 3805.03,-86 3974.97,-86 3974.97,-122"/>
<text text-anchor="middle" x="3890" y="-99.8" font-family="Times,serif" font-size="14.00">PageEditOrdersComponent</text>
</g>
<!-- PageEditOrdersComponent&#45;&gt;OrdersModule -->
<g id="edge32" class="edge">
<title>PageEditOrdersComponent&#45;&gt;OrdersModule</title>
<path fill="none" stroke="black" d="M3824.92,-122.22C3824.92,-122.22 3824.92,-143.73 3824.92,-143.73"/>
<polygon fill="black" stroke="black" points="3821.42,-143.73 3824.92,-153.73 3828.42,-143.73 3821.42,-143.73"/>
</g>
<!-- PageListOrdersComponent -->
<g id="node37" class="node">
<title>PageListOrdersComponent</title>
<polygon fill="#ffffb3" stroke="black" points="3787.41,-122 3618.59,-122 3618.59,-86 3787.41,-86 3787.41,-122"/>
<text text-anchor="middle" x="3703" y="-99.8" font-family="Times,serif" font-size="14.00">PageListOrdersComponent</text>
</g>
<!-- PageListOrdersComponent&#45;&gt;OrdersModule -->
<g id="edge33" class="edge">
<title>PageListOrdersComponent&#45;&gt;OrdersModule</title>
<path fill="none" stroke="black" d="M3767.19,-122.22C3767.19,-122.22 3767.19,-143.73 3767.19,-143.73"/>
<polygon fill="black" stroke="black" points="3763.69,-143.73 3767.19,-153.73 3770.69,-143.73 3763.69,-143.73"/>
</g>
<!-- OrdersRoutingModule -->
<g id="node39" class="node">
<title>OrdersRoutingModule</title>
<polygon fill="#8dd3c7" stroke="black" points="3595.25,-122 3592.25,-126 3571.25,-126 3568.25,-122 3452.75,-122 3452.75,-86 3595.25,-86 3595.25,-122"/>
<text text-anchor="middle" x="3524" y="-99.8" font-family="Times,serif" font-size="14.00">OrdersRoutingModule</text>
</g>
<!-- OrdersRoutingModule&#45;&gt;OrdersModule -->
<g id="edge34" class="edge">
<title>OrdersRoutingModule&#45;&gt;OrdersModule</title>
<path fill="none" stroke="black" d="M3524,-122.02C3524,-139.37 3524,-163 3524,-163 3524,-163 3737.06,-163 3737.06,-163"/>
<polygon fill="black" stroke="black" points="3737.06,-166.5 3747.06,-163 3737.06,-159.5 3737.06,-166.5"/>
</g>
<!-- PageNotFoundComponent -->
<g id="node40" class="node">
<title>PageNotFoundComponent</title>
<polygon fill="#ffffb3" stroke="black" points="4580.82,-122 4415.18,-122 4415.18,-86 4580.82,-86 4580.82,-122"/>
<text text-anchor="middle" x="4498" y="-99.8" font-family="Times,serif" font-size="14.00">PageNotFoundComponent</text>
</g>
<!-- PageNotFoundModule -->
<g id="node41" class="node">
<title>PageNotFoundModule</title>
<polygon fill="#8dd3c7" stroke="black" points="4468.54,-190 4465.54,-194 4444.54,-194 4441.54,-190 4325.46,-190 4325.46,-154 4468.54,-154 4468.54,-190"/>
<text text-anchor="middle" x="4397" y="-167.8" font-family="Times,serif" font-size="14.00">PageNotFoundModule</text>
</g>
<!-- PageNotFoundComponent&#45;&gt;PageNotFoundModule -->
<g id="edge35" class="edge">
<title>PageNotFoundComponent&#45;&gt;PageNotFoundModule</title>
<path fill="none" stroke="black" d="M4442.05,-122.22C4442.05,-122.22 4442.05,-143.73 4442.05,-143.73"/>
<polygon fill="black" stroke="black" points="4438.55,-143.73 4442.05,-153.73 4445.55,-143.73 4438.55,-143.73"/>
</g>
<!-- PageNotFoundRoutingModule -->
<g id="node42" class="node">
<title>PageNotFoundRoutingModule</title>
<polygon fill="#8dd3c7" stroke="black" points="4391.16,-122 4388.16,-126 4367.16,-126 4364.16,-122 4202.84,-122 4202.84,-86 4391.16,-86 4391.16,-122"/>
<text text-anchor="middle" x="4297" y="-99.8" font-family="Times,serif" font-size="14.00">PageNotFoundRoutingModule</text>
</g>
<!-- PageNotFoundRoutingModule&#45;&gt;PageNotFoundModule -->
<g id="edge36" class="edge">
<title>PageNotFoundRoutingModule&#45;&gt;PageNotFoundModule</title>
<path fill="none" stroke="black" d="M4358.28,-122.22C4358.28,-122.22 4358.28,-143.73 4358.28,-143.73"/>
<polygon fill="black" stroke="black" points="4354.78,-143.73 4358.28,-153.73 4361.78,-143.73 4354.78,-143.73"/>
</g>
<!-- UiComponent -->
<g id="node43" class="node">
<title>UiComponent</title>
<polygon fill="#ffffb3" stroke="black" points="4717.83,-122 4622.17,-122 4622.17,-86 4717.83,-86 4717.83,-122"/>
<text text-anchor="middle" x="4670" y="-99.8" font-family="Times,serif" font-size="14.00">UiComponent</text>
</g>
<!-- UiModule -->
<g id="node44" class="node">
<title>UiModule</title>
<polygon fill="#8dd3c7" stroke="black" points="4706.55,-190 4703.55,-194 4682.55,-194 4679.55,-190 4633.45,-190 4633.45,-154 4706.55,-154 4706.55,-190"/>
<text text-anchor="middle" x="4670" y="-167.8" font-family="Times,serif" font-size="14.00">UiModule</text>
</g>
<!-- UiComponent&#45;&gt;UiModule -->
<g id="edge37" class="edge">
<title>UiComponent&#45;&gt;UiModule</title>
<path fill="none" stroke="black" d="M4670,-122.22C4670,-122.22 4670,-143.73 4670,-143.73"/>
<polygon fill="black" stroke="black" points="4666.5,-143.73 4670,-153.73 4673.5,-143.73 4666.5,-143.73"/>
</g>
<!-- UiComponent  -->
<g id="node45" class="node">
<title>UiComponent </title>
<polygon fill="#fb8072" stroke="black" points="4719.33,-255 4620.67,-255 4620.67,-219 4719.33,-219 4719.33,-255"/>
<text text-anchor="middle" x="4670" y="-232.8" font-family="Times,serif" font-size="14.00">UiComponent </text>
</g>
<!-- UiModule&#45;&gt;UiComponent  -->
<g id="edge38" class="edge">
<title>UiModule&#45;&gt;UiComponent </title>
<path fill="none" stroke="black" stroke-dasharray="5,2" d="M4670,-190.11C4670,-190.11 4670,-208.99 4670,-208.99"/>
<polygon fill="black" stroke="black" points="4666.5,-208.99 4670,-218.99 4673.5,-208.99 4666.5,-208.99"/>
</g>
</g>
</svg>
